<svg width="40" height="40" viewBox="0 0 40 40" fill="none" xmlns="http://www.w3.org/2000/svg">
<path d="M19.9757 35.7484L20.7895 34.3745C21.4207 33.3088 21.7363 32.776 22.2432 32.4814C22.7501 32.1868 23.3883 32.1758 24.6648 32.1538C26.5492 32.1213 27.7311 32.006 28.7223 31.5957C30.5614 30.8344 32.0225 29.3743 32.7843 27.5365C33.0998 26.7752 33.2411 25.9014 33.3043 24.6828C33.3231 24.3213 33.3325 24.1406 33.2366 24.0009C33.1406 23.8612 32.9616 23.8027 32.6034 23.6858C30.5741 23.0233 24.809 20.99 21.6668 18.3334C18.1566 15.3656 15.0348 9.18078 14.1148 7.25329C13.9773 6.96504 13.9085 6.82092 13.7851 6.74374C13.6618 6.66656 13.5046 6.66771 13.1904 6.67001C9.87248 6.69433 8.42951 6.84441 6.9174 7.7704C5.90749 8.38886 5.05838 9.23738 4.43951 10.2466C3.3335 12.0502 3.3335 14.5055 3.3335 19.4159V20.916C3.3335 24.4107 3.3335 26.1581 3.90482 27.5365C4.66659 29.3743 6.12772 30.8344 7.96678 31.5957C8.95797 32.006 10.1398 32.1213 12.0243 32.1538C13.3007 32.1758 13.939 32.1868 14.4459 32.4814C14.9528 32.776 15.2684 33.3088 15.8996 34.3745L16.7133 35.7484C17.4386 36.9729 19.2505 36.9729 19.9757 35.7484Z" fill="#293770"/>
<path fill-rule="evenodd" clip-rule="evenodd" d="M22.8363 2.02922C23.3445 2.50829 23.3394 3.28024 22.8248 3.75341L21.1549 5.28895C22.6077 5.30263 24.0051 5.33559 25.2662 5.41505C26.3506 5.48338 27.3663 5.5878 28.2512 5.75173C29.118 5.91229 29.9532 6.14615 30.6166 6.51995C31.8495 7.21472 32.8878 8.16888 33.6452 9.30548C34.374 10.399 34.695 11.635 34.8491 13.1255C34.9999 14.5837 34.9999 16.406 34.9998 18.7167V18.7809C34.9998 19.4542 34.4135 20.0001 33.6903 20.0001C32.9671 20.0001 32.3808 19.4542 32.3808 18.7809C32.3808 16.3919 32.3794 14.6869 32.2421 13.3591C32.1067 12.0502 31.8488 11.235 31.4197 10.5911C30.8815 9.78334 30.1419 9.10275 29.2605 8.60604C28.9791 8.4475 28.4897 8.28213 27.7401 8.14328C27.0087 8.00779 26.1163 7.91262 25.0893 7.84791C23.9029 7.77315 22.5797 7.74131 21.1764 7.72775L22.8248 9.24354C23.3394 9.71671 23.3445 10.4887 22.8363 10.9677C22.3281 11.4468 21.499 11.4516 20.9844 10.9784L17.0558 7.36592C16.8067 7.13686 16.6665 6.82446 16.6665 6.49848C16.6665 6.1725 16.8067 5.86009 17.0558 5.63103L20.9844 2.01851C21.499 1.54535 22.3281 1.55014 22.8363 2.02922Z" fill="#293770"/>
</svg>
