<svg width="40" height="40" viewBox="0 0 40 40" fill="none" xmlns="http://www.w3.org/2000/svg">
<path d="M36.6667 13.6038L36.6667 13.7247C36.6667 15.1593 36.6667 15.8766 36.3214 16.4634C35.976 17.0503 35.349 17.3986 34.095 18.0953L32.7728 18.8299C33.6839 15.7496 33.9879 12.4402 34.1003 9.60988C34.1051 9.48852 34.1105 9.36568 34.116 9.24153L34.1198 9.15457C35.2053 9.53152 35.8147 9.81254 36.1949 10.3401C36.6668 10.9948 36.6668 11.8645 36.6667 13.6038Z" fill="#293770"/>
<path d="M3.3335 13.6038L3.3335 13.7247C3.33354 15.1593 3.33356 15.8766 3.67888 16.4634C4.02419 17.0503 4.65121 17.3986 5.90524 18.0953L7.22817 18.8303C6.31695 15.7499 6.01295 12.4403 5.90058 9.60988C5.89576 9.48852 5.89033 9.36568 5.88485 9.24153L5.881 9.15436C4.79517 9.53142 4.18559 9.81245 3.80532 10.3401C3.33343 10.9948 3.33345 11.8645 3.3335 13.6038Z" fill="#293770"/>
<path fill-rule="evenodd" clip-rule="evenodd" d="M20.0004 3.33325C22.973 3.33325 25.4219 3.59507 27.2954 3.91116C29.1933 4.23137 30.1422 4.39148 30.9351 5.36797C31.7279 6.34447 31.686 7.39988 31.6022 9.5107C31.3145 16.7574 29.7507 25.8087 21.2502 26.6094V32.4999H23.6338C24.4283 32.4999 25.1123 33.0607 25.2681 33.8397L25.5835 35.4166H30.0002C30.6905 35.4166 31.2502 35.9762 31.2502 36.6666C31.2502 37.3569 30.6905 37.9166 30.0002 37.9166H10.0002C9.30981 37.9166 8.75016 37.3569 8.75016 36.6666C8.75016 35.9762 9.30981 35.4166 10.0002 35.4166H14.4168L14.7322 33.8397C14.888 33.0607 15.572 32.4999 16.3665 32.4999H18.7502V26.6094C10.2501 25.8083 8.68631 16.7572 8.39861 9.5107C8.31481 7.39988 8.27291 6.34447 9.06577 5.36797C9.85863 4.39148 10.8076 4.23137 12.7055 3.91116C14.5789 3.59507 17.0278 3.33325 20.0004 3.33325ZM21.5874 10.3314L21.4236 10.0374C20.7903 8.90132 20.4736 8.33325 20.0002 8.33325C19.5267 8.33325 19.2101 8.90132 18.5767 10.0374L18.4129 10.3314C18.2329 10.6542 18.1429 10.8156 18.0026 10.9222C17.8623 11.0287 17.6876 11.0682 17.3381 11.1473L17.0199 11.2193C15.7901 11.4975 15.1752 11.6367 15.0289 12.1071C14.8826 12.5776 15.3018 13.0678 16.1402 14.0482L16.3571 14.3019C16.5954 14.5805 16.7145 14.7198 16.7681 14.8921C16.8217 15.0644 16.8037 15.2503 16.7677 15.622L16.7349 15.9605C16.6081 17.2686 16.5447 17.9226 16.9277 18.2134C17.3108 18.5041 17.8865 18.239 19.038 17.7088L19.3359 17.5717C19.6631 17.421 19.8267 17.3457 20.0002 17.3457C20.1736 17.3457 20.3372 17.421 20.6644 17.5717L20.9623 17.7088C22.1138 18.239 22.6896 18.5041 23.0726 18.2134C23.4556 17.9226 23.3922 17.2686 23.2655 15.9605L23.2327 15.622C23.1966 15.2503 23.1786 15.0644 23.2322 14.8921C23.2858 14.7198 23.405 14.5805 23.6432 14.3019L23.8601 14.0482C24.6985 13.0678 25.1178 12.5776 24.9715 12.1071C24.8252 11.6367 24.2102 11.4975 22.9804 11.2193L22.6622 11.1473C22.3127 11.0682 22.138 11.0287 21.9977 10.9222C21.8574 10.8156 21.7674 10.6542 21.5874 10.3314Z" fill="#293770"/>
</svg>
