<svg width="40" height="40" viewBox="0 0 40 40" fill="none" xmlns="http://www.w3.org/2000/svg">
<path fill-rule="evenodd" clip-rule="evenodd" d="M3.33301 19.9999V13.3333C3.33301 8.61921 3.33301 6.26219 4.79747 4.79772C6.26194 3.33325 8.61896 3.33325 13.333 3.33325H26.6663C31.3804 3.33325 33.7374 3.33325 35.2019 4.79772C36.6663 6.26218 36.6663 8.61921 36.6663 13.3333V19.9999C36.6663 24.714 36.6663 27.071 35.2019 28.5355C34.1246 29.6128 32.5643 29.8976 29.938 29.9729C29.9319 28.7465 29.5058 27.5219 28.6599 26.5292C28.612 26.473 28.5831 26.4032 28.5772 26.3297C28.3682 23.7106 26.2884 21.6308 23.6693 21.4217C23.5958 21.4159 23.526 21.387 23.4698 21.3391C21.47 19.6349 18.5287 19.6349 16.5289 21.3391C16.4728 21.387 16.403 21.4159 16.3294 21.4217C13.7103 21.6308 11.6305 23.7106 11.4215 26.3297C11.4156 26.4032 11.3867 26.473 11.3389 26.5292C10.4929 27.5218 10.0669 28.7465 10.0608 29.9728C7.43485 29.8975 5.87469 29.6127 4.79747 28.5355C3.33301 27.071 3.33301 24.714 3.33301 19.9999ZM13.7497 9.99992C13.7497 9.30956 14.3093 8.74992 14.9997 8.74992H24.9997C25.69 8.74992 26.2497 9.30956 26.2497 9.99992C26.2497 10.6903 25.69 11.2499 24.9997 11.2499H14.9997C14.3093 11.2499 13.7497 10.6903 13.7497 9.99992ZM11.6663 14.5833C10.976 14.5833 10.4163 15.1429 10.4163 15.8333C10.4163 16.5236 10.976 17.0833 11.6663 17.0833H28.333C29.0234 17.0833 29.583 16.5236 29.583 15.8333C29.583 15.1429 29.0234 14.5833 28.333 14.5833H11.6663Z" fill="#293770"/>
<path fill-rule="evenodd" clip-rule="evenodd" d="M21.8483 23.2419C20.7829 22.334 19.2159 22.334 18.1505 23.2419C17.6939 23.631 17.1263 23.8661 16.5283 23.9138C15.133 24.0252 14.0249 25.1332 13.9136 26.5286C13.8659 27.1265 13.6307 27.6942 13.2417 28.1507C12.3337 29.2161 12.3337 30.7831 13.2417 31.8485C13.6307 32.3051 13.8659 32.8727 13.9136 33.4707C14.0249 34.866 15.133 35.9741 16.5283 36.0854C17.1263 36.1331 17.6939 36.3683 18.1505 36.7573C19.2159 37.6653 20.7829 37.6653 21.8483 36.7573C22.3048 36.3683 22.8725 36.1331 23.4704 36.0854C24.8658 35.9741 25.9738 34.866 26.0852 33.4707C26.1329 32.8727 26.368 32.3051 26.7571 31.8485C27.665 30.7831 27.665 29.2161 26.7571 28.1507C26.368 27.6942 26.1329 27.1265 26.0852 26.5286C25.9738 25.1332 24.8658 24.0252 23.4704 23.9138C22.8725 23.8661 22.3048 23.631 21.8483 23.2419ZM23.3526 29.2471C23.8573 28.776 23.8845 27.985 23.4135 27.4804C22.9425 26.9757 22.1515 26.9484 21.6468 27.4194L18.9283 29.9567L18.3526 29.4194C17.8479 28.9484 17.0569 28.9757 16.5859 29.4804C16.1148 29.9851 16.1421 30.776 16.6468 31.2471L18.0754 32.5804C18.5556 33.0287 19.3009 33.0287 19.7812 32.5804L23.3526 29.2471Z" fill="#293770"/>
</svg>
