<svg width="40" height="40" viewBox="0 0 40 40" fill="none" xmlns="http://www.w3.org/2000/svg">
<g clip-path="url(#clip0_2275_6790)">
<path d="M19.6744 17.0909C19.6744 16.2876 19.0497 15.6364 18.2791 15.6364H15.1628C15.8092 12.3167 18.6247 9.81818 22 9.81818C25.3753 9.81818 28.1908 12.3167 28.8372 15.6364H23.8605C23.0898 15.6364 22.4651 16.2876 22.4651 17.0909C22.4651 17.8942 23.0898 18.5455 23.8605 18.5455H28.9767V21.4545H23.8605C23.0898 21.4545 22.4651 22.1058 22.4651 22.9091C22.4651 23.7124 23.0898 24.3636 23.8605 24.3636H28.8372C28.2823 27.2133 26.129 29.4579 23.3953 30.0363V34.5455C23.3953 35.3488 22.7706 36 22 36C21.2294 36 20.6047 35.3488 20.6047 34.5455V30.0363C17.871 29.4579 15.7177 27.2133 15.1628 24.3636H18.2791C19.0497 24.3636 19.6744 23.7124 19.6744 22.9091C19.6744 22.1058 19.0497 21.4545 18.2791 21.4545H15.0233V18.5455H18.2791C19.0497 18.5455 19.6744 17.8942 19.6744 17.0909Z" fill="#293770"/>
<path d="M22 4C15.3411 4 9.89268 9.40255 9.46845 16.2322C8.76423 15.8515 7.96435 15.6364 7.11628 15.6364C4.29064 15.6364 2 18.0242 2 20.9697V24.8485C2 27.794 4.29064 30.1818 7.11628 30.1818C7.21233 30.1818 7.30776 30.1791 7.4025 30.1736V30.1818C10.0701 30.1818 12.2326 27.9276 12.2326 25.1469V17.0909C12.2326 11.4676 16.6056 6.90909 22 6.90909C27.3944 6.90909 31.7674 11.4676 31.7674 17.0909V25.1469C31.7674 27.9276 33.9299 30.1818 36.5974 30.1818V30.1736C36.6922 30.1791 36.7876 30.1818 36.8837 30.1818C39.7094 30.1818 42 27.794 42 24.8485V20.9697C42 18.0242 39.7094 15.6364 36.8837 15.6364C36.0356 15.6364 35.2357 15.8515 34.5315 16.2322C34.1073 9.40257 28.6589 4 22 4Z" fill="#293770"/>
</g>
<defs>
<clipPath id="clip0_2275_6790">
<rect width="40" height="40" fill="white"/>
</clipPath>
</defs>
</svg>
