<svg width="40" height="40" viewBox="0 0 40 40" fill="none" xmlns="http://www.w3.org/2000/svg">
<path fill-rule="evenodd" clip-rule="evenodd" d="M27.5417 3.33325H27.6555C29.1284 3.33324 30.3164 3.33323 31.2726 3.42415C32.2588 3.51792 33.118 3.71653 33.8907 4.19C34.673 4.66939 35.3307 5.32713 35.8101 6.10943C36.2836 6.88206 36.4822 7.74128 36.5759 8.72747C36.6669 9.68375 36.6668 10.8717 36.6668 12.3446V12.4585C36.6669 13.4264 36.6669 14.2341 36.6045 14.8901C36.5393 15.5759 36.3978 16.215 36.0386 16.8013C35.687 17.375 35.2047 17.8573 34.631 18.2089C34.0447 18.5681 33.4056 18.7096 32.7198 18.7748C32.0638 18.8372 31.256 18.8372 30.2882 18.8371L28.4466 18.8371C27.0537 18.8372 25.8921 18.8372 24.97 18.7132C23.9966 18.5824 23.1179 18.2945 22.4117 17.5884C21.7056 16.8822 21.4177 16.0034 21.2868 15.0301C21.1629 14.108 21.1629 12.9464 21.163 11.5534L21.163 9.712C21.1629 8.74416 21.1629 7.93634 21.2253 7.28031C21.2905 6.59448 21.432 5.95534 21.7912 5.36911C22.1428 4.79543 22.6251 4.31309 23.1988 3.96153C23.785 3.60229 24.4242 3.4608 25.11 3.39559C25.7661 3.33321 26.5738 3.33323 27.5417 3.33325ZM28.9149 13.0232C28.1158 13.0232 27.7163 13.0232 27.4342 12.823C27.3346 12.7524 27.2477 12.6655 27.1771 12.5659C26.9769 12.2838 26.9769 11.8843 26.9769 11.0852C26.9769 10.2861 26.9769 9.88657 27.1771 9.60446C27.2477 9.50492 27.3346 9.418 27.4342 9.34737C27.7163 9.14721 28.1158 9.14721 28.9149 9.14721C29.714 9.14721 30.1135 9.14721 30.3956 9.34737C30.4952 9.418 30.5821 9.50492 30.6527 9.60446C30.8529 9.88657 30.8529 10.2861 30.8529 11.0852C30.8529 11.8843 30.8529 12.2838 30.6527 12.5659C30.5821 12.6655 30.4952 12.7524 30.3956 12.823C30.1135 13.0232 29.714 13.0232 28.9149 13.0232Z" fill="#293770"/>
<path fill-rule="evenodd" clip-rule="evenodd" d="M16.8015 3.96153C16.2153 3.60229 15.5762 3.4608 14.8903 3.39559C14.2343 3.33321 13.4265 3.33323 12.4587 3.33325H12.3449C10.8719 3.33324 9.68398 3.33323 8.72771 3.42415C7.74153 3.51792 6.88231 3.71653 6.10967 4.19C5.32737 4.66939 4.66964 5.32713 4.19024 6.10943C3.71677 6.88206 3.51816 7.74128 3.42439 8.72747C3.33347 9.68373 3.33348 10.8716 3.3335 12.3446V12.4584C3.33348 13.4262 3.33346 14.234 3.39584 14.8901C3.46105 15.5759 3.60254 16.215 3.96178 16.8013C4.31333 17.375 4.79567 17.8573 5.36936 18.2089C5.95559 18.5681 6.59472 18.7096 7.28055 18.7748C7.93655 18.8372 8.74422 18.8372 9.71201 18.8371L11.5536 18.8371C12.9466 18.8372 14.1082 18.8372 15.0304 18.7132C16.0037 18.5824 16.8825 18.2945 17.5886 17.5884C18.2948 16.8822 18.5826 16.0034 18.7135 15.0301C18.8375 14.108 18.8374 12.9464 18.8374 11.5534L18.8374 9.71201C18.8374 8.74422 18.8374 7.93631 18.775 7.28031C18.7098 6.59448 18.5683 5.95534 18.2091 5.36911C17.8575 4.79543 17.3752 4.31309 16.8015 3.96153ZM9.60471 12.823C9.88682 13.0232 10.2864 13.0232 11.0854 13.0232C11.8845 13.0232 12.2841 13.0232 12.5662 12.823C12.6657 12.7524 12.7526 12.6655 12.8233 12.5659C13.0234 12.2838 13.0234 11.8843 13.0234 11.0852C13.0234 10.2861 13.0234 9.88657 12.8233 9.60446C12.7526 9.50492 12.6657 9.418 12.5662 9.34737C12.2841 9.14721 11.8845 9.14721 11.0854 9.14721C10.2864 9.14721 9.88682 9.14721 9.60471 9.34737C9.50516 9.418 9.41825 9.50492 9.34762 9.60446C9.14745 9.88657 9.14745 10.2861 9.14745 11.0852C9.14745 11.8843 9.14745 12.2838 9.34762 12.5659C9.41825 12.6655 9.50516 12.7524 9.60471 12.823Z" fill="#293770"/>
<path fill-rule="evenodd" clip-rule="evenodd" d="M15.0304 21.2866C16.0037 21.4175 16.8825 21.7053 17.5886 22.4115C18.2948 23.1176 18.5826 23.9964 18.7135 24.9697C18.8375 25.8919 18.8374 27.0535 18.8374 28.4464L18.8374 30.2879C18.8374 31.2557 18.8374 32.0635 18.775 32.7195C18.7098 33.4054 18.5683 34.0445 18.2091 34.6307C17.8575 35.2044 17.3752 35.6867 16.8015 36.0383C16.2153 36.3975 15.5762 36.539 14.8903 36.6043C14.2343 36.6666 13.4264 36.6666 12.4586 36.6666H12.3449C10.8719 36.6666 9.68399 36.6666 8.72771 36.5757C7.74153 36.4819 6.88231 36.2833 6.10967 35.8098C5.32737 35.3304 4.66964 34.6727 4.19024 33.8904C3.71677 33.1178 3.51816 32.2586 3.42439 31.2724C3.33347 30.3161 3.33348 29.1282 3.3335 27.6552V27.5415C3.33348 26.5736 3.33346 25.7658 3.39584 25.1098C3.46105 24.4239 3.60254 23.7848 3.96178 23.1986C4.31333 22.6249 4.79567 22.1425 5.36936 21.791C5.95559 21.4317 6.59472 21.2903 7.28055 21.225C7.93657 21.1627 8.74429 21.1627 9.71211 21.1627L11.5537 21.1627C12.9466 21.1627 14.1082 21.1626 15.0304 21.2866ZM11.0854 30.8526C10.2864 30.8526 9.88682 30.8526 9.60471 30.6525C9.50516 30.5818 9.41825 30.4949 9.34762 30.3954C9.14745 30.1133 9.14745 29.7137 9.14745 28.9146C9.14745 28.1156 9.14745 27.716 9.34762 27.4339C9.41825 27.3344 9.50516 27.2475 9.60471 27.1768C9.88681 26.9767 10.2863 26.9767 11.0854 26.9767C11.8845 26.9767 12.2841 26.9767 12.5662 27.1768C12.6657 27.2475 12.7526 27.3344 12.8233 27.4339C13.0234 27.716 13.0234 28.1156 13.0234 28.9146C13.0234 29.7137 13.0234 30.1133 12.8233 30.3954C12.7526 30.4949 12.6657 30.5818 12.5662 30.6525C12.2841 30.8526 11.8845 30.8526 11.0854 30.8526Z" fill="#293770"/>
<path d="M21.163 27.6924V27.7519H23.4885C23.4885 26.6389 23.4899 25.8918 23.5479 25.3221C23.6039 24.7719 23.7028 24.5177 23.8151 24.3496C23.9565 24.138 24.1382 23.9563 24.3498 23.8149C24.518 23.7026 24.7722 23.6036 25.3224 23.5476C25.892 23.4897 26.6392 23.4883 27.7521 23.4883H30.8529V21.1627H27.6926C26.6545 21.1627 25.7883 21.1627 25.087 21.234C24.3529 21.3087 23.6718 21.471 23.0578 21.8812C22.5923 22.1923 22.1926 22.592 21.8815 23.0576C21.4713 23.6715 21.3089 24.3527 21.2342 25.0868C21.1629 25.788 21.1629 26.6543 21.163 27.6924Z" fill="#293770"/>
<path d="M36.6668 30.8918V30.8526H34.3412C34.3412 31.5909 34.3406 32.0864 34.3144 32.4701C34.289 32.8433 34.2433 33.025 34.1937 33.1447C33.997 33.6195 33.6198 33.9968 33.1449 34.1935C33.0253 34.243 32.8435 34.2887 32.4703 34.3142C32.0867 34.3404 31.5912 34.341 30.8529 34.341H27.7521V36.6666H30.892C31.5811 36.6666 32.1564 36.6666 32.6286 36.6344C33.1203 36.6008 33.5846 36.5285 34.0349 36.342C35.0796 35.9093 35.9096 35.0793 36.3423 34.0346C36.5288 33.5844 36.6011 33.12 36.6346 32.6284C36.6669 32.1561 36.6668 31.5809 36.6668 30.8918Z" fill="#293770"/>
<path d="M23.4885 35.5038C23.4885 36.146 22.9679 36.6666 22.3257 36.6666C21.6836 36.6666 21.163 36.146 21.163 35.5038V30.8526H23.4885V35.5038Z" fill="#293770"/>
<path d="M35.504 21.1627C34.8618 21.1627 34.3412 21.6833 34.3412 22.3255V27.7519H36.6668V22.3255C36.6668 21.6833 36.1462 21.1627 35.504 21.1627Z" fill="#293770"/>
<path d="M26.7937 27.6954C26.6668 28.0017 26.6668 28.39 26.6668 29.1666C26.6668 29.9432 26.6668 30.3314 26.7937 30.6377C26.9629 31.0461 27.2873 31.3706 27.6957 31.5397C28.002 31.6666 28.3903 31.6666 29.1668 31.6666C29.9434 31.6666 30.3317 31.6666 30.638 31.5397C31.0464 31.3706 31.3708 31.0461 31.54 30.6377C31.6668 30.3314 31.6668 29.9432 31.6668 29.1666C31.6668 28.39 31.6668 28.0017 31.54 27.6954C31.3708 27.2871 31.0464 26.9626 30.638 26.7935C30.3317 26.6666 29.9434 26.6666 29.1668 26.6666C28.3903 26.6666 28.002 26.6666 27.6957 26.7935C27.2873 26.9626 26.9629 27.2871 26.7937 27.6954Z" fill="#293770"/>
</svg>
