<svg width="40" height="40" viewBox="0 0 40 40" fill="none" xmlns="http://www.w3.org/2000/svg">
<path fill-rule="evenodd" clip-rule="evenodd" d="M20.0002 36.6666C12.1434 36.6666 8.21505 36.6666 5.77427 34.2258C3.3335 31.785 3.3335 27.8567 3.3335 19.9999C3.3335 12.1432 3.3335 8.21481 5.77427 5.77403C8.21505 3.33325 12.1434 3.33325 20.0002 3.33325C27.8569 3.33325 31.7853 3.33325 34.2261 5.77403C36.6668 8.21481 36.6668 12.1432 36.6668 19.9999C36.6668 27.8567 36.6668 31.785 34.2261 34.2258C31.7853 36.6666 27.8569 36.6666 20.0002 36.6666ZM17.8054 31.0338C19.9877 31.4678 22.2497 31.2451 24.3054 30.3936C26.361 29.5421 28.118 28.1001 29.3542 26.2501C30.5904 24.4 31.2502 22.225 31.2502 19.9999C31.2502 19.3096 30.6905 18.7499 30.0002 18.7499C29.3098 18.7499 28.7502 19.3096 28.7502 19.9999C28.7502 21.7305 28.237 23.4222 27.2755 24.8612C26.3141 26.3001 24.9475 27.4216 23.3486 28.0839C21.7498 28.7461 19.9905 28.9194 18.2931 28.5818C16.5958 28.2442 15.0367 27.4108 13.813 26.1871C12.5893 24.9634 11.7559 23.4043 11.4183 21.707C11.0807 20.0096 11.254 18.2503 11.9162 16.6514C12.5785 15.0526 13.7 13.686 15.1389 12.7246C16.5779 11.7631 18.2696 11.2499 20.0002 11.2499C20.6905 11.2499 21.2502 10.6903 21.2502 9.99992C21.2502 9.30956 20.6905 8.74992 20.0002 8.74992C17.7751 8.74992 15.6001 9.40972 13.75 10.6459C11.8999 11.8821 10.458 13.6391 9.60652 15.6947C8.75503 17.7504 8.53225 20.0124 8.96633 22.1947C9.40041 24.377 10.4719 26.3815 12.0452 27.9549C13.6186 29.5282 15.6231 30.5997 17.8054 31.0338ZM22.1849 10.0755C22.457 9.44103 23.1919 9.1472 23.8264 9.41924C26.8549 10.7177 29.2823 13.1451 30.5808 16.1737C30.8529 16.8082 30.5591 17.5431 29.9246 17.8152C29.2901 18.0872 28.5552 17.7934 28.2831 17.1589C27.2375 14.72 25.28 12.7626 22.8412 11.717C22.2067 11.4449 21.9129 10.71 22.1849 10.0755Z" fill="#293770"/>
</svg>
