<?xml version="1.0" standalone="no"?>
<!DOCTYPE svg PUBLIC "-//W3C//DTD SVG 1.1//EN" "http://www.w3.org/Graphics/SVG/1.1/DTD/svg11.dtd" >
<svg xmlns="http://www.w3.org/2000/svg" xmlns:xlink="http://www.w3.org/1999/xlink" version="1.1">
<metadata>
Created by FontForge 20201107 at Wed Sep 30 11:00:33 2020
 By 
Copyright 2019 The Oxanium Project Authors (https://github.com/sevmeyer/oxanium)
</metadata>
<defs>
<font id="Oxanium-ExtraBold" horiz-adv-x="578" >
  <font-face 
    font-family="Oxanium ExtraBold"
    font-weight="800"
    font-stretch="normal"
    units-per-em="1000"
    panose-1="0 0 0 0 0 0 0 0 0 0"
    ascent="790"
    descent="-210"
    x-height="532"
    cap-height="690"
    bbox="-523 -211 1236 1000"
    underline-thickness="50"
    underline-position="-100"
    unicode-range="U+000D-FB02"
  />
<missing-glyph horiz-adv-x="598" 
d="M76 0v740h446v-740h-446zM172 95h254v550h-254v-550z" />
    <glyph glyph-name=".notdef" horiz-adv-x="598" 
d="M76 0v740h446v-740h-446zM172 95h254v550h-254v-550z" />
    <glyph glyph-name=".null" horiz-adv-x="0" 
 />
    <glyph glyph-name=".null" horiz-adv-x="0" 
 />
    <glyph glyph-name="nonmarkingreturn" unicode="&#xd;" horiz-adv-x="240" 
 />
    <glyph glyph-name="space" unicode=" " horiz-adv-x="240" 
 />
    <glyph glyph-name="exclam" unicode="!" horiz-adv-x="287" 
d="M56 0v161h175v-161h-175zM56 228v462h174v-462h-174z" />
    <glyph glyph-name="quotedbl" unicode="&#x22;" horiz-adv-x="492" 
d="M58 460v280h149v-280h-149zM285 460v280h149v-280h-149z" />
    <glyph glyph-name="numbersign" unicode="#" horiz-adv-x="682" 
d="M50 154v142h102v98h-102v142h102v154h150v-154h78v154h150v-154h102v-142h-102v-98h102v-142h-102v-154h-150v154h-78v-154h-150v154h-102zM302 296h78v98h-78v-98z" />
    <glyph glyph-name="dollar" unicode="$" 
d="M51 60v97h291q11 0 11 11v54q0 14 -12 16l-165 32q-125 24 -125 168v36q0 186 161 186h4v120h146v-120h67l78 -60v-97h-271q-11 0 -11 -11v-52q0 -14 12 -16l165 -34q125 -26 125 -167v-37q0 -186 -161 -186h-4v-120h-146v120h-87z" />
    <glyph glyph-name="percent" unicode="%" horiz-adv-x="893" 
d="M31 404v153q0 133 133 133h41q133 0 133 -133v-153q0 -133 -133 -133h-41q-133 0 -133 133zM161 393q0 -4 4 -4h39q4 0 4 4v175q0 4 -4 4h-39q-4 0 -4 -4v-175zM221 45l330 660l120 -60l-330 -660zM555 133v153q0 133 133 133h41q133 0 133 -133v-153q0 -133 -133 -133
h-41q-133 0 -133 133zM685 122q0 -4 4 -4h39q4 0 4 4v175q0 4 -4 4h-39q-4 0 -4 -4v-175z" />
    <glyph glyph-name="ampersand" unicode="&#x26;" horiz-adv-x="684" 
d="M58 168v76q0 52 33 80l42 35l-35 42q-20 24 -20 58v63q0 168 168 168h178l70 -52v-93h-236q-13 0 -13 -13v-89q0 -13 13 -13h386v-145h-100v-285h-318q-168 0 -168 168zM225 158q0 -13 13 -13h139v140h-139q-13 0 -13 -13v-114z" />
    <glyph glyph-name="quotesingle" unicode="'" horiz-adv-x="265" 
d="M58 460v280h149v-280h-149z" />
    <glyph glyph-name="parenleft" unicode="(" horiz-adv-x="367" 
d="M222 -205q-161 221 -161 495t161 495l128 -95q-122 -176 -122 -400t122 -400z" />
    <glyph glyph-name="parenright" unicode=")" horiz-adv-x="367" 
d="M17 -110q122 176 122 400t-122 400l127 95q162 -221 162 -495t-162 -495z" />
    <glyph glyph-name="asterisk" unicode="*" horiz-adv-x="521" 
d="M41 484l39 120l116 -34v120h130v-120l116 34l38 -120l-114 -39l70 -99l-102 -74l-74 97l-73 -97l-101 74l69 99z" />
    <glyph glyph-name="plus" unicode="+" 
d="M58 264v142h156v164h150v-164h156v-142h-156v-164h-150v164h-156z" />
    <glyph glyph-name="comma" unicode="," horiz-adv-x="287" 
d="M17 -124l61 285h156l17 -25l-111 -291z" />
    <glyph glyph-name="hyphen" unicode="-" horiz-adv-x="390" 
d="M40 234v142h310v-142h-310z" />
    <glyph glyph-name="period" unicode="." horiz-adv-x="287" 
d="M56 0v161h175v-161h-175z" />
    <glyph glyph-name="slash" unicode="/" horiz-adv-x="459" 
d="M20 -12l280 764l139 -50l-279 -764z" />
    <glyph glyph-name="zero" unicode="0" 
d="M46 176v338q0 176 176 176h134q176 0 176 -176v-338q0 -176 -176 -176h-134q-176 0 -176 176zM220 168q0 -11 11 -11h116q11 0 11 11v354q0 11 -11 11h-116q-11 0 -11 -11v-354z" />
    <glyph glyph-name="one" unicode="1" 
d="M74 0v157h144v376h-124v97l78 60h220v-533h128v-157h-446z" />
    <glyph glyph-name="two" unicode="2" 
d="M46 0v232q0 143 125 168l175 35q12 3 12 16v71q0 11 -11 11h-281v97l78 60h212q176 0 176 -176v-64q0 -143 -125 -168l-175 -35q-12 -3 -12 -16v-74h312v-157h-486z" />
    <glyph glyph-name="three" unicode="3" 
d="M56 60v97h291q11 0 11 11v94q0 11 -11 11h-217v157h217q11 0 11 11v81q0 11 -11 11h-281v97l78 60h212q176 0 176 -176v-59q0 -40 -25 -65l-35 -35l35 -35q25 -25 25 -65v-79q0 -176 -176 -176h-222z" />
    <glyph glyph-name="four" unicode="4" 
d="M46 88v142l201 460h148l20 -35l-179 -409h122v184h174v-430h-174v88h-312z" />
    <glyph glyph-name="five" unicode="5" 
d="M36 60v97h311q11 0 11 11v104q0 11 -11 11h-301v407h456v-157h-282v-93h136q176 0 176 -176v-88q0 -176 -176 -176h-242z" />
    <glyph glyph-name="six" unicode="6" 
d="M46 176v303q0 211 211 211h157l78 -60v-97h-239q-33 0 -33 -33v-60h136q176 0 176 -176v-88q0 -176 -176 -176h-134q-176 0 -176 176zM220 168q0 -11 11 -11h116q11 0 11 11v104q0 11 -11 11h-127v-115z" />
    <glyph glyph-name="seven" unicode="7" 
d="M46 533v157h486v-235l-238 -455h-156l-20 35l240 455v43h-312z" />
    <glyph glyph-name="eight" unicode="8" 
d="M46 176v78q0 40 25 64l35 36l-35 34q-25 26 -25 66v60q0 176 176 176h134q176 0 176 -176v-60q0 -40 -25 -66l-35 -34l35 -36q25 -24 25 -64v-78q0 -176 -176 -176h-134q-176 0 -176 176zM220 168q0 -11 11 -11h116q11 0 11 11v94q0 11 -11 11h-116q-11 0 -11 -11v-94z
M220 441q0 -11 11 -11h116q11 0 11 11v81q0 11 -11 11h-116q-11 0 -11 -11v-81z" />
    <glyph glyph-name="nine" unicode="9" 
d="M46 425v89q0 176 176 176h134q176 0 176 -176v-303q0 -211 -211 -211h-167l-78 60v97h249q33 0 33 33v60h-136q-176 0 -176 175zM220 418q0 -11 11 -11h127v115q0 11 -11 11h-116q-11 0 -11 -11v-104z" />
    <glyph glyph-name="colon" unicode=":" horiz-adv-x="287" 
d="M56 0v161h175v-161h-175zM56 371v161h175v-161h-175z" />
    <glyph glyph-name="semicolon" unicode=";" horiz-adv-x="287" 
d="M17 -124l61 285h156l17 -25l-111 -291zM56 371v161h175v-161h-175z" />
    <glyph glyph-name="less" unicode="&#x3c;" 
d="M64 257v156l405 193l60 -126l-311 -145l311 -145l-60 -126z" />
    <glyph glyph-name="equal" unicode="=" 
d="M58 154v142h462v-142h-462zM58 374v142h462v-142h-462z" />
    <glyph glyph-name="greater" unicode="&#x3e;" 
d="M49 190l311 145l-311 145l60 126l405 -193v-156l-405 -193z" />
    <glyph glyph-name="question" unicode="?" horiz-adv-x="536" 
d="M40 533v97l78 60h192q176 0 176 -176v-70q0 -186 -165 -186h-4v-30h-174v187h158q11 0 11 11v96q0 11 -11 11h-261zM142 0v161h176v-161h-176z" />
    <glyph glyph-name="at" unicode="@" horiz-adv-x="812" 
d="M78 20v510q0 160 160 160h496v-630h-268q-168 0 -168 168v94q0 168 168 168h119v70h-341q-17 0 -17 -18v-534q0 -18 17 -18h470v-78l-70 -52h-406q-160 0 -160 160zM465 218q0 -13 13 -13h89v140h-89q-13 0 -13 -13v-114z" />
    <glyph glyph-name="A" unicode="A" horiz-adv-x="684" 
d="M17 32l195 658h260l195 -658l-21 -32h-146l-34 123h-248l-34 -123h-146zM264 280h156l-72 253h-12z" />
    <glyph glyph-name="B" unicode="B" horiz-adv-x="656" 
d="M78 0v690h330q176 0 176 -176v-55q0 -34 -20 -58l-35 -42l42 -35q33 -27 33 -80v-68q0 -176 -176 -176h-350zM252 157h167q11 0 11 11v94q0 11 -11 11h-167v-116zM252 430h147q11 0 11 11v81q0 11 -11 11h-147v-103z" />
    <glyph glyph-name="C" unicode="C" horiz-adv-x="631" 
d="M68 176v338q0 176 176 176h259l78 -60v-97h-328q-11 0 -11 -11v-354q0 -11 11 -11h328v-97l-78 -60h-259q-176 0 -176 176z" />
    <glyph glyph-name="D" unicode="D" horiz-adv-x="692" 
d="M78 0v690h258q298 0 298 -298v-94q0 -298 -298 -298h-258zM252 157h94q114 0 114 115v146q0 115 -114 115h-94v-376z" />
    <glyph glyph-name="E" unicode="E" horiz-adv-x="611" 
d="M78 0v690h483v-157h-309v-103h279v-157h-279v-116h309v-157h-483z" />
    <glyph glyph-name="F" unicode="F" horiz-adv-x="591" 
d="M78 0v690h483v-157h-309v-133h279v-157h-279v-243h-174z" />
    <glyph glyph-name="G" unicode="G" horiz-adv-x="682" 
d="M68 176v338q0 176 176 176h282l78 -60v-97h-351q-11 0 -11 -11v-354q0 -11 11 -11h197v116h-113v157h287v-430h-380q-176 0 -176 176z" />
    <glyph glyph-name="H" unicode="H" horiz-adv-x="712" 
d="M78 0v690h174v-260h208v260h174v-690h-174v273h-208v-273h-174z" />
    <glyph glyph-name="I" unicode="I" horiz-adv-x="330" 
d="M78 0v690h174v-690h-174z" />
    <glyph glyph-name="J" unicode="J" horiz-adv-x="616" 
d="M48 176v144h174v-152q0 -11 11 -11h126q11 0 11 11v365h-169v157h343v-514q0 -176 -176 -176h-144q-176 0 -176 176z" />
    <glyph glyph-name="K" unicode="K" horiz-adv-x="693" 
d="M78 0v690h174v-232l208 232h164l16 -34l-224 -250l250 -372l-16 -34h-160l-186 280l-52 -54v-226h-174z" />
    <glyph glyph-name="L" unicode="L" horiz-adv-x="555" 
d="M78 0v690h174v-533h279v-157h-453z" />
    <glyph glyph-name="M" unicode="M" horiz-adv-x="912" 
d="M78 0v690h202l176 -376l176 376h202v-690h-174v372l-134 -287h-140l-134 287v-372h-174z" />
    <glyph glyph-name="N" unicode="N" horiz-adv-x="747" 
d="M78 0v690h188l229 -400v400h174v-690h-187l-230 400v-400h-174z" />
    <glyph glyph-name="O" unicode="O" horiz-adv-x="712" 
d="M68 176v338q0 176 176 176h224q176 0 176 -176v-338q0 -176 -176 -176h-224q-176 0 -176 176zM242 168q0 -11 11 -11h206q11 0 11 11v354q0 11 -11 11h-206q-11 0 -11 -11v-354z" />
    <glyph glyph-name="P" unicode="P" horiz-adv-x="642" 
d="M78 0v690h340q176 0 176 -176v-136q0 -175 -176 -175h-166v-203h-174zM252 360h157q11 0 11 11v151q0 11 -11 11h-157v-173z" />
    <glyph glyph-name="Q" unicode="Q" horiz-adv-x="712" 
d="M68 176v338q0 176 176 176h224q176 0 176 -176v-338q0 -136 -104 -166l64 -125l-20 -35h-151l-76 150h-113q-176 0 -176 176zM242 168q0 -11 11 -11h206q11 0 11 11v354q0 11 -11 11h-206q-11 0 -11 -11v-354z" />
    <glyph glyph-name="R" unicode="R" horiz-adv-x="652" 
d="M78 0v690h340q176 0 176 -176v-116q0 -122 -84 -160l104 -203l-20 -35h-150l-114 223h-78v-223h-174zM252 380h157q11 0 11 11v131q0 11 -11 11h-157v-153z" />
    <glyph glyph-name="S" unicode="S" horiz-adv-x="592" 
d="M48 60v97h311q11 0 11 11v68q0 14 -12 16l-185 38q-125 24 -125 167v57q0 176 176 176h222l78 -60v-97h-291q-11 0 -11 -11v-64q0 -13 12 -16l185 -36q125 -26 125 -168v-62q0 -176 -176 -176h-242z" />
    <glyph glyph-name="T" unicode="T" horiz-adv-x="622" 
d="M24 533v157h574v-157h-200v-533h-174v533h-200z" />
    <glyph glyph-name="U" unicode="U" horiz-adv-x="700" 
d="M72 176v514h174v-522q0 -11 11 -11h186q11 0 11 11v522h174v-514q0 -176 -176 -176h-204q-176 0 -176 176z" />
    <glyph glyph-name="V" unicode="V" horiz-adv-x="674" 
d="M17 658l21 32h154l139 -533h12l139 533h154l21 -32l-185 -658h-270z" />
    <glyph glyph-name="W" unicode="W" horiz-adv-x="974" 
d="M27 658l23 32h144l95 -533h9l104 472h170l104 -472h9l95 533h144l23 -32l-123 -658h-274l-63 308l-63 -308h-274z" />
    <glyph glyph-name="X" unicode="X" horiz-adv-x="664" 
d="M27 34l210 321l-197 301l16 34h153l123 -195l123 195h153l16 -34l-197 -301l210 -321l-17 -34h-152l-136 214l-136 -214h-152z" />
    <glyph glyph-name="Y" unicode="Y" horiz-adv-x="634" 
d="M17 658l20 32h149l131 -265l131 265h149l20 -32l-213 -420v-238h-174v238z" />
    <glyph glyph-name="Z" unicode="Z" horiz-adv-x="612" 
d="M38 0v134l305 399h-295v157h516v-134l-305 -399h315v-157h-536z" />
    <glyph glyph-name="bracketleft" unicode="[" horiz-adv-x="403" 
d="M78 -180v940h295v-145h-128v-650h128v-145h-295z" />
    <glyph glyph-name="backslash" unicode="\" horiz-adv-x="459" 
d="M20 702l140 50l279 -764l-139 -50z" />
    <glyph glyph-name="bracketright" unicode="]" horiz-adv-x="403" 
d="M30 -35h128v650h-128v145h295v-940h-295v145z" />
    <glyph glyph-name="asciicircum" unicode="^" horiz-adv-x="576" 
d="M28 362l180 328h160l180 -328l-126 -70l-134 246l-134 -246z" />
    <glyph glyph-name="underscore" unicode="_" horiz-adv-x="580" 
d="M40 -58h500v-142h-500v142z" />
    <glyph glyph-name="grave" unicode="`" horiz-adv-x="500" 
d="M116 732l88 83l142 -163l-77 -74z" />
    <glyph glyph-name="a" unicode="a" horiz-adv-x="554" 
d="M208 0q-168 0 -168 163t168 163h115v48q0 13 -13 13h-211v93l70 52h153q168 0 168 -168v-364h-282zM207 158q0 -13 13 -13h103v55h-103q-13 0 -13 -13v-29z" />
    <glyph glyph-name="b" unicode="b" horiz-adv-x="594" 
d="M68 0v740h167v-208h131q168 0 168 -168v-196q0 -168 -168 -168h-298zM235 145h119q13 0 13 13v216q0 13 -13 13h-119v-242z" />
    <glyph glyph-name="c" unicode="c" horiz-adv-x="525" 
d="M60 168v196q0 168 168 168h181l70 -52v-93h-239q-13 0 -13 -13v-216q0 -13 13 -13h239v-93l-70 -52h-181q-168 0 -168 168z" />
    <glyph glyph-name="d" unicode="d" horiz-adv-x="594" 
d="M60 168v196q0 168 168 168h131v208h167v-740h-298q-168 0 -168 168zM227 158q0 -13 13 -13h119v242h-119q-13 0 -13 -13v-216z" />
    <glyph glyph-name="e" unicode="e" horiz-adv-x="586" 
d="M60 168v196q0 168 168 168h130q168 0 168 -168v-159h-299v-47q0 -13 13 -13h266v-93l-70 -52h-208q-168 0 -168 168zM227 331h132v43q0 13 -13 13h-106q-13 0 -13 -13v-43z" />
    <glyph glyph-name="f" unicode="f" horiz-adv-x="428" 
d="M68 0v572q0 168 168 168h102l70 -52v-93h-160q-13 0 -13 -13v-50h163v-145h-163v-387h-167z" />
    <glyph glyph-name="g" unicode="g" horiz-adv-x="582" 
d="M54 168v196q0 168 168 168h298v-564q0 -168 -168 -168h-180l-70 52v93h238q13 0 13 13v42h-131q-168 0 -168 168zM221 158q0 -13 13 -13h119v242h-119q-13 0 -13 -13v-216z" />
    <glyph glyph-name="h" unicode="h" horiz-adv-x="598" 
d="M68 0v740h167v-208h131q168 0 168 -168v-364h-167v374q0 13 -13 13h-119v-387h-167z" />
    <glyph glyph-name="i" unicode="i" horiz-adv-x="303" 
d="M66 614v155h171v-155h-171zM68 0v532h167v-532h-167z" />
    <glyph glyph-name="j" unicode="j" horiz-adv-x="303" 
d="M-11 -70q79 6 79 84v518h167v-497q0 -246 -246 -246v141zM66 614v155h171v-155h-171z" />
    <glyph glyph-name="k" unicode="k" horiz-adv-x="606" 
d="M68 0v740h167v-374l154 166h165l13 -27l-181 -194l195 -284l-13 -27h-164l-128 192l-41 -45v-147h-167z" />
    <glyph glyph-name="l" unicode="l" horiz-adv-x="335" 
d="M64 217v523h167v-540q0 -59 61 -66v-145q-228 0 -228 228z" />
    <glyph glyph-name="m" unicode="m" horiz-adv-x="908" 
d="M68 0v532h608q168 0 168 -168v-364h-167v374q0 13 -13 13h-124v-387h-168v387h-137v-387h-167z" />
    <glyph glyph-name="n" unicode="n" horiz-adv-x="598" 
d="M68 0v532h298q168 0 168 -168v-364h-167v374q0 13 -13 13h-119v-387h-167z" />
    <glyph glyph-name="o" unicode="o" horiz-adv-x="596" 
d="M60 168v196q0 168 168 168h140q168 0 168 -168v-196q0 -168 -168 -168h-140q-168 0 -168 168zM227 158q0 -13 13 -13h116q13 0 13 13v216q0 13 -13 13h-116q-13 0 -13 -13v-216z" />
    <glyph glyph-name="p" unicode="p" horiz-adv-x="594" 
d="M68 -200v732h298q168 0 168 -168v-196q0 -168 -168 -168h-131v-200h-167zM235 145h119q13 0 13 13v216q0 13 -13 13h-119v-242z" />
    <glyph glyph-name="q" unicode="q" horiz-adv-x="594" 
d="M60 168v196q0 168 168 168h298v-732h-167v200h-131q-168 0 -168 168zM227 158q0 -13 13 -13h119v242h-119q-13 0 -13 -13v-216z" />
    <glyph glyph-name="r" unicode="r" horiz-adv-x="420" 
d="M64 0v460q38 72 148 72h112l70 -52v-93h-132q-24 0 -31 -11v-376h-167z" />
    <glyph glyph-name="s" unicode="s" horiz-adv-x="512" 
d="M51 52v93h230q16 0 16 22q0 23 -15 26l-102 17q-129 22 -129 153q0 169 168 169h149l70 -52v-93h-206q-16 0 -16 -22q0 -29 16 -31l102 -17q128 -21 128 -148q0 -169 -168 -169h-173z" />
    <glyph glyph-name="t" unicode="t" horiz-adv-x="440" 
d="M64 168v522h167v-158h163v-145h-163v-229q0 -13 13 -13h160v-93l-70 -52h-102q-168 0 -168 168z" />
    <glyph glyph-name="u" unicode="u" horiz-adv-x="598" 
d="M64 168v364h167v-374q0 -13 13 -13h119v387h167v-532h-298q-168 0 -168 168z" />
    <glyph glyph-name="v" unicode="v" horiz-adv-x="574" 
d="M17 508l17 24h144l106 -387h6l106 387h144l17 -24l-151 -508h-238z" />
    <glyph glyph-name="w" unicode="w" horiz-adv-x="846" 
d="M21 508l17 24h141l67 -387h4l81 387h184l81 -387h4l67 387h141l17 -24l-98 -508h-245l-59 330l-59 -330h-245z" />
    <glyph glyph-name="x" unicode="x" horiz-adv-x="574" 
d="M27 27l167 241l-163 237l13 27h154l89 -138l89 138h154l13 -27l-163 -237l167 -241l-13 -27h-154l-93 141l-93 -141h-154z" />
    <glyph glyph-name="y" unicode="y" horiz-adv-x="574" 
d="M17 508l17 24h144l106 -387h6l106 387h144l17 -24l-209 -708h-144l-17 24l57 176h-76z" />
    <glyph glyph-name="z" unicode="z" horiz-adv-x="522" 
d="M38 0v125l221 262h-211v145h426v-125l-220 -262h230v-145h-446z" />
    <glyph glyph-name="braceleft" unicode="{" horiz-adv-x="440" 
d="M50 242v82l75 74v194q0 168 168 168h117v-145h-105q-13 0 -13 -13v-242l-78 -78l78 -78v-226q0 -13 13 -13h105v-145h-117q-168 0 -168 168v178z" />
    <glyph glyph-name="bar" unicode="|" horiz-adv-x="331" 
d="M91 -200v940h149v-940h-149z" />
    <glyph glyph-name="braceright" unicode="}" horiz-adv-x="440" 
d="M30 -35h105q13 0 13 13v226l78 78l-78 78v242q0 13 -13 13h-105v145h117q168 0 168 -168v-194l75 -74v-82l-75 -76v-178q0 -168 -168 -168h-117v145z" />
    <glyph glyph-name="asciitilde" unicode="~" 
d="M24 330l96 96q36 36 89 36t89 -36l62 -62q5 -5 9 -5t9 5l76 76l100 -100l-96 -96q-36 -36 -89 -36t-89 36l-62 62q-5 5 -9 5t-9 -5l-76 -76z" />
    <glyph glyph-name="uni00A0" unicode="&#xa0;" horiz-adv-x="240" 
 />
    <glyph glyph-name="exclamdown" unicode="&#xa1;" horiz-adv-x="287" 
d="M56 371v161h175v-161h-175zM56 -158v462h174v-462h-174z" />
    <glyph glyph-name="cent" unicode="&#xa2;" 
d="M76 168v196q0 168 168 168h3v110h138v-110h40l70 -52v-93h-239q-13 0 -13 -13v-216q0 -13 13 -13h239v-93l-70 -52h-40v-110h-138v110h-3q-168 0 -168 168z" />
    <glyph glyph-name="sterling" unicode="&#xa3;" 
d="M49 0v157h87v119h-87v138h87v100q0 176 176 176h129l78 -60v-97h-198q-11 0 -11 -11v-108h123v-138h-123v-119h229v-157h-490z" />
    <glyph glyph-name="currency" unicode="&#xa4;" 
d="M36 180l89 89v162l-89 89l88 88l89 -89h152l89 89l88 -88l-89 -89v-162l89 -89l-88 -88l-89 89h-152l-89 -89zM255 310q0 -4 4 -4h60q4 0 4 4v80q0 4 -4 4h-60q-4 0 -4 -4v-80z" />
    <glyph glyph-name="yen" unicode="&#xa5;" 
d="M-2 658l20 32h149l122 -245l122 245h149l20 -32l-164 -322h80v-92h-120v-60h120v-92h-120v-92h-174v92h-120v92h120v60h-120v92h80z" />
    <glyph glyph-name="brokenbar" unicode="&#xa6;" horiz-adv-x="331" 
d="M91 179h149v-379h-149v379zM91 361v379h149v-379h-149z" />
    <glyph glyph-name="section" unicode="&#xa7;" horiz-adv-x="546" 
d="M68 45h230q16 0 16 22q0 23 -15 26l-102 17q-129 22 -129 153v95l48 48q-48 38 -48 115q0 169 168 169h150l70 -52v-93h-206q-16 0 -16 -22q0 -23 14 -26l102 -17q130 -22 130 -153v-95l-48 -48q48 -38 48 -115q0 -169 -168 -169h-174l-70 52v93zM234 265q0 -29 14 -31
l66 -10v101q0 29 -15 31l-65 10v-101z" />
    <glyph glyph-name="dieresis" unicode="&#xa8;" horiz-adv-x="500" 
d="M75 598v142h140v-142h-140zM285 598v142h140v-142h-140z" />
    <glyph glyph-name="copyright" unicode="&#xa9;" horiz-adv-x="846" 
d="M68 125v440q0 125 125 125h460q125 0 125 -125v-440q0 -125 -125 -125h-460q-125 0 -125 125zM191 115q0 -4 4 -4h456q4 0 4 4v460q0 4 -4 4h-456q-4 0 -4 -4v-460zM256 295v100q0 133 132 133h118l54 -43v-75h-170q-4 0 -4 -4v-122q0 -4 4 -4h170v-75l-54 -43h-118
q-132 0 -132 133z" />
    <glyph glyph-name="ordfeminine" unicode="&#xaa;" horiz-adv-x="406" 
d="M31 417v2q0 123 143 123h61v26q0 4 -4 4h-158v75l55 43h104q133 0 133 -133v-263h-191q-143 0 -143 123zM161 416q0 -4 4 -4h70v30h-70q-4 0 -4 -4v-22z" />
    <glyph glyph-name="guillemotleft" unicode="&#xab;" horiz-adv-x="628" 
d="M30 315l196 246l102 -84l-125 -162l125 -162l-102 -84zM290 315l196 246l102 -84l-125 -162l125 -162l-102 -84z" />
    <glyph glyph-name="logicalnot" unicode="&#xac;" 
d="M58 314v142h462v-312h-149v170h-313z" />
    <glyph glyph-name="uni00AD" unicode="&#xad;" horiz-adv-x="390" 
d="M40 234v142h310v-142h-310z" />
    <glyph glyph-name="registered" unicode="&#xae;" horiz-adv-x="846" 
d="M68 125v440q0 125 125 125h460q125 0 125 -125v-440q0 -125 -125 -125h-460q-125 0 -125 125zM191 115q0 -4 4 -4h456q4 0 4 4v460q0 4 -4 4h-456q-4 0 -4 -4v-460zM268 162v366h180q134 0 134 -133v-5q0 -76 -44 -112l44 -89l-14 -27h-114l-48 96h-8v-96h-130zM398 376
h50q4 0 4 4v26q0 4 -4 4h-50v-34z" />
    <glyph glyph-name="macron" unicode="&#xaf;" horiz-adv-x="500" 
d="M96 614v112h308v-112h-308z" />
    <glyph glyph-name="degree" unicode="&#xb0;" horiz-adv-x="413" 
d="M48 495v70q0 125 125 125h67q125 0 125 -125v-70q0 -125 -125 -125h-67q-125 0 -125 125zM171 485q0 -4 4 -4h63q4 0 4 4v90q0 4 -4 4h-63q-4 0 -4 -4v-90z" />
    <glyph glyph-name="plusminus" unicode="&#xb1;" 
d="M58 0v142h462v-142h-462zM58 314v142h156v148h150v-148h156v-142h-156v-148h-150v148h-156z" />
    <glyph glyph-name="uni00B2" unicode="&#xb2;" horiz-adv-x="369" 
d="M31 271v138q0 98 97 117l73 14q7 1 7 10v18q0 4 -4 4h-161v75l55 43h107q133 0 133 -133v-13q0 -99 -98 -118l-72 -14q-7 -1 -7 -9v-14h177v-118h-307z" />
    <glyph glyph-name="uni00B3" unicode="&#xb3;" horiz-adv-x="369" 
d="M37 314v75h167q4 0 4 4v26q0 4 -4 4h-123v118h123q4 0 4 4v23q0 4 -4 4h-161v75l55 43h107q133 0 133 -133v-9q0 -27 -17 -44l-23 -23l23 -23q17 -17 17 -44v-10q0 -133 -133 -133h-113z" />
    <glyph glyph-name="acute" unicode="&#xb4;" horiz-adv-x="500" 
d="M154 652l142 163l88 -83l-153 -154z" />
    <glyph glyph-name="mu" unicode="&#xb5;" horiz-adv-x="598" 
d="M68 -200v732h167v-387h119q13 0 13 13v374h167v-364q0 -168 -168 -168h-131v-200h-167z" />
    <glyph glyph-name="paragraph" unicode="&#xb6;" horiz-adv-x="688" 
d="M58 345v195q0 150 150 150h155v-495h-155q-150 0 -150 150zM433 -170v860h167v-860h-167z" />
    <glyph glyph-name="periodcentered" unicode="&#xb7;" horiz-adv-x="287" 
d="M56 234v161h175v-161h-175z" />
    <glyph glyph-name="cedilla" unicode="&#xb8;" horiz-adv-x="500" 
d="M137 -74h101q4 0 4 4v142h127v-128q0 -133 -133 -133h-44l-55 43v72z" />
    <glyph glyph-name="uni00B9" unicode="&#xb9;" horiz-adv-x="369" 
d="M49 271v118h81v183h-69v75l55 43h144v-301h72v-118h-283z" />
    <glyph glyph-name="ordmasculine" unicode="&#xba;" horiz-adv-x="436" 
d="M41 427v130q0 133 133 133h88q133 0 133 -133v-130q0 -133 -133 -133h-88q-133 0 -133 133zM171 416q0 -4 4 -4h86q4 0 4 4v152q0 4 -4 4h-86q-4 0 -4 -4v-152z" />
    <glyph glyph-name="guillemotright" unicode="&#xbb;" horiz-adv-x="628" 
d="M40 153l124 162l-124 162l102 84l196 -246l-196 -246zM300 153l124 162l-124 162l102 84l196 -246l-196 -246z" />
    <glyph glyph-name="onequarter" unicode="&#xbc;" horiz-adv-x="884" 
d="M49 271v118h81v183h-69v75l55 43h144v-301h72v-118h-283zM249 45l330 660l120 -60l-330 -660zM546 42v109l95 268h111l14 -24l-76 -235h33v75h130v-235h-130v42h-177z" />
    <glyph glyph-name="onehalf" unicode="&#xbd;" horiz-adv-x="931" 
d="M49 271v118h81v183h-69v75l55 43h144v-301h72v-118h-283zM249 45l330 660l120 -60l-330 -660zM593 0v138q0 98 97 117l73 14q7 1 7 10v18q0 4 -4 4h-161v75l55 43h107q133 0 133 -133v-13q0 -99 -98 -118l-72 -14q-7 -1 -7 -9v-14h177v-118h-307z" />
    <glyph glyph-name="threequarters" unicode="&#xbe;" horiz-adv-x="856" 
d="M37 314v75h167q4 0 4 4v26q0 4 -4 4h-123v118h123q4 0 4 4v23q0 4 -4 4h-161v75l55 43h107q133 0 133 -133v-9q0 -27 -17 -44l-23 -23l23 -23q17 -17 17 -44v-10q0 -133 -133 -133h-113zM221 45l330 660l120 -60l-330 -660zM518 42v109l95 268h111l14 -24l-76 -235h33v75
h130v-235h-130v42h-177z" />
    <glyph glyph-name="questiondown" unicode="&#xbf;" horiz-adv-x="516" 
d="M50 18v70q0 186 166 186h4v30h173v-187h-158q-11 0 -11 -11v-96q0 -11 11 -11h261v-97l-78 -60h-192q-176 0 -176 176zM218 371v161h176v-161h-176z" />
    <glyph glyph-name="Agrave" unicode="&#xc0;" horiz-adv-x="684" 
d="M17 32l195 658h260l195 -658l-21 -32h-146l-34 123h-248l-34 -123h-146zM264 280h156l-72 253h-12zM207 880l88 83l144 -163l-78 -74z" />
    <glyph glyph-name="Aacute" unicode="&#xc1;" horiz-adv-x="684" 
d="M17 32l195 658h260l195 -658l-21 -32h-146l-34 123h-248l-34 -123h-146zM264 280h156l-72 253h-12zM245 800l144 163l88 -83l-154 -154z" />
    <glyph glyph-name="Acircumflex" unicode="&#xc2;" horiz-adv-x="684" 
d="M17 32l195 658h260l195 -658l-21 -32h-146l-34 123h-248l-34 -123h-146zM264 280h156l-72 253h-12zM175 800l167 163l167 -163l-70 -73l-97 93l-97 -93z" />
    <glyph glyph-name="Atilde" unicode="&#xc3;" horiz-adv-x="684" 
d="M17 32l195 658h260l195 -658l-21 -32h-146l-34 123h-248l-34 -123h-146zM264 280h156l-72 253h-12zM154 807l72 72q22 22 60 22t60 -22l47 -47q3 -3 5 -3t5 3l58 58l69 -69l-72 -72q-22 -22 -60 -22t-60 22l-47 47q-3 3 -5 3t-5 -3l-58 -58z" />
    <glyph glyph-name="Adieresis" unicode="&#xc4;" horiz-adv-x="684" 
d="M17 32l195 658h260l195 -658l-21 -32h-146l-34 123h-248l-34 -123h-146zM264 280h156l-72 253h-12zM167 746v142h140v-142h-140zM377 746v142h140v-142h-140z" />
    <glyph glyph-name="Aring" unicode="&#xc5;" horiz-adv-x="684" 
d="M17 32l195 658h260l195 -658l-21 -32h-146l-34 123h-248l-34 -123h-146zM264 280h156l-72 253h-12zM219 800v60q0 84 85 84h76q85 0 85 -84v-60q0 -84 -85 -84h-76q-85 0 -85 84zM310 798q0 -4 4 -4h56q4 0 4 4v64q0 4 -4 4h-56q-4 0 -4 -4v-64z" />
    <glyph glyph-name="AE" unicode="&#xc6;" horiz-adv-x="947" 
d="M17 32l195 658h685v-157h-306v-103h276v-157h-276v-116h306v-157h-480v123h-199l-34 -123h-146zM264 280h153v253h-81z" />
    <glyph glyph-name="Ccedilla" unicode="&#xc7;" horiz-adv-x="631" 
d="M68 176v338q0 176 176 176h259l78 -60v-97h-328q-11 0 -11 -11v-354q0 -11 11 -11h328v-97l-78 -60h-259q-176 0 -176 176zM233 -74h101q4 0 4 4v142h127v-128q0 -133 -133 -133h-44l-55 43v72z" />
    <glyph glyph-name="Egrave" unicode="&#xc8;" horiz-adv-x="611" 
d="M78 0v690h483v-157h-309v-103h279v-157h-279v-116h309v-157h-483zM187 880l88 83l144 -163l-78 -74z" />
    <glyph glyph-name="Eacute" unicode="&#xc9;" horiz-adv-x="611" 
d="M78 0v690h483v-157h-309v-103h279v-157h-279v-116h309v-157h-483zM225 800l144 163l88 -83l-154 -154z" />
    <glyph glyph-name="Ecircumflex" unicode="&#xca;" horiz-adv-x="611" 
d="M78 0v690h483v-157h-309v-103h279v-157h-279v-116h309v-157h-483zM155 800l167 163l167 -163l-70 -73l-97 93l-97 -93z" />
    <glyph glyph-name="Edieresis" unicode="&#xcb;" horiz-adv-x="611" 
d="M78 0v690h483v-157h-309v-103h279v-157h-279v-116h309v-157h-483zM147 746v142h140v-142h-140zM357 746v142h140v-142h-140z" />
    <glyph glyph-name="Igrave" unicode="&#xcc;" horiz-adv-x="330" 
d="M78 0v690h174v-690h-174zM30 880l88 83l144 -163l-78 -74z" />
    <glyph glyph-name="Iacute" unicode="&#xcd;" horiz-adv-x="330" 
d="M78 0v690h174v-690h-174zM68 800l144 163l88 -83l-154 -154z" />
    <glyph glyph-name="Icircumflex" unicode="&#xce;" horiz-adv-x="330" 
d="M78 0v690h174v-690h-174zM-2 800l167 163l167 -163l-70 -73l-97 93l-97 -93z" />
    <glyph glyph-name="Idieresis" unicode="&#xcf;" horiz-adv-x="330" 
d="M78 0v690h174v-690h-174zM-10 746v142h140v-142h-140zM200 746v142h140v-142h-140z" />
    <glyph glyph-name="Eth" unicode="&#xd0;" horiz-adv-x="711" 
d="M20 276v138h77v276h287q269 0 269 -269v-152q0 -269 -269 -269h-287v276h-77zM271 157h113q95 0 95 95v186q0 95 -95 95h-113v-119h104v-138h-104v-119z" />
    <glyph glyph-name="Ntilde" unicode="&#xd1;" horiz-adv-x="747" 
d="M78 0v690h188l229 -400v400h174v-690h-187l-230 400v-400h-174zM191 807l72 72q22 22 60 22t60 -22l47 -47q3 -3 5 -3t5 3l58 58l69 -69l-72 -72q-22 -22 -60 -22t-60 22l-47 47q-3 3 -5 3t-5 -3l-58 -58z" />
    <glyph glyph-name="Ograve" unicode="&#xd2;" horiz-adv-x="712" 
d="M68 176v338q0 176 176 176h224q176 0 176 -176v-338q0 -176 -176 -176h-224q-176 0 -176 176zM242 168q0 -11 11 -11h206q11 0 11 11v354q0 11 -11 11h-206q-11 0 -11 -11v-354zM221 880l88 83l144 -163l-78 -74z" />
    <glyph glyph-name="Oacute" unicode="&#xd3;" horiz-adv-x="712" 
d="M68 176v338q0 176 176 176h224q176 0 176 -176v-338q0 -176 -176 -176h-224q-176 0 -176 176zM242 168q0 -11 11 -11h206q11 0 11 11v354q0 11 -11 11h-206q-11 0 -11 -11v-354zM259 800l144 163l88 -83l-154 -154z" />
    <glyph glyph-name="Ocircumflex" unicode="&#xd4;" horiz-adv-x="712" 
d="M68 176v338q0 176 176 176h224q176 0 176 -176v-338q0 -176 -176 -176h-224q-176 0 -176 176zM242 168q0 -11 11 -11h206q11 0 11 11v354q0 11 -11 11h-206q-11 0 -11 -11v-354zM189 800l167 163l167 -163l-70 -73l-97 93l-97 -93z" />
    <glyph glyph-name="Otilde" unicode="&#xd5;" horiz-adv-x="712" 
d="M68 176v338q0 176 176 176h224q176 0 176 -176v-338q0 -176 -176 -176h-224q-176 0 -176 176zM242 168q0 -11 11 -11h206q11 0 11 11v354q0 11 -11 11h-206q-11 0 -11 -11v-354zM168 807l72 72q22 22 60 22t60 -22l47 -47q3 -3 5 -3t5 3l58 58l69 -69l-72 -72
q-22 -22 -60 -22t-60 22l-47 47q-3 3 -5 3t-5 -3l-58 -58z" />
    <glyph glyph-name="Odieresis" unicode="&#xd6;" horiz-adv-x="712" 
d="M68 176v338q0 176 176 176h224q176 0 176 -176v-338q0 -176 -176 -176h-224q-176 0 -176 176zM242 168q0 -11 11 -11h206q11 0 11 11v354q0 11 -11 11h-206q-11 0 -11 -11v-354zM181 746v142h140v-142h-140zM391 746v142h140v-142h-140z" />
    <glyph glyph-name="multiply" unicode="&#xd7;" 
d="M58 206l130 129l-130 129l102 102l129 -130l129 130l102 -102l-130 -129l130 -129l-102 -102l-129 130l-129 -130z" />
    <glyph glyph-name="Oslash" unicode="&#xd8;" horiz-adv-x="712" 
d="M68 176v338q0 176 176 176h224q176 0 176 -176v-338q0 -176 -176 -176h-224q-176 0 -176 176zM242 306l228 220q-2 7 -11 7h-206q-11 0 -11 -11v-216zM242 164q2 -7 11 -7h206q11 0 11 11v216z" />
    <glyph glyph-name="Ugrave" unicode="&#xd9;" horiz-adv-x="700" 
d="M72 176v514h174v-522q0 -11 11 -11h186q11 0 11 11v522h174v-514q0 -176 -176 -176h-204q-176 0 -176 176zM215 880l88 83l144 -163l-78 -74z" />
    <glyph glyph-name="Uacute" unicode="&#xda;" horiz-adv-x="700" 
d="M72 176v514h174v-522q0 -11 11 -11h186q11 0 11 11v522h174v-514q0 -176 -176 -176h-204q-176 0 -176 176zM253 800l144 163l88 -83l-154 -154z" />
    <glyph glyph-name="Ucircumflex" unicode="&#xdb;" horiz-adv-x="700" 
d="M72 176v514h174v-522q0 -11 11 -11h186q11 0 11 11v522h174v-514q0 -176 -176 -176h-204q-176 0 -176 176zM183 800l167 163l167 -163l-70 -73l-97 93l-97 -93z" />
    <glyph glyph-name="Udieresis" unicode="&#xdc;" horiz-adv-x="700" 
d="M72 176v514h174v-522q0 -11 11 -11h186q11 0 11 11v522h174v-514q0 -176 -176 -176h-204q-176 0 -176 176zM175 746v142h140v-142h-140zM385 746v142h140v-142h-140z" />
    <glyph glyph-name="Yacute" unicode="&#xdd;" horiz-adv-x="634" 
d="M17 658l20 32h149l131 -265l131 265h149l20 -32l-213 -420v-238h-174v238zM220 800l144 163l88 -83l-154 -154z" />
    <glyph glyph-name="Thorn" unicode="&#xde;" horiz-adv-x="642" 
d="M78 0v690h174v-90h166q176 0 176 -176v-144q0 -176 -176 -176h-166v-104h-174zM252 261h157q11 0 11 11v160q0 11 -11 11h-157v-182z" />
    <glyph glyph-name="germandbls" unicode="&#xdf;" horiz-adv-x="629" 
d="M68 0v572q0 168 168 168h145q168 0 168 -168v-81q0 -34 -20 -58l-35 -42l42 -35q33 -28 33 -80v-108q0 -168 -168 -168h-48l-70 52v93h106q13 0 13 13v142q0 12 -13 12h-96v146h76q13 0 13 12v112q0 13 -13 13h-121q-13 0 -13 -13v-582h-167z" />
    <glyph glyph-name="agrave" unicode="&#xe0;" horiz-adv-x="554" 
d="M208 0q-168 0 -168 163t168 163h115v48q0 13 -13 13h-211v93l70 52h153q168 0 168 -168v-364h-282zM207 158q0 -13 13 -13h103v55h-103q-13 0 -13 -13v-29zM144 732l88 83l142 -163l-77 -74z" />
    <glyph glyph-name="aacute" unicode="&#xe1;" horiz-adv-x="554" 
d="M208 0q-168 0 -168 163t168 163h115v48q0 13 -13 13h-211v93l70 52h153q168 0 168 -168v-364h-282zM207 158q0 -13 13 -13h103v55h-103q-13 0 -13 -13v-29zM182 652l142 163l88 -83l-153 -154z" />
    <glyph glyph-name="acircumflex" unicode="&#xe2;" horiz-adv-x="554" 
d="M208 0q-168 0 -168 163t168 163h115v48q0 13 -13 13h-211v93l70 52h153q168 0 168 -168v-364h-282zM207 158q0 -13 13 -13h103v55h-103q-13 0 -13 -13v-29zM112 652l166 163l166 -163l-68 -73l-98 93l-98 -93z" />
    <glyph glyph-name="atilde" unicode="&#xe3;" horiz-adv-x="554" 
d="M208 0q-168 0 -168 163t168 163h115v48q0 13 -13 13h-211v93l70 52h153q168 0 168 -168v-364h-282zM207 158q0 -13 13 -13h103v55h-103q-13 0 -13 -13v-29zM90 659l72 72q22 22 60 22t60 -22l47 -47q3 -3 5 -3t5 3l58 58l69 -69l-72 -72q-22 -22 -60 -22t-60 22l-47 47
q-3 3 -5 3t-5 -3l-58 -58z" />
    <glyph glyph-name="adieresis" unicode="&#xe4;" horiz-adv-x="554" 
d="M208 0q-168 0 -168 163t168 163h115v48q0 13 -13 13h-211v93l70 52h153q168 0 168 -168v-364h-282zM207 158q0 -13 13 -13h103v55h-103q-13 0 -13 -13v-29zM103 598v142h140v-142h-140zM313 598v142h140v-142h-140z" />
    <glyph glyph-name="aring" unicode="&#xe5;" horiz-adv-x="554" 
d="M208 0q-168 0 -168 163t168 163h115v48q0 13 -13 13h-211v93l70 52h153q168 0 168 -168v-364h-282zM207 158q0 -13 13 -13h103v55h-103q-13 0 -13 -13v-29zM155 652v60q0 84 85 84h76q85 0 85 -84v-60q0 -84 -85 -84h-76q-85 0 -85 84zM246 650q0 -4 4 -4h56q4 0 4 4v64
q0 4 -4 4h-56q-4 0 -4 -4v-64z" />
    <glyph glyph-name="ae" unicode="&#xe6;" horiz-adv-x="856" 
d="M208 0q-168 0 -168 163t168 163h117v48q0 13 -13 13h-213v93l70 52h129q70 0 110 -40q40 40 112 40h108q168 0 168 -168v-159h-304v-47q0 -13 13 -13h271v-93l-70 -52h-186q-72 0 -112 40q-40 -40 -110 -40h-90zM207 158q0 -13 13 -13h92q13 0 13 13v42h-105
q-13 0 -13 -13v-29zM492 331h137v43q0 13 -13 13h-111q-13 0 -13 -13v-43z" />
    <glyph glyph-name="ccedilla" unicode="&#xe7;" horiz-adv-x="525" 
d="M60 168v196q0 168 168 168h181l70 -52v-93h-239q-13 0 -13 -13v-216q0 -13 13 -13h239v-93l-70 -52h-181q-168 0 -168 168zM177 -74h101q4 0 4 4v142h127v-128q0 -133 -133 -133h-44l-55 43v72z" />
    <glyph glyph-name="egrave" unicode="&#xe8;" horiz-adv-x="586" 
d="M60 168v196q0 168 168 168h130q168 0 168 -168v-159h-299v-47q0 -13 13 -13h266v-93l-70 -52h-208q-168 0 -168 168zM227 331h132v43q0 13 -13 13h-106q-13 0 -13 -13v-43zM159 732l88 83l142 -163l-77 -74z" />
    <glyph glyph-name="eacute" unicode="&#xe9;" horiz-adv-x="586" 
d="M60 168v196q0 168 168 168h130q168 0 168 -168v-159h-299v-47q0 -13 13 -13h266v-93l-70 -52h-208q-168 0 -168 168zM227 331h132v43q0 13 -13 13h-106q-13 0 -13 -13v-43zM197 652l142 163l88 -83l-153 -154z" />
    <glyph glyph-name="ecircumflex" unicode="&#xea;" horiz-adv-x="586" 
d="M60 168v196q0 168 168 168h130q168 0 168 -168v-159h-299v-47q0 -13 13 -13h266v-93l-70 -52h-208q-168 0 -168 168zM227 331h132v43q0 13 -13 13h-106q-13 0 -13 -13v-43zM127 652l166 163l166 -163l-68 -73l-98 93l-98 -93z" />
    <glyph glyph-name="edieresis" unicode="&#xeb;" horiz-adv-x="586" 
d="M60 168v196q0 168 168 168h130q168 0 168 -168v-159h-299v-47q0 -13 13 -13h266v-93l-70 -52h-208q-168 0 -168 168zM227 331h132v43q0 13 -13 13h-106q-13 0 -13 -13v-43zM118 598v142h140v-142h-140zM328 598v142h140v-142h-140z" />
    <glyph glyph-name="igrave" unicode="&#xec;" horiz-adv-x="303" 
d="M68 0v532h167v-532h-167zM18 732l88 83l142 -163l-77 -74z" />
    <glyph glyph-name="iacute" unicode="&#xed;" horiz-adv-x="303" 
d="M68 0v532h167v-532h-167zM56 652l142 163l88 -83l-153 -154z" />
    <glyph glyph-name="icircumflex" unicode="&#xee;" horiz-adv-x="303" 
d="M68 0v532h167v-532h-167zM-14 652l166 163l166 -163l-68 -73l-98 93l-98 -93z" />
    <glyph glyph-name="idieresis" unicode="&#xef;" horiz-adv-x="303" 
d="M68 0v532h167v-532h-167zM-23 598v142h140v-142h-140zM187 598v142h140v-142h-140z" />
    <glyph glyph-name="eth" unicode="&#xf0;" horiz-adv-x="596" 
d="M60 168v114q0 168 168 168h126l-44 76l-108 -52l-54 115l95 46l-33 61l136 75l38 -69l79 37l53 -115l-64 -28l50 -91q34 -62 34 -141v-196q0 -168 -168 -168h-140q-168 0 -168 168zM227 158q0 -13 13 -13h116q13 0 13 13v147h-129q-13 0 -13 -13v-134z" />
    <glyph glyph-name="ntilde" unicode="&#xf1;" horiz-adv-x="598" 
d="M68 0v532h298q168 0 168 -168v-364h-167v374q0 13 -13 13h-119v-387h-167zM113 659l72 72q22 22 60 22t60 -22l47 -47q3 -3 5 -3t5 3l58 58l69 -69l-72 -72q-22 -22 -60 -22t-60 22l-47 47q-3 3 -5 3t-5 -3l-58 -58z" />
    <glyph glyph-name="ograve" unicode="&#xf2;" horiz-adv-x="596" 
d="M60 168v196q0 168 168 168h140q168 0 168 -168v-196q0 -168 -168 -168h-140q-168 0 -168 168zM227 158q0 -13 13 -13h116q13 0 13 13v216q0 13 -13 13h-116q-13 0 -13 -13v-216zM164 732l88 83l142 -163l-77 -74z" />
    <glyph glyph-name="oacute" unicode="&#xf3;" horiz-adv-x="596" 
d="M60 168v196q0 168 168 168h140q168 0 168 -168v-196q0 -168 -168 -168h-140q-168 0 -168 168zM227 158q0 -13 13 -13h116q13 0 13 13v216q0 13 -13 13h-116q-13 0 -13 -13v-216zM202 652l142 163l88 -83l-153 -154z" />
    <glyph glyph-name="ocircumflex" unicode="&#xf4;" horiz-adv-x="596" 
d="M60 168v196q0 168 168 168h140q168 0 168 -168v-196q0 -168 -168 -168h-140q-168 0 -168 168zM227 158q0 -13 13 -13h116q13 0 13 13v216q0 13 -13 13h-116q-13 0 -13 -13v-216zM132 652l166 163l166 -163l-68 -73l-98 93l-98 -93z" />
    <glyph glyph-name="otilde" unicode="&#xf5;" horiz-adv-x="596" 
d="M60 168v196q0 168 168 168h140q168 0 168 -168v-196q0 -168 -168 -168h-140q-168 0 -168 168zM227 158q0 -13 13 -13h116q13 0 13 13v216q0 13 -13 13h-116q-13 0 -13 -13v-216zM110 659l72 72q22 22 60 22t60 -22l47 -47q3 -3 5 -3t5 3l58 58l69 -69l-72 -72
q-22 -22 -60 -22t-60 22l-47 47q-3 3 -5 3t-5 -3l-58 -58z" />
    <glyph glyph-name="odieresis" unicode="&#xf6;" horiz-adv-x="596" 
d="M60 168v196q0 168 168 168h140q168 0 168 -168v-196q0 -168 -168 -168h-140q-168 0 -168 168zM227 158q0 -13 13 -13h116q13 0 13 13v216q0 13 -13 13h-116q-13 0 -13 -13v-216zM123 598v142h140v-142h-140zM333 598v142h140v-142h-140z" />
    <glyph glyph-name="divide" unicode="&#xf7;" 
d="M58 264v142h462v-142h-462zM222 78v134h134v-134h-134zM222 458v134h134v-134h-134z" />
    <glyph glyph-name="oslash" unicode="&#xf8;" horiz-adv-x="596" 
d="M60 168v196q0 168 168 168h140q168 0 168 -168v-196q0 -168 -168 -168h-140q-168 0 -168 168zM227 266l139 117q-3 4 -10 4h-116q-13 0 -13 -13v-108zM230 149q3 -4 10 -4h116q13 0 13 13v108z" />
    <glyph glyph-name="ugrave" unicode="&#xf9;" horiz-adv-x="598" 
d="M64 168v364h167v-374q0 -13 13 -13h119v387h167v-532h-298q-168 0 -168 168zM163 732l88 83l142 -163l-77 -74z" />
    <glyph glyph-name="uacute" unicode="&#xfa;" horiz-adv-x="598" 
d="M64 168v364h167v-374q0 -13 13 -13h119v387h167v-532h-298q-168 0 -168 168zM201 652l142 163l88 -83l-153 -154z" />
    <glyph glyph-name="ucircumflex" unicode="&#xfb;" horiz-adv-x="598" 
d="M64 168v364h167v-374q0 -13 13 -13h119v387h167v-532h-298q-168 0 -168 168zM131 652l166 163l166 -163l-68 -73l-98 93l-98 -93z" />
    <glyph glyph-name="udieresis" unicode="&#xfc;" horiz-adv-x="598" 
d="M64 168v364h167v-374q0 -13 13 -13h119v387h167v-532h-298q-168 0 -168 168zM122 598v142h140v-142h-140zM332 598v142h140v-142h-140z" />
    <glyph glyph-name="yacute" unicode="&#xfd;" horiz-adv-x="574" 
d="M17 508l17 24h144l106 -387h6l106 387h144l17 -24l-209 -708h-144l-17 24l57 176h-76zM191 652l142 163l88 -83l-153 -154z" />
    <glyph glyph-name="thorn" unicode="&#xfe;" horiz-adv-x="594" 
d="M68 -200v940h167v-208h131q168 0 168 -168v-196q0 -168 -168 -168h-131v-200h-167zM235 145h119q13 0 13 13v216q0 13 -13 13h-119v-242z" />
    <glyph glyph-name="ydieresis" unicode="&#xff;" horiz-adv-x="574" 
d="M17 508l17 24h144l106 -387h6l106 387h144l17 -24l-209 -708h-144l-17 24l57 176h-76zM112 598v142h140v-142h-140zM322 598v142h140v-142h-140z" />
    <glyph glyph-name="Amacron" unicode="&#x100;" horiz-adv-x="684" 
d="M17 32l195 658h260l195 -658l-21 -32h-146l-34 123h-248l-34 -123h-146zM264 280h156l-72 253h-12zM188 762v112h308v-112h-308z" />
    <glyph glyph-name="amacron" unicode="&#x101;" horiz-adv-x="554" 
d="M208 0q-168 0 -168 163t168 163h115v48q0 13 -13 13h-211v93l70 52h153q168 0 168 -168v-364h-282zM207 158q0 -13 13 -13h103v55h-103q-13 0 -13 -13v-29zM124 614v112h308v-112h-308z" />
    <glyph glyph-name="Abreve" unicode="&#x102;" horiz-adv-x="684" 
d="M17 32l195 658h260l195 -658l-21 -32h-146l-34 123h-248l-34 -123h-146zM264 280h156l-72 253h-12zM198 834v69h92v-63q0 -4 4 -4h96q4 0 4 4v63h92v-69q0 -91 -91 -91h-106q-91 0 -91 91z" />
    <glyph glyph-name="abreve" unicode="&#x103;" horiz-adv-x="554" 
d="M208 0q-168 0 -168 163t168 163h115v48q0 13 -13 13h-211v93l70 52h153q168 0 168 -168v-364h-282zM207 158q0 -13 13 -13h103v55h-103q-13 0 -13 -13v-29zM134 686v69h92v-63q0 -4 4 -4h96q4 0 4 4v63h92v-69q0 -91 -91 -91h-106q-91 0 -91 91z" />
    <glyph glyph-name="Aogonek" unicode="&#x104;" horiz-adv-x="684" 
d="M17 32l195 658h260l195 -658l-21 -32h-146l-34 123h-248l-34 -123h-146zM264 280h156l-72 253h-12zM439 -18q0 133 133 133h18v-115h-20q-4 0 -4 -4v-66q0 -4 4 -4h97v-72l-55 -43h-40q-133 0 -133 133v38z" />
    <glyph glyph-name="aogonek" unicode="&#x105;" horiz-adv-x="554" 
d="M208 0q-168 0 -168 163t168 163h115v48q0 13 -13 13h-211v93l70 52h153q168 0 168 -168v-364h-282zM207 158q0 -13 13 -13h103v55h-103q-13 0 -13 -13v-29zM262 -18q0 133 133 133h18v-115h-20q-4 0 -4 -4v-66q0 -4 4 -4h97v-72l-55 -43h-40q-133 0 -133 133v38z" />
    <glyph glyph-name="Cacute" unicode="&#x106;" horiz-adv-x="631" 
d="M68 176v338q0 176 176 176h259l78 -60v-97h-328q-11 0 -11 -11v-354q0 -11 11 -11h328v-97l-78 -60h-259q-176 0 -176 176zM249 800l144 163l88 -83l-154 -154z" />
    <glyph glyph-name="cacute" unicode="&#x107;" horiz-adv-x="525" 
d="M60 168v196q0 168 168 168h181l70 -52v-93h-239q-13 0 -13 -13v-216q0 -13 13 -13h239v-93l-70 -52h-181q-168 0 -168 168zM194 652l142 163l88 -83l-153 -154z" />
    <glyph glyph-name="Ccaron" unicode="&#x10c;" horiz-adv-x="631" 
d="M68 176v338q0 176 176 176h259l78 -60v-97h-328q-11 0 -11 -11v-354q0 -11 11 -11h328v-97l-78 -60h-259q-176 0 -176 176zM179 880l70 73l97 -93l97 93l70 -73l-167 -163z" />
    <glyph glyph-name="ccaron" unicode="&#x10d;" horiz-adv-x="525" 
d="M60 168v196q0 168 168 168h181l70 -52v-93h-239q-13 0 -13 -13v-216q0 -13 13 -13h239v-93l-70 -52h-181q-168 0 -168 168zM124 732l68 73l98 -93l98 93l68 -73l-166 -163z" />
    <glyph glyph-name="Dcaron" unicode="&#x10e;" horiz-adv-x="692" 
d="M78 0v690h258q298 0 298 -298v-94q0 -298 -298 -298h-258zM252 157h94q114 0 114 115v146q0 115 -114 115h-94v-376zM169 880l70 73l97 -93l97 93l70 -73l-167 -163z" />
    <glyph glyph-name="dcaron" unicode="&#x10f;" horiz-adv-x="711" 
d="M60 168v196q0 168 168 168h131v208h167v-740h-298q-168 0 -168 168zM227 158q0 -13 13 -13h119v242h-119q-13 0 -13 -13v-216zM576 578l38 194h106l16 -24l-64 -194z" />
    <glyph glyph-name="Dcroat" unicode="&#x110;" horiz-adv-x="711" 
d="M20 276v138h77v276h287q269 0 269 -269v-152q0 -269 -269 -269h-287v276h-77zM271 157h113q95 0 95 95v186q0 95 -95 95h-113v-119h104v-138h-104v-119z" />
    <glyph glyph-name="dcroat" unicode="&#x111;" horiz-adv-x="594" 
d="M60 168v196q0 168 168 168h131v48h-129v112h129v48h167v-48h67v-112h-67v-580h-298q-168 0 -168 168zM227 158q0 -13 13 -13h119v242h-119q-13 0 -13 -13v-216z" />
    <glyph glyph-name="Emacron" unicode="&#x112;" horiz-adv-x="611" 
d="M78 0v690h483v-157h-309v-103h279v-157h-279v-116h309v-157h-483zM168 762v112h308v-112h-308z" />
    <glyph glyph-name="emacron" unicode="&#x113;" horiz-adv-x="586" 
d="M60 168v196q0 168 168 168h130q168 0 168 -168v-159h-299v-47q0 -13 13 -13h266v-93l-70 -52h-208q-168 0 -168 168zM227 331h132v43q0 13 -13 13h-106q-13 0 -13 -13v-43zM139 614v112h308v-112h-308z" />
    <glyph glyph-name="Edotaccent" unicode="&#x116;" horiz-adv-x="611" 
d="M78 0v690h483v-157h-309v-103h279v-157h-279v-116h309v-157h-483zM237 762v155h170v-155h-170z" />
    <glyph glyph-name="edotaccent" unicode="&#x117;" horiz-adv-x="586" 
d="M60 168v196q0 168 168 168h130q168 0 168 -168v-159h-299v-47q0 -13 13 -13h266v-93l-70 -52h-208q-168 0 -168 168zM227 331h132v43q0 13 -13 13h-106q-13 0 -13 -13v-43zM207 614v155h172v-155h-172z" />
    <glyph glyph-name="Eogonek" unicode="&#x118;" horiz-adv-x="611" 
d="M78 0v690h483v-157h-309v-103h279v-157h-279v-116h309v-157h-483zM333 -18q0 133 133 133h18v-115h-20q-4 0 -4 -4v-66q0 -4 4 -4h97v-72l-55 -43h-40q-133 0 -133 133v38z" />
    <glyph glyph-name="eogonek" unicode="&#x119;" horiz-adv-x="586" 
d="M60 168v196q0 168 168 168h130q168 0 168 -168v-159h-299v-47q0 -13 13 -13h266v-93l-70 -52h-208q-168 0 -168 168zM227 331h132v43q0 13 -13 13h-106q-13 0 -13 -13v-43zM268 -18q0 133 133 133h18v-115h-20q-4 0 -4 -4v-66q0 -4 4 -4h97v-72l-55 -43h-40
q-133 0 -133 133v38z" />
    <glyph glyph-name="Ecaron" unicode="&#x11a;" horiz-adv-x="611" 
d="M78 0v690h483v-157h-309v-103h279v-157h-279v-116h309v-157h-483zM155 880l70 73l97 -93l97 93l70 -73l-167 -163z" />
    <glyph glyph-name="ecaron" unicode="&#x11b;" horiz-adv-x="586" 
d="M60 168v196q0 168 168 168h130q168 0 168 -168v-159h-299v-47q0 -13 13 -13h266v-93l-70 -52h-208q-168 0 -168 168zM227 331h132v43q0 13 -13 13h-106q-13 0 -13 -13v-43zM127 732l68 73l98 -93l98 93l68 -73l-166 -163z" />
    <glyph glyph-name="Gbreve" unicode="&#x11e;" horiz-adv-x="682" 
d="M68 176v338q0 176 176 176h282l78 -60v-97h-351q-11 0 -11 -11v-354q0 -11 11 -11h197v116h-113v157h287v-430h-380q-176 0 -176 176zM202 834v69h92v-63q0 -4 4 -4h96q4 0 4 4v63h92v-69q0 -91 -91 -91h-106q-91 0 -91 91z" />
    <glyph glyph-name="gbreve" unicode="&#x11f;" horiz-adv-x="582" 
d="M54 168v196q0 168 168 168h298v-564q0 -168 -168 -168h-180l-70 52v93h238q13 0 13 13v42h-131q-168 0 -168 168zM221 158q0 -13 13 -13h119v242h-119q-13 0 -13 -13v-216zM143 686v69h92v-63q0 -4 4 -4h96q4 0 4 4v63h92v-69q0 -91 -91 -91h-106q-91 0 -91 91z" />
    <glyph glyph-name="uni0122" unicode="&#x122;" horiz-adv-x="682" 
d="M68 176v338q0 176 176 176h282l78 -60v-97h-351q-11 0 -11 -11v-354q0 -11 11 -11h197v116h-113v157h287v-430h-380q-176 0 -176 176zM249 -176l29 126h120l17 -24l-55 -134z" />
    <glyph glyph-name="uni0123" unicode="&#x123;" horiz-adv-x="582" 
d="M54 168v196q0 168 168 168h298v-564q0 -168 -168 -168h-180l-70 52v93h238q13 0 13 13v42h-131q-168 0 -168 168zM221 158q0 -13 13 -13h119v242h-119q-13 0 -13 -13v-216zM228 630l55 134l111 -32l-29 -126h-120z" />
    <glyph glyph-name="Imacron" unicode="&#x12a;" horiz-adv-x="330" 
d="M78 0v690h174v-690h-174zM11 762v112h308v-112h-308z" />
    <glyph glyph-name="imacron" unicode="&#x12b;" horiz-adv-x="303" 
d="M68 0v532h167v-532h-167zM-2 614v112h308v-112h-308z" />
    <glyph glyph-name="Iogonek" unicode="&#x12e;" horiz-adv-x="330" 
d="M78 0v690h174v-690h-174zM25 -18q0 133 133 133h18v-115h-20q-4 0 -4 -4v-66q0 -4 4 -4h97v-72l-55 -43h-40q-133 0 -133 133v38z" />
    <glyph glyph-name="iogonek" unicode="&#x12f;" horiz-adv-x="303" 
d="M66 614v155h171v-155h-171zM68 0v532h167v-532h-167zM12 -18q0 133 133 133h18v-115h-20q-4 0 -4 -4v-66q0 -4 4 -4h97v-72l-55 -43h-40q-133 0 -133 133v38z" />
    <glyph glyph-name="Idotaccent" unicode="&#x130;" horiz-adv-x="330" 
d="M78 0v690h174v-690h-174zM80 762v155h170v-155h-170z" />
    <glyph glyph-name="dotlessi" unicode="&#x131;" horiz-adv-x="303" 
d="M68 0v532h167v-532h-167z" />
    <glyph glyph-name="uni0136" unicode="&#x136;" horiz-adv-x="693" 
d="M78 0v690h174v-232l208 232h164l16 -34l-224 -250l250 -372l-16 -34h-160l-186 280l-52 -54v-226h-174zM247 -176l29 126h120l17 -24l-55 -134z" />
    <glyph glyph-name="uni0137" unicode="&#x137;" horiz-adv-x="606" 
d="M68 0v740h167v-374l154 166h165l13 -27l-181 -194l195 -284l-13 -27h-164l-128 192l-41 -45v-147h-167zM203 -176l29 126h120l17 -24l-55 -134z" />
    <glyph glyph-name="Lacute" unicode="&#x139;" horiz-adv-x="555" 
d="M78 0v690h174v-533h279v-157h-453zM88 800l144 163l88 -83l-154 -154z" />
    <glyph glyph-name="lacute" unicode="&#x13a;" horiz-adv-x="335" 
d="M64 217v523h167v-540q0 -59 61 -66v-145q-228 0 -228 228zM52 837l142 163l88 -83l-153 -154z" />
    <glyph glyph-name="uni013B" unicode="&#x13b;" horiz-adv-x="555" 
d="M78 0v690h174v-533h279v-157h-453zM209 -176l29 126h120l17 -24l-55 -134z" />
    <glyph glyph-name="uni013C" unicode="&#x13c;" horiz-adv-x="335" 
d="M64 217v523h167v-540q0 -59 61 -66v-145q-228 0 -228 228zM93 -176l29 126h120l17 -24l-55 -134z" />
    <glyph glyph-name="Lcaron" unicode="&#x13d;" horiz-adv-x="555" 
d="M78 0v690h174v-533h279v-157h-453zM331 528l38 194h106l16 -24l-64 -194z" />
    <glyph glyph-name="lcaron" unicode="&#x13e;" horiz-adv-x="432" 
d="M64 217v523h167v-540q0 -59 61 -66v-145q-228 0 -228 228zM282 578l38 194h106l16 -24l-64 -194z" />
    <glyph glyph-name="Lslash" unicode="&#x141;" horiz-adv-x="594" 
d="M10 312l106 60v318h174v-217l105 61l67 -117l-172 -100v-160h280v-157h-454v217l-38 -23z" />
    <glyph glyph-name="lslash" unicode="&#x142;" horiz-adv-x="363" 
d="M-10 354l96 56v330h167v-234l57 34l63 -110l-120 -69v-161q0 -59 61 -66v-145q-228 0 -228 228v47l-34 -19z" />
    <glyph glyph-name="Nacute" unicode="&#x143;" horiz-adv-x="747" 
d="M78 0v690h188l229 -400v400h174v-690h-187l-230 400v-400h-174zM282 800l144 163l88 -83l-154 -154z" />
    <glyph glyph-name="nacute" unicode="&#x144;" horiz-adv-x="598" 
d="M68 0v532h298q168 0 168 -168v-364h-167v374q0 13 -13 13h-119v-387h-167zM205 652l142 163l88 -83l-153 -154z" />
    <glyph glyph-name="uni0145" unicode="&#x145;" horiz-adv-x="747" 
d="M78 0v690h188l229 -400v400h174v-690h-187l-230 400v-400h-174zM271 -176l29 126h120l17 -24l-55 -134z" />
    <glyph glyph-name="uni0146" unicode="&#x146;" horiz-adv-x="598" 
d="M68 0v532h298q168 0 168 -168v-364h-167v374q0 13 -13 13h-119v-387h-167zM204 -176l29 126h120l17 -24l-55 -134z" />
    <glyph glyph-name="Ncaron" unicode="&#x147;" horiz-adv-x="747" 
d="M78 0v690h188l229 -400v400h174v-690h-187l-230 400v-400h-174zM212 880l70 73l97 -93l97 93l70 -73l-167 -163z" />
    <glyph glyph-name="ncaron" unicode="&#x148;" horiz-adv-x="598" 
d="M68 0v532h298q168 0 168 -168v-364h-167v374q0 13 -13 13h-119v-387h-167zM135 732l68 73l98 -93l98 93l68 -73l-166 -163z" />
    <glyph glyph-name="Omacron" unicode="&#x14c;" horiz-adv-x="712" 
d="M68 176v338q0 176 176 176h224q176 0 176 -176v-338q0 -176 -176 -176h-224q-176 0 -176 176zM242 168q0 -11 11 -11h206q11 0 11 11v354q0 11 -11 11h-206q-11 0 -11 -11v-354zM202 762v112h308v-112h-308z" />
    <glyph glyph-name="omacron" unicode="&#x14d;" horiz-adv-x="596" 
d="M60 168v196q0 168 168 168h140q168 0 168 -168v-196q0 -168 -168 -168h-140q-168 0 -168 168zM227 158q0 -13 13 -13h116q13 0 13 13v216q0 13 -13 13h-116q-13 0 -13 -13v-216zM144 614v112h308v-112h-308z" />
    <glyph glyph-name="Ohungarumlaut" unicode="&#x150;" horiz-adv-x="712" 
d="M68 176v338q0 176 176 176h224q176 0 176 -176v-338q0 -176 -176 -176h-224q-176 0 -176 176zM242 168q0 -11 11 -11h206q11 0 11 11v354q0 11 -11 11h-206q-11 0 -11 -11v-354zM174 790l118 173l95 -71l-130 -166zM369 790l118 173l94 -71l-129 -166z" />
    <glyph glyph-name="ohungarumlaut" unicode="&#x151;" horiz-adv-x="596" 
d="M60 168v196q0 168 168 168h140q168 0 168 -168v-196q0 -168 -168 -168h-140q-168 0 -168 168zM227 158q0 -13 13 -13h116q13 0 13 13v216q0 13 -13 13h-116q-13 0 -13 -13v-216zM116 642l118 173l94 -71l-129 -166zM311 642l118 173l95 -71l-130 -166z" />
    <glyph glyph-name="OE" unicode="&#x152;" horiz-adv-x="983" 
d="M68 176v338q0 176 176 176h689v-157h-306v-103h276v-157h-276v-116h306v-157h-689q-176 0 -176 176zM242 168q0 -11 11 -11h200v376h-200q-11 0 -11 -11v-354z" />
    <glyph glyph-name="oe" unicode="&#x153;" horiz-adv-x="905" 
d="M60 168v196q0 168 168 168h120q70 0 110 -40q40 40 110 40h109q168 0 168 -168v-159h-304v-47q0 -13 13 -13h271v-93l-70 -52h-187q-70 0 -110 40q-40 -40 -110 -40h-120q-168 0 -168 168zM227 158q0 -13 13 -13h121q13 0 13 13v216q0 13 -13 13h-121q-13 0 -13 -13v-216
zM541 331h137v43q0 13 -13 13h-111q-13 0 -13 -13v-43z" />
    <glyph glyph-name="Racute" unicode="&#x154;" horiz-adv-x="652" 
d="M78 0v690h340q176 0 176 -176v-116q0 -122 -84 -160l104 -203l-20 -35h-150l-114 223h-78v-223h-174zM252 380h157q11 0 11 11v131q0 11 -11 11h-157v-153zM225 800l144 163l88 -83l-154 -154z" />
    <glyph glyph-name="racute" unicode="&#x155;" horiz-adv-x="420" 
d="M64 0v460q38 72 148 72h112l70 -52v-93h-132q-24 0 -31 -11v-376h-167zM130 652l142 163l88 -83l-153 -154z" />
    <glyph glyph-name="uni0156" unicode="&#x156;" horiz-adv-x="652" 
d="M78 0v690h340q176 0 176 -176v-116q0 -122 -84 -160l104 -203l-20 -35h-150l-114 223h-78v-223h-174zM252 380h157q11 0 11 11v131q0 11 -11 11h-157v-153zM225 -176l29 126h120l17 -24l-55 -134z" />
    <glyph glyph-name="uni0157" unicode="&#x157;" horiz-adv-x="420" 
d="M64 0v460q38 72 148 72h112l70 -52v-93h-132q-24 0 -31 -11v-376h-167zM25 -176l29 126h120l17 -24l-55 -134z" />
    <glyph glyph-name="Rcaron" unicode="&#x158;" horiz-adv-x="652" 
d="M78 0v690h340q176 0 176 -176v-116q0 -122 -84 -160l104 -203l-20 -35h-150l-114 223h-78v-223h-174zM252 380h157q11 0 11 11v131q0 11 -11 11h-157v-153zM155 880l70 73l97 -93l97 93l70 -73l-167 -163z" />
    <glyph glyph-name="rcaron" unicode="&#x159;" horiz-adv-x="420" 
d="M64 0v460q38 72 148 72h112l70 -52v-93h-132q-24 0 -31 -11v-376h-167zM60 732l68 73l98 -93l98 93l68 -73l-166 -163z" />
    <glyph glyph-name="Sacute" unicode="&#x15a;" horiz-adv-x="592" 
d="M48 60v97h311q11 0 11 11v68q0 14 -12 16l-185 38q-125 24 -125 167v57q0 176 176 176h222l78 -60v-97h-291q-11 0 -11 -11v-64q0 -13 12 -16l185 -36q125 -26 125 -168v-62q0 -176 -176 -176h-242zM199 800l144 163l88 -83l-154 -154z" />
    <glyph glyph-name="sacute" unicode="&#x15b;" horiz-adv-x="512" 
d="M51 52v93h230q16 0 16 22q0 23 -15 26l-102 17q-129 22 -129 153q0 169 168 169h149l70 -52v-93h-206q-16 0 -16 -22q0 -29 16 -31l102 -17q128 -21 128 -148q0 -169 -168 -169h-173zM160 652l142 163l88 -83l-153 -154z" />
    <glyph glyph-name="Scedilla" unicode="&#x15e;" horiz-adv-x="592" 
d="M48 60v97h311q11 0 11 11v68q0 14 -12 16l-185 38q-125 24 -125 167v57q0 176 176 176h222l78 -60v-97h-291q-11 0 -11 -11v-64q0 -13 12 -16l185 -36q125 -26 125 -168v-62q0 -176 -176 -176h-242zM183 -74h101q4 0 4 4v142h127v-128q0 -133 -133 -133h-44l-55 43v72z
" />
    <glyph glyph-name="scedilla" unicode="&#x15f;" horiz-adv-x="512" 
d="M51 52v93h230q16 0 16 22q0 23 -15 26l-102 17q-129 22 -129 153q0 169 168 169h149l70 -52v-93h-206q-16 0 -16 -22q0 -29 16 -31l102 -17q128 -21 128 -148q0 -169 -168 -169h-173zM143 -74h101q4 0 4 4v142h127v-128q0 -133 -133 -133h-44l-55 43v72z" />
    <glyph glyph-name="Scaron" unicode="&#x160;" horiz-adv-x="592" 
d="M48 60v97h311q11 0 11 11v68q0 14 -12 16l-185 38q-125 24 -125 167v57q0 176 176 176h222l78 -60v-97h-291q-11 0 -11 -11v-64q0 -13 12 -16l185 -36q125 -26 125 -168v-62q0 -176 -176 -176h-242zM129 880l70 73l97 -93l97 93l70 -73l-167 -163z" />
    <glyph glyph-name="scaron" unicode="&#x161;" horiz-adv-x="512" 
d="M51 52v93h230q16 0 16 22q0 23 -15 26l-102 17q-129 22 -129 153q0 169 168 169h149l70 -52v-93h-206q-16 0 -16 -22q0 -29 16 -31l102 -17q128 -21 128 -148q0 -169 -168 -169h-173zM90 732l68 73l98 -93l98 93l68 -73l-166 -163z" />
    <glyph glyph-name="uni0162" unicode="&#x162;" horiz-adv-x="622" 
d="M24 533v157h574v-157h-200v-533h-174v533h-200zM198 -74h101q4 0 4 4v142h127v-128q0 -133 -133 -133h-44l-55 43v72z" />
    <glyph glyph-name="uni0163" unicode="&#x163;" horiz-adv-x="440" 
d="M64 168v522h167v-158h163v-145h-163v-229q0 -13 13 -13h160v-93l-70 -52h-102q-168 0 -168 168zM132 -74h101q4 0 4 4v142h127v-128q0 -133 -133 -133h-44l-55 43v72z" />
    <glyph glyph-name="Tcaron" unicode="&#x164;" horiz-adv-x="622" 
d="M24 533v157h574v-157h-200v-533h-174v533h-200zM144 880l70 73l97 -93l97 93l70 -73l-167 -163z" />
    <glyph glyph-name="tcaron" unicode="&#x165;" horiz-adv-x="440" 
d="M64 168v522h167v-158h163v-145h-163v-229q0 -13 13 -13h160v-93l-70 -52h-102q-168 0 -168 168zM272 603l38 194h106l16 -24l-64 -194z" />
    <glyph glyph-name="Umacron" unicode="&#x16a;" horiz-adv-x="700" 
d="M72 176v514h174v-522q0 -11 11 -11h186q11 0 11 11v522h174v-514q0 -176 -176 -176h-204q-176 0 -176 176zM196 762v112h308v-112h-308z" />
    <glyph glyph-name="umacron" unicode="&#x16b;" horiz-adv-x="598" 
d="M64 168v364h167v-374q0 -13 13 -13h119v387h167v-532h-298q-168 0 -168 168zM143 614v112h308v-112h-308z" />
    <glyph glyph-name="Uring" unicode="&#x16e;" horiz-adv-x="700" 
d="M72 176v514h174v-522q0 -11 11 -11h186q11 0 11 11v522h174v-514q0 -176 -176 -176h-204q-176 0 -176 176zM227 800v60q0 84 85 84h76q85 0 85 -84v-60q0 -84 -85 -84h-76q-85 0 -85 84zM318 798q0 -4 4 -4h56q4 0 4 4v64q0 4 -4 4h-56q-4 0 -4 -4v-64z" />
    <glyph glyph-name="uring" unicode="&#x16f;" horiz-adv-x="598" 
d="M64 168v364h167v-374q0 -13 13 -13h119v387h167v-532h-298q-168 0 -168 168zM174 652v60q0 84 85 84h76q85 0 85 -84v-60q0 -84 -85 -84h-76q-85 0 -85 84zM265 650q0 -4 4 -4h56q4 0 4 4v64q0 4 -4 4h-56q-4 0 -4 -4v-64z" />
    <glyph glyph-name="Uhungarumlaut" unicode="&#x170;" horiz-adv-x="700" 
d="M72 176v514h174v-522q0 -11 11 -11h186q11 0 11 11v522h174v-514q0 -176 -176 -176h-204q-176 0 -176 176zM168 790l118 173l95 -71l-130 -166zM363 790l118 173l94 -71l-129 -166z" />
    <glyph glyph-name="uhungarumlaut" unicode="&#x171;" horiz-adv-x="598" 
d="M64 168v364h167v-374q0 -13 13 -13h119v387h167v-532h-298q-168 0 -168 168zM115 642l118 173l94 -71l-129 -166zM310 642l118 173l95 -71l-130 -166z" />
    <glyph glyph-name="Uogonek" unicode="&#x172;" horiz-adv-x="700" 
d="M72 176v514h174v-522q0 -11 11 -11h186q11 0 11 11v522h174v-514q0 -176 -176 -176h-204q-176 0 -176 176zM296 -18q0 133 133 133h18v-115h-20q-4 0 -4 -4v-66q0 -4 4 -4h97v-72l-55 -43h-40q-133 0 -133 133v38z" />
    <glyph glyph-name="uogonek" unicode="&#x173;" horiz-adv-x="598" 
d="M64 168v364h167v-374q0 -13 13 -13h119v387h167v-532h-298q-168 0 -168 168zM302 -18q0 133 133 133h18v-115h-20q-4 0 -4 -4v-66q0 -4 4 -4h97v-72l-55 -43h-40q-133 0 -133 133v38z" />
    <glyph glyph-name="Ydieresis" unicode="&#x178;" horiz-adv-x="634" 
d="M17 658l20 32h149l131 -265l131 265h149l20 -32l-213 -420v-238h-174v238zM142 746v142h140v-142h-140zM352 746v142h140v-142h-140z" />
    <glyph glyph-name="Zacute" unicode="&#x179;" horiz-adv-x="612" 
d="M38 0v134l305 399h-295v157h516v-134l-305 -399h315v-157h-536zM209 800l144 163l88 -83l-154 -154z" />
    <glyph glyph-name="zacute" unicode="&#x17a;" horiz-adv-x="522" 
d="M38 0v125l221 262h-211v145h426v-125l-220 -262h230v-145h-446zM165 652l142 163l88 -83l-153 -154z" />
    <glyph glyph-name="Zdotaccent" unicode="&#x17b;" horiz-adv-x="612" 
d="M38 0v134l305 399h-295v157h516v-134l-305 -399h315v-157h-536zM221 762v155h170v-155h-170z" />
    <glyph glyph-name="zdotaccent" unicode="&#x17c;" horiz-adv-x="522" 
d="M38 0v125l221 262h-211v145h426v-125l-220 -262h230v-145h-446zM175 614v155h172v-155h-172z" />
    <glyph glyph-name="Zcaron" unicode="&#x17d;" horiz-adv-x="612" 
d="M38 0v134l305 399h-295v157h516v-134l-305 -399h315v-157h-536zM139 880l70 73l97 -93l97 93l70 -73l-167 -163z" />
    <glyph glyph-name="zcaron" unicode="&#x17e;" horiz-adv-x="522" 
d="M38 0v125l221 262h-211v145h426v-125l-220 -262h230v-145h-446zM95 732l68 73l98 -93l98 93l68 -73l-166 -163z" />
    <glyph glyph-name="florin" unicode="&#x192;" horiz-adv-x="582" 
d="M40 -28h125q13 0 13 13v587q0 168 168 168h102l70 -52v-93h-160q-13 0 -13 -13v-50h163v-145h-163v-392q0 -168 -168 -168h-67l-70 53v92z" />
    <glyph glyph-name="uni0218" unicode="&#x218;" horiz-adv-x="592" 
d="M48 60v97h311q11 0 11 11v68q0 14 -12 16l-185 38q-125 24 -125 167v57q0 176 176 176h222l78 -60v-97h-291q-11 0 -11 -11v-64q0 -13 12 -16l185 -36q125 -26 125 -168v-62q0 -176 -176 -176h-242zM199 -176l29 126h120l17 -24l-55 -134z" />
    <glyph glyph-name="uni0219" unicode="&#x219;" horiz-adv-x="512" 
d="M51 52v93h230q16 0 16 22q0 23 -15 26l-102 17q-129 22 -129 153q0 169 168 169h149l70 -52v-93h-206q-16 0 -16 -22q0 -29 16 -31l102 -17q128 -21 128 -148q0 -169 -168 -169h-173zM159 -176l29 126h120l17 -24l-55 -134z" />
    <glyph glyph-name="uni021A" unicode="&#x21a;" horiz-adv-x="622" 
d="M24 533v157h574v-157h-200v-533h-174v533h-200zM214 -176l29 126h120l17 -24l-55 -134z" />
    <glyph glyph-name="uni021B" unicode="&#x21b;" horiz-adv-x="440" 
d="M64 168v522h167v-158h163v-145h-163v-229q0 -13 13 -13h160v-93l-70 -52h-102q-168 0 -168 168zM148 -176l29 126h120l17 -24l-55 -134z" />
    <glyph glyph-name="uni0237" unicode="&#x237;" horiz-adv-x="303" 
d="M-11 -70q79 6 79 84v518h167v-497q0 -246 -246 -246v141z" />
    <glyph glyph-name="circumflex" unicode="&#x2c6;" horiz-adv-x="500" 
d="M84 652l166 163l166 -163l-68 -73l-98 93l-98 -93z" />
    <glyph glyph-name="caron" unicode="&#x2c7;" horiz-adv-x="500" 
d="M84 732l68 73l98 -93l98 93l68 -73l-166 -163z" />
    <glyph glyph-name="uni02C9" unicode="&#x2c9;" horiz-adv-x="500" 
d="M96 614v112h308v-112h-308z" />
    <glyph glyph-name="breve" unicode="&#x2d8;" horiz-adv-x="500" 
d="M106 686v69h92v-63q0 -4 4 -4h96q4 0 4 4v63h92v-69q0 -91 -91 -91h-106q-91 0 -91 91z" />
    <glyph glyph-name="dotaccent" unicode="&#x2d9;" horiz-adv-x="500" 
d="M164 614v155h172v-155h-172z" />
    <glyph glyph-name="ring" unicode="&#x2da;" horiz-adv-x="500" 
d="M127 652v60q0 84 85 84h76q85 0 85 -84v-60q0 -84 -85 -84h-76q-85 0 -85 84zM218 650q0 -4 4 -4h56q4 0 4 4v64q0 4 -4 4h-56q-4 0 -4 -4v-64z" />
    <glyph glyph-name="ogonek" unicode="&#x2db;" horiz-adv-x="500" 
d="M143 -18q0 133 133 133h18v-115h-20q-4 0 -4 -4v-66q0 -4 4 -4h97v-72l-55 -43h-40q-133 0 -133 133v38z" />
    <glyph glyph-name="tilde" unicode="&#x2dc;" horiz-adv-x="500" 
d="M62 659l72 72q22 22 60 22t60 -22l47 -47q3 -3 5 -3t5 3l58 58l69 -69l-72 -72q-22 -22 -60 -22t-60 22l-47 47q-3 3 -5 3t-5 -3l-58 -58z" />
    <glyph glyph-name="hungarumlaut" unicode="&#x2dd;" horiz-adv-x="500" 
d="M68 642l118 173l94 -71l-129 -166zM263 642l118 173l95 -71l-130 -166z" />
    <glyph glyph-name="uni0300" unicode="&#x300;" horiz-adv-x="0" 
d="M-426 732l88 83l142 -163l-77 -74z" />
    <glyph glyph-name="uni0301" unicode="&#x301;" horiz-adv-x="0" 
d="M-388 652l142 163l88 -83l-153 -154z" />
    <glyph glyph-name="uni0302" unicode="&#x302;" horiz-adv-x="0" 
d="M-458 652l166 163l166 -163l-68 -73l-98 93l-98 -93z" />
    <glyph glyph-name="uni0303" unicode="&#x303;" horiz-adv-x="0" 
d="M-480 659l72 72q22 22 60 22t60 -22l47 -47q3 -3 5 -3t5 3l58 58l69 -69l-72 -72q-22 -22 -60 -22t-60 22l-47 47q-3 3 -5 3t-5 -3l-58 -58z" />
    <glyph glyph-name="uni0304" unicode="&#x304;" horiz-adv-x="0" 
d="M-446 614v112h308v-112h-308z" />
    <glyph glyph-name="uni0306" unicode="&#x306;" horiz-adv-x="0" 
d="M-436 686v69h92v-63q0 -4 4 -4h96q4 0 4 4v63h92v-69q0 -91 -91 -91h-106q-91 0 -91 91z" />
    <glyph glyph-name="uni0307" unicode="&#x307;" horiz-adv-x="0" 
d="M-378 614v155h172v-155h-172z" />
    <glyph glyph-name="uni0308" unicode="&#x308;" horiz-adv-x="0" 
d="M-467 598v142h140v-142h-140zM-257 598v142h140v-142h-140z" />
    <glyph glyph-name="uni030A" unicode="&#x30a;" horiz-adv-x="0" 
d="M-415 652v60q0 84 85 84h76q85 0 85 -84v-60q0 -84 -85 -84h-76q-85 0 -85 84zM-324 650q0 -4 4 -4h56q4 0 4 4v64q0 4 -4 4h-56q-4 0 -4 -4v-64z" />
    <glyph glyph-name="uni030B" unicode="&#x30b;" horiz-adv-x="0" 
d="M-474 642l118 173l94 -71l-129 -166zM-279 642l118 173l95 -71l-130 -166z" />
    <glyph glyph-name="uni030C" unicode="&#x30c;" horiz-adv-x="0" 
d="M-458 732l68 73l98 -93l98 93l68 -73l-166 -163z" />
    <glyph glyph-name="uni0326" unicode="&#x326;" horiz-adv-x="0" 
d="M-389 -176l29 126h120l17 -24l-55 -134z" />
    <glyph glyph-name="uni0327" unicode="&#x327;" horiz-adv-x="0" 
d="M-405 -74h101q4 0 4 4v142h127v-128q0 -133 -133 -133h-44l-55 43v72z" />
    <glyph glyph-name="uni0328" unicode="&#x328;" horiz-adv-x="0" 
d="M-399 -18q0 133 133 133h18v-115h-20q-4 0 -4 -4v-66q0 -4 4 -4h97v-72l-55 -43h-40q-133 0 -133 133v38z" />
    <glyph glyph-name="pi" unicode="&#x3c0;" horiz-adv-x="602" 
d="M68 0v532h466v-532h-167v387h-132v-387h-167z" />
    <glyph glyph-name="uni1E9E" unicode="&#x1e9e;" horiz-adv-x="711" 
d="M72 0v514q0 176 176 176h340v-134l-91 -126h4q162 0 162 -186v-68q0 -176 -175 -176h-115l-78 60v97h183q11 0 11 11v94q0 11 -11 11h-178v135l91 125h-134q-11 0 -11 -11v-522h-174z" />
    <glyph glyph-name="endash" unicode="&#x2013;" horiz-adv-x="580" 
d="M40 234v142h500v-142h-500z" />
    <glyph glyph-name="emdash" unicode="&#x2014;" horiz-adv-x="1000" 
d="M40 234v142h920v-142h-920z" />
    <glyph glyph-name="quoteleft" unicode="&#x2018;" horiz-adv-x="287" 
d="M24 474l111 291l123 -31l-74 -285h-144z" />
    <glyph glyph-name="quoteright" unicode="&#x2019;" horiz-adv-x="287" 
d="M20 456l74 284h144l16 -24l-111 -292z" />
    <glyph glyph-name="quotesinglbase" unicode="&#x201a;" horiz-adv-x="287" 
d="M17 -124l74 285h143l17 -25l-111 -291z" />
    <glyph glyph-name="quotedblleft" unicode="&#x201c;" horiz-adv-x="527" 
d="M24 474l111 291l123 -31l-74 -285h-144zM264 474l111 291l123 -31l-74 -285h-144z" />
    <glyph glyph-name="quotedblright" unicode="&#x201d;" horiz-adv-x="527" 
d="M20 456l74 284h144l16 -24l-111 -292zM260 456l74 284h144l16 -24l-111 -292z" />
    <glyph glyph-name="quotedblbase" unicode="&#x201e;" horiz-adv-x="527" 
d="M17 -124l74 285h143l17 -25l-111 -291zM257 -124l74 285h143l17 -25l-111 -291z" />
    <glyph glyph-name="dagger" unicode="&#x2020;" horiz-adv-x="502" 
d="M50 384v142h126v164h150v-164h126v-142h-126v-484h-150v484h-126z" />
    <glyph glyph-name="daggerdbl" unicode="&#x2021;" horiz-adv-x="502" 
d="M50 64v142h126v178h-126v142h126v164h150v-164h126v-142h-126v-178h126v-142h-126v-164h-150v164h-126z" />
    <glyph glyph-name="bullet" unicode="&#x2022;" horiz-adv-x="372" 
d="M56 230v260h260v-260h-260z" />
    <glyph glyph-name="ellipsis" unicode="&#x2026;" horiz-adv-x="861" 
d="M56 0v161h175v-161h-175zM343 0v161h175v-161h-175zM630 0v161h175v-161h-175z" />
    <glyph glyph-name="perthousand" unicode="&#x2030;" horiz-adv-x="1267" 
d="M31 404v153q0 133 133 133h41q133 0 133 -133v-153q0 -133 -133 -133h-41q-133 0 -133 133zM161 393q0 -4 4 -4h39q4 0 4 4v175q0 4 -4 4h-39q-4 0 -4 -4v-175zM221 45l330 660l120 -60l-330 -660zM555 133v153q0 133 133 133h41q133 0 133 -133v-153q0 -133 -133 -133
h-41q-133 0 -133 133zM685 122q0 -4 4 -4h39q4 0 4 4v175q0 4 -4 4h-39q-4 0 -4 -4v-175zM929 133v153q0 133 133 133h41q133 0 133 -133v-153q0 -133 -133 -133h-41q-133 0 -133 133zM1059 122q0 -4 4 -4h39q4 0 4 4v175q0 4 -4 4h-39q-4 0 -4 -4v-175z" />
    <glyph glyph-name="guilsinglleft" unicode="&#x2039;" horiz-adv-x="368" 
d="M30 315l196 246l102 -84l-125 -162l125 -162l-102 -84z" />
    <glyph glyph-name="guilsinglright" unicode="&#x203a;" horiz-adv-x="368" 
d="M40 153l124 162l-124 162l102 84l196 -246l-196 -246z" />
    <glyph glyph-name="fraction" unicode="&#x2044;" horiz-adv-x="155" 
d="M-148 45l330 660l120 -60l-330 -660z" />
    <glyph glyph-name="uni2070" unicode="&#x2070;" horiz-adv-x="369" 
d="M31 404v153q0 133 133 133h41q133 0 133 -133v-153q0 -133 -133 -133h-41q-133 0 -133 133zM161 393q0 -4 4 -4h39q4 0 4 4v175q0 4 -4 4h-39q-4 0 -4 -4v-175z" />
    <glyph glyph-name="uni2074" unicode="&#x2074;" horiz-adv-x="369" 
d="M31 313v109l95 268h111l14 -24l-76 -235h33v75h130v-235h-130v42h-177z" />
    <glyph glyph-name="uni2080" unicode="&#x2080;" horiz-adv-x="369" 
d="M31 133v153q0 133 133 133h41q133 0 133 -133v-153q0 -133 -133 -133h-41q-133 0 -133 133zM161 122q0 -4 4 -4h39q4 0 4 4v175q0 4 -4 4h-39q-4 0 -4 -4v-175z" />
    <glyph glyph-name="uni2081" unicode="&#x2081;" horiz-adv-x="369" 
d="M49 0v118h81v183h-69v75l55 43h144v-301h72v-118h-283z" />
    <glyph glyph-name="uni2082" unicode="&#x2082;" horiz-adv-x="369" 
d="M31 0v138q0 98 97 117l73 14q7 1 7 10v18q0 4 -4 4h-161v75l55 43h107q133 0 133 -133v-13q0 -99 -98 -118l-72 -14q-7 -1 -7 -9v-14h177v-118h-307z" />
    <glyph glyph-name="uni2083" unicode="&#x2083;" horiz-adv-x="369" 
d="M37 43v75h167q4 0 4 4v26q0 4 -4 4h-123v118h123q4 0 4 4v23q0 4 -4 4h-161v75l55 43h107q133 0 133 -133v-9q0 -27 -17 -44l-23 -23l23 -23q17 -17 17 -44v-10q0 -133 -133 -133h-113z" />
    <glyph glyph-name="uni2084" unicode="&#x2084;" horiz-adv-x="369" 
d="M31 42v109l95 268h111l14 -24l-76 -235h33v75h130v-235h-130v42h-177z" />
    <glyph glyph-name="Euro" unicode="&#x20ac;" 
d="M19 227v92h67v52h-67v92h67v51q0 176 176 176h209l78 -60v-97h-278q-11 0 -11 -11v-59h215v-92h-215v-52h171v-92h-171v-59q0 -11 11 -11h278v-97l-78 -60h-209q-176 0 -176 176v51h-67z" />
    <glyph glyph-name="uni20BA" unicode="&#x20ba;" 
d="M21 311l85 34v57l-51 -20l-34 85l85 34v189h174v-119l140 56l34 -85l-174 -70v-57l140 56l34 -85l-174 -70v-159h4q90 0 90 105v38h168v-22q0 -278 -268 -278h-168v246l-51 -20z" />
    <glyph glyph-name="uni20BD" unicode="&#x20bd;" 
d="M26 86v126h50v60h-50v146h50v272h290q176 0 176 -176v-66q0 -176 -176 -176h-116v-60h166v-126h-166v-86h-174v86h-50zM250 418h107q11 0 11 10v94q0 11 -11 11h-107v-115z" />
    <glyph glyph-name="uni2113" unicode="&#x2113;" horiz-adv-x="335" 
d="M64 217v523h167v-540q0 -59 61 -66v-145q-228 0 -228 228z" />
    <glyph glyph-name="trademark" unicode="&#x2122;" horiz-adv-x="800" 
d="M20 579v111h296v-111h-86v-248h-124v248h-86zM339 331v359h137l70 -150l70 150h136v-359h-123v122l-39 -83h-90l-38 83v-122h-123z" />
    <glyph glyph-name="Omega" unicode="&#x2126;" horiz-adv-x="712" 
d="M48 0v157h52l-2 3q-30 45 -30 104v250q0 176 176 176h224q176 0 176 -176v-250q0 -59 -30 -104l-2 -3h52v-157h-266v131l62 82q10 13 10 36v273q0 11 -11 11h-206q-11 0 -11 -11v-273q0 -23 10 -36l62 -82v-131h-266z" />
    <glyph glyph-name="estimated" unicode="&#x212e;" horiz-adv-x="880" 
d="M200 127q105 -102 240 -102t247 108l32 -33q-122 -115 -279 -115t-268.5 105.5t-111.5 254.5t111.5 254.5t268.5 105.5t268.5 -105.5t111.5 -274.5h-620v-198zM200 365h480v198q-105 102 -240 102t-240 -102v-198z" />
    <glyph glyph-name="partialdiff" unicode="&#x2202;" horiz-adv-x="590" 
d="M60 168v154q0 168 168 168h131v8q0 97 -97 97h-158v93l70 52h83q269 0 269 -269v-303q0 -168 -168 -168h-130q-168 0 -168 168zM227 158q0 -13 13 -13h106q13 0 13 13v187h-119q-13 0 -13 -13v-174z" />
    <glyph glyph-name="Delta" unicode="&#x2206;" horiz-adv-x="694" 
d="M17 32l192 658h276l192 -658l-21 -32h-618zM228 157h238l-106 376h-26z" />
    <glyph glyph-name="product" unicode="&#x220f;" horiz-adv-x="712" 
d="M78 -100v790h556v-790h-174v633h-208v-633h-174z" />
    <glyph glyph-name="summation" unicode="&#x2211;" horiz-adv-x="610" 
d="M50 34l184 261l-184 261v134h510v-157h-298l167 -238l-167 -238h298v-157h-510v134z" />
    <glyph glyph-name="minus" unicode="&#x2212;" 
d="M58 264v142h462v-142h-462z" />
    <glyph glyph-name="uni2215" unicode="&#x2215;" horiz-adv-x="155" 
d="M-148 45l330 660l120 -60l-330 -660z" />
    <glyph glyph-name="uni2219" unicode="&#x2219;" horiz-adv-x="287" 
d="M56 254v161h175v-161h-175z" />
    <glyph glyph-name="radical" unicode="&#x221a;" horiz-adv-x="628" 
d="M20 285v115h195l73 -220l214 620l124 -42l-267 -768h-151l-100 295h-88z" />
    <glyph glyph-name="infinity" unicode="&#x221e;" horiz-adv-x="616" 
d="M28 303v64q0 133 133 133h75q38 0 72 -34q34 34 72 34h75q133 0 133 -133v-64q0 -133 -133 -133h-75q-38 0 -72 34q-34 -34 -72 -34h-75q-133 0 -133 133zM158 292q0 -4 4 -4h77q4 0 4 4v86q0 4 -4 4h-77q-4 0 -4 -4v-86zM373 292q0 -4 4 -4h77q4 0 4 4v86q0 4 -4 4h-77
q-4 0 -4 -4v-86z" />
    <glyph glyph-name="integral" unicode="&#x222b;" horiz-adv-x="507" 
d="M20 -55h137q13 0 13 13v614q0 168 168 168h79l70 -52v-93h-137q-13 0 -13 -13v-614q0 -168 -168 -168h-79l-70 52v93z" />
    <glyph glyph-name="approxequal" unicode="&#x2248;" 
d="M24 210l96 96q36 36 89 36t89 -36l62 -62q5 -5 9 -5t9 5l76 76l100 -100l-96 -96q-36 -36 -89 -36t-89 36l-62 62q-5 5 -9 5t-9 -5l-76 -76zM24 450l96 96q36 36 89 36t89 -36l62 -62q5 -5 9 -5t9 5l76 76l100 -100l-96 -96q-36 -36 -89 -36t-89 36l-62 62q-5 5 -9 5
t-9 -5l-76 -76z" />
    <glyph glyph-name="notequal" unicode="&#x2260;" 
d="M58 154v142h139l40 78h-179v142h251l53 106l115 -60l-24 -46h67v-142h-139l-40 -78h179v-142h-251l-53 -106l-115 60l24 46h-67z" />
    <glyph glyph-name="lessequal" unicode="&#x2264;" 
d="M58 0v142h462v-142h-462zM64 358v156l405 194l60 -126l-311 -146l311 -146l-60 -126z" />
    <glyph glyph-name="greaterequal" unicode="&#x2265;" 
d="M58 0v142h462v-142h-462zM49 290l311 146l-311 146l60 126l405 -194v-156l-405 -194z" />
    <glyph glyph-name="lozenge" unicode="&#x25ca;" 
d="M16 345l198 345h150l198 -345l-198 -345h-150zM166 345l123 -215l123 215l-123 215z" />
    <glyph glyph-name="uniF000" unicode="&#xf000;" horiz-adv-x="700" 
d="M50 605h600l-300 -520z" />
    <glyph glyph-name="uniFB01" unicode="&#xfb01;" horiz-adv-x="731" 
d="M68 0v572q0 168 168 168h102l70 -52v-93h-160q-13 0 -13 -13v-50h163v-145h-163v-387h-167zM494 614v155h171v-155h-171zM496 0v532h167v-532h-167z" />
    <glyph glyph-name="uniFB02" unicode="&#xfb02;" horiz-adv-x="763" 
d="M68 0v572q0 168 168 168h102l70 -52v-93h-160q-13 0 -13 -13v-50h163v-145h-163v-387h-167zM492 217v523h167v-540q0 -59 61 -66v-145q-228 0 -228 228z" />
    <glyph glyph-name="uni030C.alt" horiz-adv-x="0" 
d="M-80 578l38 194h106l16 -24l-64 -194z" />
    <glyph glyph-name="uni0326.alt" horiz-adv-x="0" 
d="M-59 630l55 134l111 -32l-29 -126h-120z" />
    <glyph glyph-name="uni0300.cap" horiz-adv-x="0" 
d="M-470 880l88 83l144 -163l-78 -74z" />
    <glyph glyph-name="uni0301.cap" horiz-adv-x="0" 
d="M-432 800l144 163l88 -83l-154 -154z" />
    <glyph glyph-name="uni0302.cap" horiz-adv-x="0" 
d="M-502 800l167 163l167 -163l-70 -73l-97 93l-97 -93z" />
    <glyph glyph-name="uni0303.cap" horiz-adv-x="0" 
d="M-523 807l72 72q22 22 60 22t60 -22l47 -47q3 -3 5 -3t5 3l58 58l69 -69l-72 -72q-22 -22 -60 -22t-60 22l-47 47q-3 3 -5 3t-5 -3l-58 -58z" />
    <glyph glyph-name="uni0304.cap" horiz-adv-x="0" 
d="M-489 762v112h308v-112h-308z" />
    <glyph glyph-name="uni0306.cap" horiz-adv-x="0" 
d="M-479 834v69h92v-63q0 -4 4 -4h96q4 0 4 4v63h92v-69q0 -91 -91 -91h-106q-91 0 -91 91z" />
    <glyph glyph-name="uni0307.cap" horiz-adv-x="0" 
d="M-420 762v155h170v-155h-170z" />
    <glyph glyph-name="uni0308.cap" horiz-adv-x="0" 
d="M-510 746v142h140v-142h-140zM-300 746v142h140v-142h-140z" />
    <glyph glyph-name="uni030A.cap" horiz-adv-x="0" 
d="M-458 800v60q0 84 85 84h76q85 0 85 -84v-60q0 -84 -85 -84h-76q-85 0 -85 84zM-367 798q0 -4 4 -4h56q4 0 4 4v64q0 4 -4 4h-56q-4 0 -4 -4v-64z" />
    <glyph glyph-name="uni030B.cap" horiz-adv-x="0" 
d="M-517 790l118 173l95 -71l-130 -166zM-322 790l118 173l94 -71l-129 -166z" />
    <glyph glyph-name="uni030C.cap" horiz-adv-x="0" 
d="M-502 880l70 73l97 -93l97 93l70 -73l-167 -163z" />
    <glyph glyph-name="one.pnum" 
d="M74 0v157h144v376h-124v97l78 60h220v-533h128v-157h-446z" />
    <glyph glyph-name="four.pnum" 
d="M46 88v142l201 460h148l20 -35l-179 -409h122v184h174v-430h-174v88h-312z" />
    <glyph glyph-name="seven.pnum" 
d="M46 533v157h486v-235l-238 -455h-156l-20 35l240 455v43h-312z" />
    <glyph glyph-name="zero.zero" 
d="M46 176v338q0 176 176 176h134q176 0 176 -176v-338q0 -176 -176 -176h-134q-176 0 -176 176zM220 168q0 -11 11 -11h116q11 0 11 11v354q0 11 -11 11h-116q-11 0 -11 -11v-354zM254 273v144h70v-144h-70z" />
    </font>
</defs>
</svg>
