<svg width="24" height="25" viewBox="0 0 24 25" fill="none" xmlns="http://www.w3.org/2000/svg">
<g clip-path="url(#clip0_2234_9254)">
<path d="M24 12.9814C24 6.35402 18.6274 0.981445 12 0.981445C5.37258 0.981445 0 6.35402 0 12.9814C0 18.9709 4.3882 23.9354 10.125 24.8357V16.4502H7.07812V12.9814H10.125V10.3377C10.125 7.3302 11.9166 5.66895 14.6576 5.66895C15.9701 5.66895 17.3438 5.90332 17.3438 5.90332V8.85645H15.8306C14.34 8.85645 13.875 9.78152 13.875 10.7314V12.9814H17.2031L16.6711 16.4502H13.875V24.8357C19.6118 23.9354 24 18.9709 24 12.9814Z" fill="#98A2B3"/>
</g>
<defs>
<clipPath id="clip0_2234_9254">
<rect width="24" height="24" fill="white" transform="translate(0 0.981445)"/>
</clipPath>
</defs>
</svg>
