<svg width="24" height="25" viewBox="0 0 24 25" fill="none" xmlns="http://www.w3.org/2000/svg">
<path fill-rule="evenodd" clip-rule="evenodd" d="M21.98 2.97807C22.5843 3.5821 23.0558 4.30565 23.3643 5.10239C23.72 6.04763 23.9099 7.04722 23.9254 8.05707C24 9.33251 24 9.74566 24 13.0015C24 16.2574 23.9827 16.6639 23.9254 17.946C23.9054 18.9429 23.7175 19.9265 23.3669 20.8594C23.058 21.656 22.5864 22.3795 21.9822 22.9837C21.378 23.5879 20.6545 24.0595 19.8578 24.3685C18.9252 24.7178 17.9402 24.9067 16.9445 24.9269C15.6717 25.0002 15.2546 25.0002 12 25.0002C8.74545 25.0002 8.33896 24.9829 7.05553 24.9269C6.0578 24.8941 5.07299 24.6913 4.14349 24.3272C3.3466 24.0187 2.6228 23.5475 2.01835 22.9435C1.4139 22.3395 0.942085 21.6161 0.633052 20.8194C0.282541 19.8852 0.0946246 18.9016 0.0746335 17.9047C0 16.6293 0 16.2148 0 12.9602C0 9.70434 0.0173256 9.29785 0.0746335 8.01576C0.0941109 7.01998 0.282947 6.03479 0.633052 5.10239C0.94122 4.30544 1.41258 3.58171 2.01688 2.97763C2.62119 2.37356 3.34509 1.90247 4.14216 1.59461C5.07342 1.24357 6.05783 1.05426 7.05287 1.03486C8.32563 0.962891 8.74278 0.962891 11.9973 0.962891C15.2519 0.962891 15.6584 0.978883 16.9418 1.03486C17.9376 1.0553 18.9227 1.24457 19.8552 1.59461C20.652 1.90283 21.3758 2.37404 21.98 2.97807ZM21.3265 20.0557C21.5922 19.335 21.7324 18.5741 21.741 17.8061V17.8074H21.7557C21.813 16.5333 21.813 16.1841 21.813 12.9376C21.813 9.68968 21.7983 9.33384 21.741 8.0664C21.7286 7.30695 21.5885 6.55501 21.3265 5.84206C21.1262 5.32372 20.8198 4.85297 20.4269 4.46004C20.034 4.06711 19.5632 3.76068 19.0449 3.5604C18.3323 3.29528 17.5794 3.15507 16.8192 3.14592C15.5304 3.07262 15.1972 3.07262 11.9494 3.07262C8.70147 3.07262 8.34562 3.08861 7.07819 3.14592C6.31856 3.15653 5.56631 3.29671 4.85384 3.5604C3.80231 3.96289 2.96935 4.79052 2.56286 5.84206C2.29719 6.5623 2.15699 7.32276 2.14838 8.09039C2.07774 9.38181 2.07774 9.71367 2.07774 12.9615V12.9616C2.07774 16.2081 2.09107 16.5653 2.14838 17.8314C2.16079 18.5908 2.30091 19.3428 2.56286 20.0557C2.76389 20.575 3.07167 21.0463 3.46631 21.4391C3.86095 21.8319 4.33366 22.1375 4.85384 22.3361C5.56596 22.601 6.31843 22.7412 7.07819 22.7505C8.36828 22.8238 8.70013 22.8238 11.9494 22.8238C15.1959 22.8238 15.5531 22.8092 16.8192 22.7505C17.5793 22.7407 18.3322 22.6005 19.0449 22.3361C19.5632 22.1362 20.0341 21.8301 20.427 21.4374C20.82 21.0446 21.1264 20.574 21.3265 20.0557ZM18.3972 7.99974C19.1907 7.99974 19.8339 7.35651 19.8339 6.56305C19.8339 5.76958 19.1907 5.12635 18.3972 5.12635C17.6037 5.12635 16.9605 5.76958 16.9605 6.56305C16.9605 7.35651 17.6037 7.99974 18.3972 7.99974ZM11.9907 6.78951C10.3562 6.78951 8.78875 7.43878 7.63304 8.59449C6.47733 9.7502 5.82805 11.3177 5.82805 12.9521C5.82805 14.5865 6.47733 16.154 7.63304 17.3097C8.78875 18.4654 10.3562 19.1147 11.9907 19.1147C13.6251 19.1147 15.1926 18.4654 16.3483 17.3097C17.504 16.154 18.1532 14.5865 18.1532 12.9521C18.1532 11.3177 17.504 9.7502 16.3483 8.59449C15.1926 7.43878 13.6251 6.78951 11.9907 6.78951ZM11.9907 16.9543C10.9288 16.9543 9.91052 16.5325 9.15971 15.7817C8.4089 15.0309 7.9871 14.0126 7.9871 12.9508C7.9871 11.889 8.4089 10.8706 9.15971 10.1198C9.91052 9.36902 10.9288 8.94722 11.9907 8.94722C13.0525 8.94722 14.0708 9.36902 14.8216 10.1198C15.5724 10.8706 15.9942 11.889 15.9942 12.9508C15.9942 14.0126 15.5724 15.0309 14.8216 15.7817C14.0708 16.5325 13.0525 16.9543 11.9907 16.9543Z" fill="#98A2B3"/>
</svg>
