<svg width="16" height="16" viewBox="0 0 16 16" fill="none" xmlns="http://www.w3.org/2000/svg">
<path d="M14.6663 4C14.6663 5.10457 13.7709 6 12.6663 6C11.5618 6 10.6663 5.10457 10.6663 4C10.6663 2.89543 11.5618 2 12.6663 2C13.7709 2 14.6663 2.89543 14.6663 4Z" fill="#1C274C"/>
<path fill-rule="evenodd" clip-rule="evenodd" d="M9.33301 3.33333H6.66634C4.15218 3.33333 2.89511 3.33333 2.11406 4.11438C1.33301 4.89543 1.33301 6.15251 1.33301 8.66667C1.33301 11.1808 1.33301 12.4379 2.11406 13.219C2.89511 14 4.15218 14 6.66634 14H9.33301C11.8472 14 13.1042 14 13.8853 13.219C14.6663 12.4379 14.6663 11.1808 14.6663 8.66667C14.6663 7.69776 14.6663 6.91555 14.6216 6.27533C14.0965 6.727 13.4133 7 12.6663 7C12.3472 7 12.0397 6.95017 11.7512 6.85787L10.8554 7.60438C10.2645 8.09682 9.7856 8.49595 9.36289 8.76782C8.92256 9.05102 8.49373 9.22992 7.99967 9.22992C7.50562 9.22992 7.07679 9.05102 6.63646 8.76782C6.21375 8.49595 5.73482 8.09682 5.14391 7.60439L3.67958 6.38411C3.46744 6.20733 3.43878 5.89205 3.61556 5.67991C3.79235 5.46777 4.10763 5.43911 4.31977 5.61589L5.75903 6.81528C6.381 7.33359 6.81283 7.69228 7.1774 7.92675C7.5303 8.15373 7.76963 8.22992 7.99967 8.22992C8.22972 8.22992 8.46905 8.15373 8.82195 7.92675C9.18652 7.69228 9.61835 7.33359 10.2403 6.81527L10.8 6.3489C10.1092 5.79929 9.66634 4.95136 9.66634 4C9.66634 3.77092 9.69202 3.54783 9.74065 3.33347C9.60856 3.33333 9.47273 3.33333 9.33301 3.33333Z" fill="#E7E7E8"/>
<path fill-rule="evenodd" clip-rule="evenodd" d="M9.33301 3.33333H6.66634C4.15218 3.33333 2.89511 3.33333 2.11406 4.11438C1.33301 4.89543 1.33301 6.15251 1.33301 8.66667C1.33301 11.1808 1.33301 12.4379 2.11406 13.219C2.89511 14 4.15218 14 6.66634 14H9.33301C11.8472 14 13.1042 14 13.8853 13.219C14.6663 12.4379 14.6663 11.1808 14.6663 8.66667C14.6663 7.69776 14.6663 6.91555 14.6216 6.27533C14.0965 6.727 13.4133 7 12.6663 7C12.3472 7 12.0397 6.95017 11.7512 6.85787L10.8554 7.60438C10.2645 8.09682 9.7856 8.49595 9.36289 8.76782C8.92256 9.05102 8.49373 9.22992 7.99967 9.22992C7.50562 9.22992 7.07679 9.05102 6.63646 8.76782C6.21375 8.49595 5.73482 8.09682 5.14391 7.60439L3.67958 6.38411C3.46744 6.20733 3.43878 5.89205 3.61556 5.67991C3.79235 5.46777 4.10763 5.43911 4.31977 5.61589L5.75903 6.81528C6.381 7.33359 6.81283 7.69228 7.1774 7.92675C7.5303 8.15373 7.76963 8.22992 7.99967 8.22992C8.22972 8.22992 8.46905 8.15373 8.82195 7.92675C9.18652 7.69228 9.61835 7.33359 10.2403 6.81527L10.8 6.3489C10.1092 5.79929 9.66634 4.95136 9.66634 4C9.66634 3.77092 9.69202 3.54783 9.74065 3.33347C9.60856 3.33333 9.47273 3.33333 9.33301 3.33333Z" fill="#E7E7E8" fill-opacity="0.8"/>
<path fill-rule="evenodd" clip-rule="evenodd" d="M9.33301 3.33333H6.66634C4.15218 3.33333 2.89511 3.33333 2.11406 4.11438C1.33301 4.89543 1.33301 6.15251 1.33301 8.66667C1.33301 11.1808 1.33301 12.4379 2.11406 13.219C2.89511 14 4.15218 14 6.66634 14H9.33301C11.8472 14 13.1042 14 13.8853 13.219C14.6663 12.4379 14.6663 11.1808 14.6663 8.66667C14.6663 7.69776 14.6663 6.91555 14.6216 6.27533C14.0965 6.727 13.4133 7 12.6663 7C12.3472 7 12.0397 6.95017 11.7512 6.85787L10.8554 7.60438C10.2645 8.09682 9.7856 8.49595 9.36289 8.76782C8.92256 9.05102 8.49373 9.22992 7.99967 9.22992C7.50562 9.22992 7.07679 9.05102 6.63646 8.76782C6.21375 8.49595 5.73482 8.09682 5.14391 7.60439L3.67958 6.38411C3.46744 6.20733 3.43878 5.89205 3.61556 5.67991C3.79235 5.46777 4.10763 5.43911 4.31977 5.61589L5.75903 6.81528C6.381 7.33359 6.81283 7.69228 7.1774 7.92675C7.5303 8.15373 7.76963 8.22992 7.99967 8.22992C8.22972 8.22992 8.46905 8.15373 8.82195 7.92675C9.18652 7.69228 9.61835 7.33359 10.2403 6.81527L10.8 6.3489C10.1092 5.79929 9.66634 4.95136 9.66634 4C9.66634 3.77092 9.69202 3.54783 9.74065 3.33347C9.60856 3.33333 9.47273 3.33333 9.33301 3.33333Z" fill="#E7E7E8" fill-opacity="0.6"/>
<path fill-rule="evenodd" clip-rule="evenodd" d="M9.33301 3.33333H6.66634C4.15218 3.33333 2.89511 3.33333 2.11406 4.11438C1.33301 4.89543 1.33301 6.15251 1.33301 8.66667C1.33301 11.1808 1.33301 12.4379 2.11406 13.219C2.89511 14 4.15218 14 6.66634 14H9.33301C11.8472 14 13.1042 14 13.8853 13.219C14.6663 12.4379 14.6663 11.1808 14.6663 8.66667C14.6663 7.69776 14.6663 6.91555 14.6216 6.27533C14.0965 6.727 13.4133 7 12.6663 7C12.3472 7 12.0397 6.95017 11.7512 6.85787L10.8554 7.60438C10.2645 8.09682 9.7856 8.49595 9.36289 8.76782C8.92256 9.05102 8.49373 9.22992 7.99967 9.22992C7.50562 9.22992 7.07679 9.05102 6.63646 8.76782C6.21375 8.49595 5.73482 8.09682 5.14391 7.60439L3.67958 6.38411C3.46744 6.20733 3.43878 5.89205 3.61556 5.67991C3.79235 5.46777 4.10763 5.43911 4.31977 5.61589L5.75903 6.81528C6.381 7.33359 6.81283 7.69228 7.1774 7.92675C7.5303 8.15373 7.76963 8.22992 7.99967 8.22992C8.22972 8.22992 8.46905 8.15373 8.82195 7.92675C9.18652 7.69228 9.61835 7.33359 10.2403 6.81527L10.8 6.3489C10.1092 5.79929 9.66634 4.95136 9.66634 4C9.66634 3.77092 9.69202 3.54783 9.74065 3.33347C9.60856 3.33333 9.47273 3.33333 9.33301 3.33333Z" fill="#E7E7E8" fill-opacity="0.4"/>
<path fill-rule="evenodd" clip-rule="evenodd" d="M9.33301 3.33333H6.66634C4.15218 3.33333 2.89511 3.33333 2.11406 4.11438C1.33301 4.89543 1.33301 6.15251 1.33301 8.66667C1.33301 11.1808 1.33301 12.4379 2.11406 13.219C2.89511 14 4.15218 14 6.66634 14H9.33301C11.8472 14 13.1042 14 13.8853 13.219C14.6663 12.4379 14.6663 11.1808 14.6663 8.66667C14.6663 7.69776 14.6663 6.91555 14.6216 6.27533C14.0965 6.727 13.4133 7 12.6663 7C12.3472 7 12.0397 6.95017 11.7512 6.85787L10.8554 7.60438C10.2645 8.09682 9.7856 8.49595 9.36289 8.76782C8.92256 9.05102 8.49373 9.22992 7.99967 9.22992C7.50562 9.22992 7.07679 9.05102 6.63646 8.76782C6.21375 8.49595 5.73482 8.09682 5.14391 7.60439L3.67958 6.38411C3.46744 6.20733 3.43878 5.89205 3.61556 5.67991C3.79235 5.46777 4.10763 5.43911 4.31977 5.61589L5.75903 6.81528C6.381 7.33359 6.81283 7.69228 7.1774 7.92675C7.5303 8.15373 7.76963 8.22992 7.99967 8.22992C8.22972 8.22992 8.46905 8.15373 8.82195 7.92675C9.18652 7.69228 9.61835 7.33359 10.2403 6.81527L10.8 6.3489C10.1092 5.79929 9.66634 4.95136 9.66634 4C9.66634 3.77092 9.69202 3.54783 9.74065 3.33347C9.60856 3.33333 9.47273 3.33333 9.33301 3.33333Z" fill="#E7E7E8" fill-opacity="0.2"/>
</svg>
