<svg width="24" height="25" viewBox="0 0 24 25" fill="none" xmlns="http://www.w3.org/2000/svg">
<g clip-path="url(#clip0_2234_9253)">
<path d="M22.2234 0.981445H1.77187C0.792187 0.981445 0 1.75488 0 2.71113V23.2471C0 24.2033 0.792187 24.9814 1.77187 24.9814H22.2234C23.2031 24.9814 24 24.2033 24 23.2518V2.71113C24 1.75488 23.2031 0.981445 22.2234 0.981445ZM7.12031 21.433H3.55781V9.97676H7.12031V21.433ZM5.33906 8.41582C4.19531 8.41582 3.27188 7.49238 3.27188 6.35332C3.27188 5.21426 4.19531 4.29082 5.33906 4.29082C6.47813 4.29082 7.40156 5.21426 7.40156 6.35332C7.40156 7.4877 6.47813 8.41582 5.33906 8.41582ZM20.4516 21.433H16.8937V15.8643C16.8937 14.5377 16.8703 12.8268 15.0422 12.8268C13.1906 12.8268 12.9094 14.2752 12.9094 15.7705V21.433H9.35625V9.97676H12.7687V11.5424H12.8156C13.2891 10.6424 14.4516 9.69082 16.1813 9.69082C19.7859 9.69082 20.4516 12.0627 20.4516 15.1471V21.433Z" fill="#98A2B3"/>
</g>
<defs>
<clipPath id="clip0_2234_9253">
<rect width="24" height="24" fill="white" transform="translate(0 0.981445)"/>
</clipPath>
</defs>
</svg>
