<svg width="16" height="16" viewBox="0 0 16 16" fill="none" xmlns="http://www.w3.org/2000/svg">
<path d="M7.99967 14.6667C11.6816 14.6667 14.6663 13.3236 14.6663 11.6667C14.6663 10.8223 13.891 10.0593 12.6433 9.51416C11.8819 10.9114 10.7208 12.1157 9.24602 12.746C8.45329 13.0847 7.54606 13.0847 6.75333 12.746C5.27853 12.1157 4.11745 10.9114 3.35606 9.51416C2.10831 10.0593 1.33301 10.8223 1.33301 11.6667C1.33301 13.3236 4.31778 14.6667 7.99967 14.6667Z" fill="#E7E7E8"/>
<path d="M7.99967 14.6667C11.6816 14.6667 14.6663 13.3236 14.6663 11.6667C14.6663 10.8223 13.891 10.0593 12.6433 9.51416C11.8819 10.9114 10.7208 12.1157 9.24602 12.746C8.45329 13.0847 7.54606 13.0847 6.75333 12.746C5.27853 12.1157 4.11745 10.9114 3.35606 9.51416C2.10831 10.0593 1.33301 10.8223 1.33301 11.6667C1.33301 13.3236 4.31778 14.6667 7.99967 14.6667Z" fill="#E7E7E8" fill-opacity="0.8"/>
<path d="M7.99967 14.6667C11.6816 14.6667 14.6663 13.3236 14.6663 11.6667C14.6663 10.8223 13.891 10.0593 12.6433 9.51416C11.8819 10.9114 10.7208 12.1157 9.24602 12.746C8.45329 13.0847 7.54606 13.0847 6.75333 12.746C5.27853 12.1157 4.11745 10.9114 3.35606 9.51416C2.10831 10.0593 1.33301 10.8223 1.33301 11.6667C1.33301 13.3236 4.31778 14.6667 7.99967 14.6667Z" fill="#E7E7E8" fill-opacity="0.6"/>
<path d="M7.99967 14.6667C11.6816 14.6667 14.6663 13.3236 14.6663 11.6667C14.6663 10.8223 13.891 10.0593 12.6433 9.51416C11.8819 10.9114 10.7208 12.1157 9.24602 12.746C8.45329 13.0847 7.54606 13.0847 6.75333 12.746C5.27853 12.1157 4.11745 10.9114 3.35606 9.51416C2.10831 10.0593 1.33301 10.8223 1.33301 11.6667C1.33301 13.3236 4.31778 14.6667 7.99967 14.6667Z" fill="#E7E7E8" fill-opacity="0.4"/>
<path d="M7.99967 14.6667C11.6816 14.6667 14.6663 13.3236 14.6663 11.6667C14.6663 10.8223 13.891 10.0593 12.6433 9.51416C11.8819 10.9114 10.7208 12.1157 9.24602 12.746C8.45329 13.0847 7.54606 13.0847 6.75333 12.746C5.27853 12.1157 4.11745 10.9114 3.35606 9.51416C2.10831 10.0593 1.33301 10.8223 1.33301 11.6667C1.33301 13.3236 4.31778 14.6667 7.99967 14.6667Z" fill="#E7E7E8" fill-opacity="0.2"/>
<path fill-rule="evenodd" clip-rule="evenodd" d="M3.33301 5.67659C3.33301 3.27796 5.42235 1.3335 7.99967 1.3335C10.577 1.3335 12.6663 3.27796 12.6663 5.67659C12.6663 8.05641 11.1769 10.8334 8.85305 11.8265C8.31132 12.058 7.68802 12.058 7.1463 11.8265C4.82245 10.8334 3.33301 8.05641 3.33301 5.67659ZM7.99967 7.3335C8.73605 7.3335 9.33301 6.73654 9.33301 6.00016C9.33301 5.26378 8.73605 4.66683 7.99967 4.66683C7.26329 4.66683 6.66634 5.26378 6.66634 6.00016C6.66634 6.73654 7.26329 7.3335 7.99967 7.3335Z" fill="#E7E7E8"/>
<path fill-rule="evenodd" clip-rule="evenodd" d="M3.33301 5.67659C3.33301 3.27796 5.42235 1.3335 7.99967 1.3335C10.577 1.3335 12.6663 3.27796 12.6663 5.67659C12.6663 8.05641 11.1769 10.8334 8.85305 11.8265C8.31132 12.058 7.68802 12.058 7.1463 11.8265C4.82245 10.8334 3.33301 8.05641 3.33301 5.67659ZM7.99967 7.3335C8.73605 7.3335 9.33301 6.73654 9.33301 6.00016C9.33301 5.26378 8.73605 4.66683 7.99967 4.66683C7.26329 4.66683 6.66634 5.26378 6.66634 6.00016C6.66634 6.73654 7.26329 7.3335 7.99967 7.3335Z" fill="#E7E7E8" fill-opacity="0.8"/>
<path fill-rule="evenodd" clip-rule="evenodd" d="M3.33301 5.67659C3.33301 3.27796 5.42235 1.3335 7.99967 1.3335C10.577 1.3335 12.6663 3.27796 12.6663 5.67659C12.6663 8.05641 11.1769 10.8334 8.85305 11.8265C8.31132 12.058 7.68802 12.058 7.1463 11.8265C4.82245 10.8334 3.33301 8.05641 3.33301 5.67659ZM7.99967 7.3335C8.73605 7.3335 9.33301 6.73654 9.33301 6.00016C9.33301 5.26378 8.73605 4.66683 7.99967 4.66683C7.26329 4.66683 6.66634 5.26378 6.66634 6.00016C6.66634 6.73654 7.26329 7.3335 7.99967 7.3335Z" fill="#E7E7E8" fill-opacity="0.6"/>
<path fill-rule="evenodd" clip-rule="evenodd" d="M3.33301 5.67659C3.33301 3.27796 5.42235 1.3335 7.99967 1.3335C10.577 1.3335 12.6663 3.27796 12.6663 5.67659C12.6663 8.05641 11.1769 10.8334 8.85305 11.8265C8.31132 12.058 7.68802 12.058 7.1463 11.8265C4.82245 10.8334 3.33301 8.05641 3.33301 5.67659ZM7.99967 7.3335C8.73605 7.3335 9.33301 6.73654 9.33301 6.00016C9.33301 5.26378 8.73605 4.66683 7.99967 4.66683C7.26329 4.66683 6.66634 5.26378 6.66634 6.00016C6.66634 6.73654 7.26329 7.3335 7.99967 7.3335Z" fill="#E7E7E8" fill-opacity="0.4"/>
<path fill-rule="evenodd" clip-rule="evenodd" d="M3.33301 5.67659C3.33301 3.27796 5.42235 1.3335 7.99967 1.3335C10.577 1.3335 12.6663 3.27796 12.6663 5.67659C12.6663 8.05641 11.1769 10.8334 8.85305 11.8265C8.31132 12.058 7.68802 12.058 7.1463 11.8265C4.82245 10.8334 3.33301 8.05641 3.33301 5.67659ZM7.99967 7.3335C8.73605 7.3335 9.33301 6.73654 9.33301 6.00016C9.33301 5.26378 8.73605 4.66683 7.99967 4.66683C7.26329 4.66683 6.66634 5.26378 6.66634 6.00016C6.66634 6.73654 7.26329 7.3335 7.99967 7.3335Z" fill="#E7E7E8" fill-opacity="0.2"/>
</svg>
