<svg width="16" height="17" viewBox="0 0 16 17" fill="none" xmlns="http://www.w3.org/2000/svg">
<path d="M10.3708 10.1985L10.0671 10.5181C10.0671 10.5181 9.34542 11.278 7.37541 9.20393C5.40541 7.12989 6.12714 6.37005 6.12714 6.37005L6.31835 6.16874C6.78938 5.67283 6.83379 4.87664 6.42283 4.2954L5.58217 3.10641C5.07352 2.387 4.09064 2.29197 3.50763 2.90576L2.46123 4.00742C2.17215 4.31177 1.97843 4.7063 2.00193 5.14396C2.06202 6.26364 2.54048 8.6727 5.21024 11.4835C8.04143 14.4642 10.6979 14.5826 11.7842 14.4754C12.1278 14.4415 12.4266 14.2562 12.6674 14.0027L13.6144 13.0056C14.2537 12.3326 14.0735 11.1788 13.2556 10.708L11.9819 9.97488C11.4448 9.66576 10.7905 9.75656 10.3708 10.1985Z" fill="#E7E7E8"/>
<path d="M10.3708 10.1985L10.0671 10.5181C10.0671 10.5181 9.34542 11.278 7.37541 9.20393C5.40541 7.12989 6.12714 6.37005 6.12714 6.37005L6.31835 6.16874C6.78938 5.67283 6.83379 4.87664 6.42283 4.2954L5.58217 3.10641C5.07352 2.387 4.09064 2.29197 3.50763 2.90576L2.46123 4.00742C2.17215 4.31177 1.97843 4.7063 2.00193 5.14396C2.06202 6.26364 2.54048 8.6727 5.21024 11.4835C8.04143 14.4642 10.6979 14.5826 11.7842 14.4754C12.1278 14.4415 12.4266 14.2562 12.6674 14.0027L13.6144 13.0056C14.2537 12.3326 14.0735 11.1788 13.2556 10.708L11.9819 9.97488C11.4448 9.66576 10.7905 9.75656 10.3708 10.1985Z" fill="#E7E7E8" fill-opacity="0.8"/>
<path d="M10.3708 10.1985L10.0671 10.5181C10.0671 10.5181 9.34542 11.278 7.37541 9.20393C5.40541 7.12989 6.12714 6.37005 6.12714 6.37005L6.31835 6.16874C6.78938 5.67283 6.83379 4.87664 6.42283 4.2954L5.58217 3.10641C5.07352 2.387 4.09064 2.29197 3.50763 2.90576L2.46123 4.00742C2.17215 4.31177 1.97843 4.7063 2.00193 5.14396C2.06202 6.26364 2.54048 8.6727 5.21024 11.4835C8.04143 14.4642 10.6979 14.5826 11.7842 14.4754C12.1278 14.4415 12.4266 14.2562 12.6674 14.0027L13.6144 13.0056C14.2537 12.3326 14.0735 11.1788 13.2556 10.708L11.9819 9.97488C11.4448 9.66576 10.7905 9.75656 10.3708 10.1985Z" fill="#E7E7E8" fill-opacity="0.6"/>
<path d="M10.3708 10.1985L10.0671 10.5181C10.0671 10.5181 9.34542 11.278 7.37541 9.20393C5.40541 7.12989 6.12714 6.37005 6.12714 6.37005L6.31835 6.16874C6.78938 5.67283 6.83379 4.87664 6.42283 4.2954L5.58217 3.10641C5.07352 2.387 4.09064 2.29197 3.50763 2.90576L2.46123 4.00742C2.17215 4.31177 1.97843 4.7063 2.00193 5.14396C2.06202 6.26364 2.54048 8.6727 5.21024 11.4835C8.04143 14.4642 10.6979 14.5826 11.7842 14.4754C12.1278 14.4415 12.4266 14.2562 12.6674 14.0027L13.6144 13.0056C14.2537 12.3326 14.0735 11.1788 13.2556 10.708L11.9819 9.97488C11.4448 9.66576 10.7905 9.75656 10.3708 10.1985Z" fill="#E7E7E8" fill-opacity="0.4"/>
<path d="M10.3708 10.1985L10.0671 10.5181C10.0671 10.5181 9.34542 11.278 7.37541 9.20393C5.40541 7.12989 6.12714 6.37005 6.12714 6.37005L6.31835 6.16874C6.78938 5.67283 6.83379 4.87664 6.42283 4.2954L5.58217 3.10641C5.07352 2.387 4.09064 2.29197 3.50763 2.90576L2.46123 4.00742C2.17215 4.31177 1.97843 4.7063 2.00193 5.14396C2.06202 6.26364 2.54048 8.6727 5.21024 11.4835C8.04143 14.4642 10.6979 14.5826 11.7842 14.4754C12.1278 14.4415 12.4266 14.2562 12.6674 14.0027L13.6144 13.0056C14.2537 12.3326 14.0735 11.1788 13.2556 10.708L11.9819 9.97488C11.4448 9.66576 10.7905 9.75656 10.3708 10.1985Z" fill="#E7E7E8" fill-opacity="0.2"/>
<path d="M8.83933 1.75338C8.88346 1.48079 9.14116 1.29587 9.41375 1.34001C9.43062 1.34324 9.48491 1.35338 9.51336 1.35972C9.57024 1.37239 9.6496 1.39189 9.74853 1.42071C9.94639 1.47834 10.2228 1.57327 10.5545 1.72536C11.2187 2.02987 12.1026 2.56254 13.0198 3.47974C13.937 4.39694 14.4697 5.28081 14.7742 5.945C14.9263 6.27674 15.0212 6.55314 15.0788 6.751C15.1076 6.84993 15.1271 6.92929 15.1398 6.98617C15.1461 7.01462 15.1508 7.03746 15.154 7.05433L15.1578 7.07513C15.202 7.34772 15.0187 7.61607 14.7461 7.6602C14.4743 7.7042 14.2183 7.52018 14.1731 7.24887C14.1717 7.24158 14.1678 7.22201 14.1637 7.20355C14.1555 7.16663 14.1413 7.10808 14.1187 7.03065C14.0736 6.87575 13.9952 6.64553 13.8651 6.36175C13.6053 5.79488 13.1379 5.01209 12.3127 4.18684C11.4874 3.3616 10.7047 2.89427 10.1378 2.63439C9.854 2.50428 9.62378 2.42593 9.46888 2.38081C9.39145 2.35826 9.29412 2.33592 9.2572 2.32769C8.98588 2.28248 8.79533 2.0252 8.83933 1.75338Z" fill="#E7E7E8"/>
<path d="M8.83933 1.75338C8.88346 1.48079 9.14116 1.29587 9.41375 1.34001C9.43062 1.34324 9.48491 1.35338 9.51336 1.35972C9.57024 1.37239 9.6496 1.39189 9.74853 1.42071C9.94639 1.47834 10.2228 1.57327 10.5545 1.72536C11.2187 2.02987 12.1026 2.56254 13.0198 3.47974C13.937 4.39694 14.4697 5.28081 14.7742 5.945C14.9263 6.27674 15.0212 6.55314 15.0788 6.751C15.1076 6.84993 15.1271 6.92929 15.1398 6.98617C15.1461 7.01462 15.1508 7.03746 15.154 7.05433L15.1578 7.07513C15.202 7.34772 15.0187 7.61607 14.7461 7.6602C14.4743 7.7042 14.2183 7.52018 14.1731 7.24887C14.1717 7.24158 14.1678 7.22201 14.1637 7.20355C14.1555 7.16663 14.1413 7.10808 14.1187 7.03065C14.0736 6.87575 13.9952 6.64553 13.8651 6.36175C13.6053 5.79488 13.1379 5.01209 12.3127 4.18684C11.4874 3.3616 10.7047 2.89427 10.1378 2.63439C9.854 2.50428 9.62378 2.42593 9.46888 2.38081C9.39145 2.35826 9.29412 2.33592 9.2572 2.32769C8.98588 2.28248 8.79533 2.0252 8.83933 1.75338Z" fill="#E7E7E8" fill-opacity="0.8"/>
<path d="M8.83933 1.75338C8.88346 1.48079 9.14116 1.29587 9.41375 1.34001C9.43062 1.34324 9.48491 1.35338 9.51336 1.35972C9.57024 1.37239 9.6496 1.39189 9.74853 1.42071C9.94639 1.47834 10.2228 1.57327 10.5545 1.72536C11.2187 2.02987 12.1026 2.56254 13.0198 3.47974C13.937 4.39694 14.4697 5.28081 14.7742 5.945C14.9263 6.27674 15.0212 6.55314 15.0788 6.751C15.1076 6.84993 15.1271 6.92929 15.1398 6.98617C15.1461 7.01462 15.1508 7.03746 15.154 7.05433L15.1578 7.07513C15.202 7.34772 15.0187 7.61607 14.7461 7.6602C14.4743 7.7042 14.2183 7.52018 14.1731 7.24887C14.1717 7.24158 14.1678 7.22201 14.1637 7.20355C14.1555 7.16663 14.1413 7.10808 14.1187 7.03065C14.0736 6.87575 13.9952 6.64553 13.8651 6.36175C13.6053 5.79488 13.1379 5.01209 12.3127 4.18684C11.4874 3.3616 10.7047 2.89427 10.1378 2.63439C9.854 2.50428 9.62378 2.42593 9.46888 2.38081C9.39145 2.35826 9.29412 2.33592 9.2572 2.32769C8.98588 2.28248 8.79533 2.0252 8.83933 1.75338Z" fill="#E7E7E8" fill-opacity="0.6"/>
<path d="M8.83933 1.75338C8.88346 1.48079 9.14116 1.29587 9.41375 1.34001C9.43062 1.34324 9.48491 1.35338 9.51336 1.35972C9.57024 1.37239 9.6496 1.39189 9.74853 1.42071C9.94639 1.47834 10.2228 1.57327 10.5545 1.72536C11.2187 2.02987 12.1026 2.56254 13.0198 3.47974C13.937 4.39694 14.4697 5.28081 14.7742 5.945C14.9263 6.27674 15.0212 6.55314 15.0788 6.751C15.1076 6.84993 15.1271 6.92929 15.1398 6.98617C15.1461 7.01462 15.1508 7.03746 15.154 7.05433L15.1578 7.07513C15.202 7.34772 15.0187 7.61607 14.7461 7.6602C14.4743 7.7042 14.2183 7.52018 14.1731 7.24887C14.1717 7.24158 14.1678 7.22201 14.1637 7.20355C14.1555 7.16663 14.1413 7.10808 14.1187 7.03065C14.0736 6.87575 13.9952 6.64553 13.8651 6.36175C13.6053 5.79488 13.1379 5.01209 12.3127 4.18684C11.4874 3.3616 10.7047 2.89427 10.1378 2.63439C9.854 2.50428 9.62378 2.42593 9.46888 2.38081C9.39145 2.35826 9.29412 2.33592 9.2572 2.32769C8.98588 2.28248 8.79533 2.0252 8.83933 1.75338Z" fill="#E7E7E8" fill-opacity="0.4"/>
<path d="M8.83933 1.75338C8.88346 1.48079 9.14116 1.29587 9.41375 1.34001C9.43062 1.34324 9.48491 1.35338 9.51336 1.35972C9.57024 1.37239 9.6496 1.39189 9.74853 1.42071C9.94639 1.47834 10.2228 1.57327 10.5545 1.72536C11.2187 2.02987 12.1026 2.56254 13.0198 3.47974C13.937 4.39694 14.4697 5.28081 14.7742 5.945C14.9263 6.27674 15.0212 6.55314 15.0788 6.751C15.1076 6.84993 15.1271 6.92929 15.1398 6.98617C15.1461 7.01462 15.1508 7.03746 15.154 7.05433L15.1578 7.07513C15.202 7.34772 15.0187 7.61607 14.7461 7.6602C14.4743 7.7042 14.2183 7.52018 14.1731 7.24887C14.1717 7.24158 14.1678 7.22201 14.1637 7.20355C14.1555 7.16663 14.1413 7.10808 14.1187 7.03065C14.0736 6.87575 13.9952 6.64553 13.8651 6.36175C13.6053 5.79488 13.1379 5.01209 12.3127 4.18684C11.4874 3.3616 10.7047 2.89427 10.1378 2.63439C9.854 2.50428 9.62378 2.42593 9.46888 2.38081C9.39145 2.35826 9.29412 2.33592 9.2572 2.32769C8.98588 2.28248 8.79533 2.0252 8.83933 1.75338Z" fill="#E7E7E8" fill-opacity="0.2"/>
<path fill-rule="evenodd" clip-rule="evenodd" d="M8.99017 4.05303C9.06603 3.78751 9.34277 3.63376 9.60829 3.70963L9.47093 4.19039C9.60829 3.70963 9.60829 3.70963 9.60829 3.70963L9.60925 3.7099L9.61027 3.7102L9.61249 3.71085L9.61766 3.71239L9.63085 3.7165C9.6409 3.71971 9.65346 3.7239 9.66842 3.72921C9.69836 3.73983 9.73794 3.75494 9.78647 3.77575C9.8836 3.81737 10.0163 3.88165 10.1793 3.97812C10.5056 4.17125 10.9511 4.49203 11.4744 5.01535C11.9977 5.53866 12.3185 5.98412 12.5116 6.31043C12.6081 6.47343 12.6724 6.60614 12.714 6.70327C12.7348 6.7518 12.7499 6.79138 12.7605 6.82132C12.7658 6.83629 12.77 6.84884 12.7732 6.85889L12.7774 6.87208L12.7789 6.87725L12.7795 6.87947L12.7798 6.88049C12.7798 6.88049 12.7801 6.88145 12.2994 7.01881L12.7801 6.88145C12.856 7.14697 12.7022 7.42371 12.4367 7.49958C12.1735 7.57479 11.8992 7.42429 11.8206 7.16291L11.8181 7.15573C11.8145 7.14571 11.8072 7.12599 11.7949 7.09719C11.7702 7.03963 11.7255 6.94548 11.651 6.81975C11.5024 6.56859 11.2339 6.18909 10.7673 5.72245C10.3007 5.25582 9.92115 4.98735 9.66999 4.8387C9.54427 4.76429 9.45011 4.71956 9.39256 4.69489C9.36375 4.68255 9.34403 4.67519 9.33401 4.67164L9.32683 4.66917C9.06545 4.59059 8.91495 4.31629 8.99017 4.05303Z" fill="#E7E7E8"/>
<path fill-rule="evenodd" clip-rule="evenodd" d="M8.99017 4.05303C9.06603 3.78751 9.34277 3.63376 9.60829 3.70963L9.47093 4.19039C9.60829 3.70963 9.60829 3.70963 9.60829 3.70963L9.60925 3.7099L9.61027 3.7102L9.61249 3.71085L9.61766 3.71239L9.63085 3.7165C9.6409 3.71971 9.65346 3.7239 9.66842 3.72921C9.69836 3.73983 9.73794 3.75494 9.78647 3.77575C9.8836 3.81737 10.0163 3.88165 10.1793 3.97812C10.5056 4.17125 10.9511 4.49203 11.4744 5.01535C11.9977 5.53866 12.3185 5.98412 12.5116 6.31043C12.6081 6.47343 12.6724 6.60614 12.714 6.70327C12.7348 6.7518 12.7499 6.79138 12.7605 6.82132C12.7658 6.83629 12.77 6.84884 12.7732 6.85889L12.7774 6.87208L12.7789 6.87725L12.7795 6.87947L12.7798 6.88049C12.7798 6.88049 12.7801 6.88145 12.2994 7.01881L12.7801 6.88145C12.856 7.14697 12.7022 7.42371 12.4367 7.49958C12.1735 7.57479 11.8992 7.42429 11.8206 7.16291L11.8181 7.15573C11.8145 7.14571 11.8072 7.12599 11.7949 7.09719C11.7702 7.03963 11.7255 6.94548 11.651 6.81975C11.5024 6.56859 11.2339 6.18909 10.7673 5.72245C10.3007 5.25582 9.92115 4.98735 9.66999 4.8387C9.54427 4.76429 9.45011 4.71956 9.39256 4.69489C9.36375 4.68255 9.34403 4.67519 9.33401 4.67164L9.32683 4.66917C9.06545 4.59059 8.91495 4.31629 8.99017 4.05303Z" fill="#E7E7E8" fill-opacity="0.8"/>
<path fill-rule="evenodd" clip-rule="evenodd" d="M8.99017 4.05303C9.06603 3.78751 9.34277 3.63376 9.60829 3.70963L9.47093 4.19039C9.60829 3.70963 9.60829 3.70963 9.60829 3.70963L9.60925 3.7099L9.61027 3.7102L9.61249 3.71085L9.61766 3.71239L9.63085 3.7165C9.6409 3.71971 9.65346 3.7239 9.66842 3.72921C9.69836 3.73983 9.73794 3.75494 9.78647 3.77575C9.8836 3.81737 10.0163 3.88165 10.1793 3.97812C10.5056 4.17125 10.9511 4.49203 11.4744 5.01535C11.9977 5.53866 12.3185 5.98412 12.5116 6.31043C12.6081 6.47343 12.6724 6.60614 12.714 6.70327C12.7348 6.7518 12.7499 6.79138 12.7605 6.82132C12.7658 6.83629 12.77 6.84884 12.7732 6.85889L12.7774 6.87208L12.7789 6.87725L12.7795 6.87947L12.7798 6.88049C12.7798 6.88049 12.7801 6.88145 12.2994 7.01881L12.7801 6.88145C12.856 7.14697 12.7022 7.42371 12.4367 7.49958C12.1735 7.57479 11.8992 7.42429 11.8206 7.16291L11.8181 7.15573C11.8145 7.14571 11.8072 7.12599 11.7949 7.09719C11.7702 7.03963 11.7255 6.94548 11.651 6.81975C11.5024 6.56859 11.2339 6.18909 10.7673 5.72245C10.3007 5.25582 9.92115 4.98735 9.66999 4.8387C9.54427 4.76429 9.45011 4.71956 9.39256 4.69489C9.36375 4.68255 9.34403 4.67519 9.33401 4.67164L9.32683 4.66917C9.06545 4.59059 8.91495 4.31629 8.99017 4.05303Z" fill="#E7E7E8" fill-opacity="0.6"/>
<path fill-rule="evenodd" clip-rule="evenodd" d="M8.99017 4.05303C9.06603 3.78751 9.34277 3.63376 9.60829 3.70963L9.47093 4.19039C9.60829 3.70963 9.60829 3.70963 9.60829 3.70963L9.60925 3.7099L9.61027 3.7102L9.61249 3.71085L9.61766 3.71239L9.63085 3.7165C9.6409 3.71971 9.65346 3.7239 9.66842 3.72921C9.69836 3.73983 9.73794 3.75494 9.78647 3.77575C9.8836 3.81737 10.0163 3.88165 10.1793 3.97812C10.5056 4.17125 10.9511 4.49203 11.4744 5.01535C11.9977 5.53866 12.3185 5.98412 12.5116 6.31043C12.6081 6.47343 12.6724 6.60614 12.714 6.70327C12.7348 6.7518 12.7499 6.79138 12.7605 6.82132C12.7658 6.83629 12.77 6.84884 12.7732 6.85889L12.7774 6.87208L12.7789 6.87725L12.7795 6.87947L12.7798 6.88049C12.7798 6.88049 12.7801 6.88145 12.2994 7.01881L12.7801 6.88145C12.856 7.14697 12.7022 7.42371 12.4367 7.49958C12.1735 7.57479 11.8992 7.42429 11.8206 7.16291L11.8181 7.15573C11.8145 7.14571 11.8072 7.12599 11.7949 7.09719C11.7702 7.03963 11.7255 6.94548 11.651 6.81975C11.5024 6.56859 11.2339 6.18909 10.7673 5.72245C10.3007 5.25582 9.92115 4.98735 9.66999 4.8387C9.54427 4.76429 9.45011 4.71956 9.39256 4.69489C9.36375 4.68255 9.34403 4.67519 9.33401 4.67164L9.32683 4.66917C9.06545 4.59059 8.91495 4.31629 8.99017 4.05303Z" fill="#E7E7E8" fill-opacity="0.4"/>
<path fill-rule="evenodd" clip-rule="evenodd" d="M8.99017 4.05303C9.06603 3.78751 9.34277 3.63376 9.60829 3.70963L9.47093 4.19039C9.60829 3.70963 9.60829 3.70963 9.60829 3.70963L9.60925 3.7099L9.61027 3.7102L9.61249 3.71085L9.61766 3.71239L9.63085 3.7165C9.6409 3.71971 9.65346 3.7239 9.66842 3.72921C9.69836 3.73983 9.73794 3.75494 9.78647 3.77575C9.8836 3.81737 10.0163 3.88165 10.1793 3.97812C10.5056 4.17125 10.9511 4.49203 11.4744 5.01535C11.9977 5.53866 12.3185 5.98412 12.5116 6.31043C12.6081 6.47343 12.6724 6.60614 12.714 6.70327C12.7348 6.7518 12.7499 6.79138 12.7605 6.82132C12.7658 6.83629 12.77 6.84884 12.7732 6.85889L12.7774 6.87208L12.7789 6.87725L12.7795 6.87947L12.7798 6.88049C12.7798 6.88049 12.7801 6.88145 12.2994 7.01881L12.7801 6.88145C12.856 7.14697 12.7022 7.42371 12.4367 7.49958C12.1735 7.57479 11.8992 7.42429 11.8206 7.16291L11.8181 7.15573C11.8145 7.14571 11.8072 7.12599 11.7949 7.09719C11.7702 7.03963 11.7255 6.94548 11.651 6.81975C11.5024 6.56859 11.2339 6.18909 10.7673 5.72245C10.3007 5.25582 9.92115 4.98735 9.66999 4.8387C9.54427 4.76429 9.45011 4.71956 9.39256 4.69489C9.36375 4.68255 9.34403 4.67519 9.33401 4.67164L9.32683 4.66917C9.06545 4.59059 8.91495 4.31629 8.99017 4.05303Z" fill="#E7E7E8" fill-opacity="0.2"/>
</svg>
