<svg width="40" height="40" viewBox="0 0 40 40" fill="none" xmlns="http://www.w3.org/2000/svg">
<path d="M36.6662 13.6039L36.6662 13.7248C36.6662 15.1594 36.6662 15.8767 36.3209 16.4635C35.9756 17.0504 35.3485 17.3987 34.0945 18.0954L32.7723 18.83C33.6834 15.7498 33.9874 12.4403 34.0998 9.61C34.1046 9.48864 34.11 9.3658 34.1155 9.24165L34.1193 9.15469C35.2048 9.53164 35.8142 9.81267 36.1944 10.3402C36.6663 10.9949 36.6663 11.8646 36.6662 13.6039Z" fill="#293770"/>
<path d="M3.33301 13.6039L3.33301 13.7248C3.33305 15.1594 3.33307 15.8767 3.67839 16.4635C4.0237 17.0504 4.65072 17.3987 5.90475 18.0954L7.22769 18.8304C6.31646 15.7501 6.01246 12.4404 5.90009 9.61C5.89527 9.48864 5.88985 9.3658 5.88436 9.24165L5.88052 9.15448C4.79469 9.53154 4.1851 9.81257 3.80484 10.3402C3.33294 10.9949 3.33296 11.8646 3.33301 13.6039Z" fill="#293770"/>
<path fill-rule="evenodd" clip-rule="evenodd" d="M19.9999 3.33337C22.9725 3.33337 25.4215 3.59519 27.2949 3.91128C29.1928 4.23149 30.1417 4.3916 30.9346 5.3681C31.7274 6.34459 31.6855 7.4 31.6017 9.51082C31.314 16.7575 29.7502 25.8088 21.2497 26.6095V32.5H23.6333C24.4278 32.5 25.1118 33.0608 25.2676 33.8398L25.583 35.4167H29.9997C30.69 35.4167 31.2497 35.9764 31.2497 36.6667C31.2497 37.3571 30.69 37.9167 29.9997 37.9167H9.99967C9.30932 37.9167 8.74967 37.3571 8.74967 36.6667C8.74967 35.9764 9.30932 35.4167 9.99967 35.4167H14.4163L14.7317 33.8398C14.8875 33.0608 15.5715 32.5 16.366 32.5H18.7497V26.6095C10.2496 25.8085 8.68582 16.7573 8.39813 9.51082C8.31432 7.4 8.27242 6.34459 9.06528 5.3681C9.85815 4.3916 10.8071 4.23149 12.705 3.91128C14.5784 3.59519 17.0274 3.33337 19.9999 3.33337ZM21.5869 10.3315L21.4231 10.0376C20.7898 8.90144 20.4731 8.33337 19.9997 8.33337C19.5262 8.33337 19.2096 8.90144 18.5763 10.0376L18.4124 10.3315C18.2324 10.6543 18.1425 10.8158 18.0021 10.9223C17.8618 11.0288 17.6871 11.0683 17.3376 11.1474L17.0194 11.2194C15.7896 11.4977 15.1747 11.6368 15.0284 12.1072C14.8821 12.5777 15.3013 13.0679 16.1397 14.0483L16.3566 14.302C16.5949 14.5806 16.714 14.7199 16.7676 14.8922C16.8212 15.0646 16.8032 15.2504 16.7672 15.6222L16.7344 15.9606C16.6076 17.2687 16.5442 17.9227 16.9272 18.2135C17.3103 18.5042 17.886 18.2391 19.0375 17.709L19.3354 17.5718C19.6626 17.4211 19.8262 17.3458 19.9997 17.3458C20.1731 17.3458 20.3367 17.4211 20.6639 17.5718L20.9618 17.709C22.1133 18.2391 22.6891 18.5042 23.0721 18.2135C23.4551 17.9227 23.3917 17.2687 23.265 15.9606L23.2322 15.6222C23.1962 15.2504 23.1782 15.0646 23.2317 14.8922C23.2853 14.7199 23.4045 14.5806 23.6427 14.302L23.8596 14.0483C24.6981 13.0679 25.1173 12.5777 24.971 12.1072C24.8247 11.6368 24.2097 11.4977 22.9799 11.2194L22.6617 11.1474C22.3123 11.0683 22.1375 11.0288 21.9972 10.9223C21.8569 10.8158 21.7669 10.6543 21.5869 10.3315Z" fill="#293770"/>
</svg>
