<svg width="40" height="40" viewBox="0 0 40 40" fill="none" xmlns="http://www.w3.org/2000/svg">
<path d="M11.667 8.04898C11.667 10.6286 14.5435 13.3461 16.9166 15.1489C18.2484 16.1608 18.9144 16.6667 20.0003 16.6667C21.0863 16.6667 21.7522 16.1608 23.0841 15.1489C25.4571 13.3461 28.3337 10.6287 28.3337 8.04895C28.3337 3.39867 23.7502 1.66248 20.0003 5.25479C16.2505 1.66248 11.667 3.39867 11.667 8.04898Z" fill="#293770"/>
<path d="M10.4335 35.6473H10.0003C8.42898 35.6473 7.6433 35.6473 7.15515 35.1592C6.66699 34.671 6.66699 33.8853 6.66699 32.314V30.4607C6.66699 29.5966 6.66699 29.1645 6.88896 28.7786C7.11092 28.3927 7.44578 28.198 8.1155 27.8084C12.5246 25.2441 18.7862 23.8005 22.9654 26.2932C23.2462 26.4606 23.4988 26.6628 23.7146 26.9052C24.6447 27.95 24.5769 29.5268 23.5049 30.4625C23.2785 30.6601 23.0372 30.8099 22.7943 30.862C22.9939 30.8389 23.1853 30.8123 23.368 30.7832C24.8869 30.5409 26.1621 29.7292 27.3294 28.8474L30.3414 26.5721C31.4032 25.77 32.9792 25.7698 34.0412 26.5717C34.9973 27.2937 35.2897 28.4824 34.6852 29.4512C33.9803 30.5811 32.9872 32.0266 32.0335 32.9099C31.0786 33.7944 29.6568 34.584 28.4961 35.1442C27.2104 35.7648 25.79 36.1224 24.3452 36.3563C21.4151 36.8306 18.3613 36.7582 15.4609 36.1606C13.8212 35.8228 12.1183 35.6473 10.4335 35.6473Z" fill="#293770"/>
</svg>
