<svg width="40" height="40" viewBox="0 0 40 40" fill="none" xmlns="http://www.w3.org/2000/svg">
<path fill-rule="evenodd" clip-rule="evenodd" d="M19.9997 26.6666C26.443 26.6666 31.6663 21.4433 31.6663 15C31.6663 8.55666 26.443 3.33331 19.9997 3.33331C13.5564 3.33331 8.33301 8.55666 8.33301 15C8.33301 21.4433 13.5564 26.6666 19.9997 26.6666ZM19.9997 9.99998C19.5262 9.99998 19.2096 10.568 18.5763 11.7042L18.4124 11.9981C18.2324 12.3209 18.1425 12.4824 18.0021 12.5889C17.8618 12.6954 17.6871 12.7349 17.3376 12.814L17.0194 12.886C15.7896 13.1643 15.1747 13.3034 15.0284 13.7738C14.8821 14.2443 15.3013 14.7345 16.1397 15.7149L16.3566 15.9686C16.5949 16.2472 16.714 16.3865 16.7676 16.5588C16.8212 16.7312 16.8032 16.917 16.7672 17.2888L16.7344 17.6272C16.6076 18.9353 16.5442 19.5893 16.9272 19.8801C17.3103 20.1708 17.886 19.9058 19.0375 19.3756L19.3354 19.2384C19.6626 19.0877 19.8262 19.0124 19.9997 19.0124C20.1731 19.0124 20.3367 19.0877 20.6639 19.2384L20.9618 19.3756C22.1133 19.9058 22.6891 20.1708 23.0721 19.8801C23.4551 19.5893 23.3917 18.9353 23.265 17.6272L23.2322 17.2888C23.1962 16.9171 23.1782 16.7312 23.2317 16.5588C23.2853 16.3865 23.4045 16.2472 23.6427 15.9686L23.8596 15.7149C24.698 14.7345 25.1173 14.2443 24.971 13.7738C24.8247 13.3034 24.2097 13.1643 22.9799 12.886L22.6617 12.814C22.3122 12.7349 22.1375 12.6954 21.9972 12.5889C21.8569 12.4824 21.7669 12.3209 21.5869 11.9981L21.4231 11.7042C20.7898 10.568 20.4731 9.99998 19.9997 9.99998Z" fill="#293770"/>
<path d="M7.49163 21.6575L4.98643 24.2514C4.08624 25.1835 3.63614 25.6495 3.48039 26.0442C3.12547 26.9435 3.4292 27.9411 4.20198 28.4142C4.5411 28.6218 5.15279 28.6865 6.37616 28.8159C7.06684 28.889 7.41226 28.9255 7.70152 29.0364C8.3491 29.2846 8.85286 29.8062 9.09259 30.4767C9.19968 30.7762 9.23496 31.1338 9.30551 31.849C9.43048 33.1157 9.49296 33.749 9.69347 34.1001C10.1504 34.9003 11.1139 35.2148 11.9825 34.8473C12.3636 34.686 12.8137 34.22 13.7139 33.2879L17.8506 29.0047C13.3548 28.3205 9.55342 25.5231 7.49163 21.6575Z" fill="#293770"/>
<path d="M22.1487 29.0047L26.2854 33.2879C27.1856 34.22 27.6357 34.686 28.0169 34.8473C28.8855 35.2148 29.849 34.9003 30.3059 34.1001C30.5064 33.749 30.5689 33.1157 30.6938 31.849C30.7644 31.1338 30.7997 30.7762 30.9068 30.4767C31.1465 29.8062 31.6502 29.2846 32.2978 29.0364C32.5871 28.9255 32.9325 28.889 33.6232 28.8159C34.8466 28.6865 35.4582 28.6218 35.7974 28.4142C36.5701 27.9411 36.8739 26.9435 36.519 26.0442C36.3632 25.6495 35.9131 25.1835 35.0129 24.2514L32.5077 21.6575C30.4459 25.5231 26.6446 28.3205 22.1487 29.0047Z" fill="#293770"/>
</svg>
