<svg width="40" height="40" viewBox="0 0 40 40" fill="none" xmlns="http://www.w3.org/2000/svg">
<path d="M5.77427 5.77403C8.21505 3.33325 12.1434 3.33325 20.0002 3.33325C21.7045 3.33325 23.224 3.33325 24.5836 3.35817C24.5899 4.30956 24.956 5.25901 25.6818 5.9849L27.6135 7.91658H23.3335C18.9721 7.91658 16.2463 10.0796 15.1428 11.1886L14.8332 11.4996L14.5221 11.8092C13.4132 12.9128 11.2502 15.6385 11.2502 19.9999V24.9999C11.2502 27.071 12.9291 28.7499 15.0002 28.7499C17.0712 28.7499 18.7502 27.071 18.7502 24.9999V19.9999C18.7502 18.2996 19.5635 17.3731 19.8125 17.1254L20.1323 16.8072L20.459 16.4789C20.7067 16.2299 21.6332 15.4166 23.3335 15.4166H27.6135L25.6818 17.3483C24.2174 18.8127 24.2174 21.1871 25.6818 22.6516C27.1463 24.116 29.5207 24.116 30.9851 22.6516L36.6605 16.9762C36.6668 17.9141 36.6668 18.9199 36.6668 19.9999C36.6668 27.8567 36.6668 31.785 34.2261 34.2258C31.7853 36.6666 27.8569 36.6666 20.0002 36.6666C12.1434 36.6666 8.21505 36.6666 5.77427 34.2258C3.3335 31.785 3.3335 27.8567 3.3335 19.9999C3.3335 12.1432 3.3335 8.21481 5.77427 5.77403Z" fill="#293770"/>
<path fill-rule="evenodd" clip-rule="evenodd" d="M27.4496 2.44937C27.9378 1.96121 28.7292 1.96121 29.2174 2.44937L37.5507 10.7827C38.0389 11.2709 38.0389 12.0623 37.5507 12.5505L29.2174 20.8838C28.7292 21.372 27.9378 21.372 27.4496 20.8838C26.9615 20.3956 26.9615 19.6042 27.4496 19.116L33.6491 12.9166H23.3335C20.7477 12.9166 19.2215 14.1783 18.6869 14.7155L18.3687 15.0352L18.049 15.3533C17.5118 15.8879 16.2502 17.4141 16.2502 19.9999V24.9999C16.2502 25.6903 15.6905 26.2499 15.0002 26.2499C14.3098 26.2499 13.7502 25.6903 13.7502 24.9999V19.9999C13.7502 16.5269 15.4619 14.401 16.2856 13.5813L16.601 13.2674L16.9148 12.952C17.7345 12.1283 19.8605 10.4166 23.3335 10.4166H33.6491L27.4496 4.21714C26.9615 3.72898 26.9615 2.93752 27.4496 2.44937Z" fill="#293770"/>
</svg>
