<svg width="40" height="40" viewBox="0 0 40 40" fill="none" xmlns="http://www.w3.org/2000/svg">
<path fill-rule="evenodd" clip-rule="evenodd" d="M21.897 3.33337H18.1023C17.4624 3.33337 17.0613 4.02461 17.3787 4.58016L18.571 6.66671L12.9163 6.66675V33.3333L18.571 33.3334L17.3787 35.4199C17.0613 35.9755 17.4624 36.6667 18.1023 36.6667H21.897C22.5368 36.6667 22.938 35.9755 22.6205 35.4199L21.4282 33.3334L27.083 33.3333V6.66675L21.4282 6.66671L22.6205 4.58016C22.938 4.02461 22.5368 3.33337 21.897 3.33337ZM21.4282 33.3334L20.7232 32.0996C20.4032 31.5397 19.596 31.5397 19.2761 32.0996L18.571 33.3334H21.4282ZM21.4282 6.66671L20.7232 7.90052C20.4032 8.46037 19.596 8.46037 19.2761 7.90052L18.571 6.66671H21.4282ZM21.2496 12.5C21.2496 11.8097 20.69 11.25 19.9996 11.25C19.3093 11.25 18.7496 11.8097 18.7496 12.5V14.1667C18.7496 14.8571 19.3093 15.4167 19.9996 15.4167C20.69 15.4167 21.2496 14.8571 21.2496 14.1667V12.5ZM21.2496 19.1667C21.2496 18.4764 20.69 17.9167 19.9996 17.9167C19.3093 17.9167 18.7496 18.4764 18.7496 19.1667V20.8334C18.7496 21.5237 19.3093 22.0834 19.9996 22.0834C20.69 22.0834 21.2496 21.5237 21.2496 20.8334V19.1667ZM21.2496 25.8334C21.2496 25.143 20.69 24.5834 19.9996 24.5834C19.3093 24.5834 18.7496 25.143 18.7496 25.8334V27.5C18.7496 28.1904 19.3093 28.75 19.9996 28.75C20.69 28.75 21.2496 28.1904 21.2496 27.5V25.8334ZM10.4163 6.68495C7.57408 6.74541 5.92241 7.0062 4.79743 8.13117C3.67246 9.25615 3.41167 10.9078 3.35121 13.75H10.4163V6.68495ZM3.33301 16.25L3.33301 23.75H10.4163V16.25H3.33301ZM4.79743 31.8689C3.67246 30.7439 3.41167 29.0923 3.35121 26.25H10.4163V33.3151C7.57408 33.2547 5.92241 32.9939 4.79743 31.8689ZM29.583 13.75V6.68495C32.4252 6.74541 34.0769 7.0062 35.2018 8.13117C36.3268 9.25615 36.5876 10.9078 36.6481 13.75H29.583ZM36.6663 16.25H29.583V23.75H36.6663V16.25ZM29.583 26.25H36.6481C36.5876 29.0923 36.3268 30.7439 35.2018 31.8689C34.0769 32.9939 32.4252 33.2547 29.583 33.3151V26.25Z" fill="#293770"/>
</svg>
