<svg width="40" height="40" viewBox="0 0 40 40" fill="none" xmlns="http://www.w3.org/2000/svg">
<path d="M36.6662 13.6038L36.6662 13.7247C36.6662 15.1593 36.6662 15.8766 36.3209 16.4634C35.9756 17.0503 35.3485 17.3986 34.0945 18.0953L32.7723 18.8299C33.6834 15.7496 33.9874 12.4402 34.0998 9.60988C34.1046 9.48852 34.11 9.36568 34.1155 9.24153L34.1193 9.15457C35.2048 9.53152 35.8142 9.81254 36.1944 10.3401C36.6663 10.9948 36.6663 11.8645 36.6662 13.6038Z" fill="#293770"/>
<path d="M3.33301 13.6038L3.33301 13.7247C3.33305 15.1593 3.33307 15.8766 3.67839 16.4634C4.0237 17.0503 4.65072 17.3986 5.90475 18.0953L7.22769 18.8303C6.31646 15.7499 6.01246 12.4403 5.90009 9.60988C5.89527 9.48852 5.88985 9.36568 5.88436 9.24153L5.88052 9.15436C4.79469 9.53142 4.1851 9.81245 3.80484 10.3401C3.33294 10.9948 3.33296 11.8645 3.33301 13.6038Z" fill="#293770"/>
<path fill-rule="evenodd" clip-rule="evenodd" d="M27.2949 3.91116C25.4215 3.59507 22.9725 3.33325 19.9999 3.33325C17.0274 3.33325 14.5784 3.59507 12.705 3.91116C10.8071 4.23137 9.85815 4.39148 9.06528 5.36797C8.27242 6.34447 8.31432 7.39988 8.39813 9.5107C8.68582 16.7572 10.2496 25.8083 18.7497 26.6094V32.4999H16.366C15.5715 32.4999 14.8875 33.0607 14.7317 33.8397L14.4163 35.4166H9.99967C9.30932 35.4166 8.74967 35.9762 8.74967 36.6666C8.74967 37.3569 9.30932 37.9166 9.99967 37.9166H29.9997C30.69 37.9166 31.2497 37.3569 31.2497 36.6666C31.2497 35.9762 30.69 35.4166 29.9997 35.4166H25.583L25.2676 33.8397C25.1118 33.0607 24.4278 32.4999 23.6333 32.4999H21.2497V26.6094C29.7502 25.8087 31.314 16.7574 31.6017 9.5107C31.6855 7.39988 31.7274 6.34447 30.9346 5.36797C30.1417 4.39148 29.1928 4.23137 27.2949 3.91116ZM21.3114 9.67844C21.7785 9.87192 22.083 10.3277 22.083 10.8333V17.5C22.083 18.1903 21.5234 18.75 20.833 18.75C20.1427 18.75 19.583 18.1903 19.583 17.5V13.8511L19.2169 14.2172C18.7287 14.7053 17.9373 14.7053 17.4491 14.2172C16.961 13.729 16.961 12.9376 17.4491 12.4494L19.9491 9.94941C20.3066 9.59191 20.8443 9.48496 21.3114 9.67844Z" fill="#293770"/>
</svg>
