<svg width="40" height="40" viewBox="0 0 40 40" fill="none" xmlns="http://www.w3.org/2000/svg">
<path fill-rule="evenodd" clip-rule="evenodd" d="M22.3938 9.63851C20.9017 8.82492 19.0986 8.82492 17.6065 9.63851L9.61611 13.9955C8.00947 14.8715 7.00977 16.5553 7.00977 18.3853V26.6147C7.00977 28.4446 8.00947 30.1284 9.61611 31.0045L17.6065 35.3614C19.0986 36.175 20.9017 36.175 22.3938 35.3614L30.3842 31.0045C31.9908 30.1284 32.9905 28.4446 32.9905 26.6147V18.3853C32.9905 16.5553 31.9908 14.8715 30.3842 13.9955L22.3938 9.63851ZM20.0005 17.5C19.5271 17.5 19.2104 18.0681 18.5771 19.2042L18.4132 19.4981C18.2332 19.821 18.1433 19.9824 18.003 20.0889C17.8627 20.1954 17.6879 20.235 17.3384 20.314L17.0203 20.386C15.7904 20.6643 15.1755 20.8034 15.0292 21.2739C14.8829 21.7443 15.3021 22.2345 16.1405 23.215L16.3574 23.4686C16.5957 23.7472 16.7148 23.8865 16.7684 24.0589C16.822 24.2312 16.804 24.4171 16.768 24.7888L16.7352 25.1272C16.6084 26.4353 16.545 27.0893 16.9281 27.3801C17.3111 27.6709 17.8868 27.4058 19.0383 26.8756L19.3362 26.7384C19.6635 26.5878 19.8271 26.5124 20.0005 26.5124C20.1739 26.5124 20.3375 26.5878 20.6647 26.7384L20.9626 26.8756C22.1141 27.4058 22.6899 27.6709 23.0729 27.3801C23.4559 27.0893 23.3925 26.4353 23.2658 25.1272L23.233 24.7888C23.197 24.4171 23.179 24.2312 23.2326 24.0589C23.2861 23.8865 23.4053 23.7472 23.6435 23.4686L23.8604 23.215C24.6989 22.2345 25.1181 21.7443 24.9718 21.2739C24.8255 20.8034 24.2106 20.6643 22.9807 20.386L22.6625 20.314C22.3131 20.235 22.1383 20.1954 21.998 20.0889C21.8577 19.9824 21.7677 19.821 21.5878 19.4981L21.4239 19.2042C20.7906 18.0681 20.4739 17.5 20.0005 17.5Z" fill="#293770"/>
<path d="M18.3337 3.33325H21.667C24.8097 3.33325 26.381 3.33325 27.3573 4.30956C28.3337 5.28587 28.3337 6.85722 28.3337 9.99992V10.0299L23.5905 7.44353C21.3524 6.22314 18.6476 6.22314 16.4095 7.44353L11.667 10.0295V9.99992C11.667 6.85722 11.667 5.28587 12.6433 4.30956C13.6196 3.33325 15.191 3.33325 18.3337 3.33325Z" fill="#293770"/>
</svg>
