<svg width="40" height="40" viewBox="0 0 40 40" fill="none" xmlns="http://www.w3.org/2000/svg">
<path fill-rule="evenodd" clip-rule="evenodd" d="M36.6663 19.9999C36.6663 29.2047 29.2044 36.6666 19.9997 36.6666C10.7949 36.6666 3.33301 29.2047 3.33301 19.9999C3.33301 10.7952 10.7949 3.33325 19.9997 3.33325C29.2044 3.33325 36.6663 10.7952 36.6663 19.9999ZM24.9997 14.9999C24.9997 17.7613 22.7611 19.9999 19.9997 19.9999C17.2383 19.9999 14.9997 17.7613 14.9997 14.9999C14.9997 12.2385 17.2383 9.99992 19.9997 9.99992C22.7611 9.99992 24.9997 12.2385 24.9997 14.9999ZM19.9996 34.1666C22.9731 34.1666 25.7325 33.2505 28.0112 31.6853C29.0176 30.9939 29.4478 29.677 28.8626 28.6053C27.6496 26.3837 25.1501 24.9999 19.9996 24.9999C14.8492 24.9999 12.3496 26.3836 11.1366 28.6052C10.5514 29.6769 10.9815 30.9938 11.9879 31.6852C14.2666 33.2505 17.0262 34.1666 19.9996 34.1666Z" fill="#293770"/>
</svg>
