<svg width="105" height="54" viewBox="0 0 105 54" fill="none" xmlns="http://www.w3.org/2000/svg">
<g clip-path="url(#clip0_2234_9282)">
<path d="M21.7886 0H0.935547V2.4H21.7886V0Z" fill="#00AC9B"/>
<path d="M42.5416 0H21.6885V2.4H42.5416V0Z" fill="#62B800"/>
<path d="M63.2945 0H42.4414V2.4H63.2945V0Z" fill="#FAB700"/>
<path d="M84.0474 0H63.1943V2.4H84.0474V0Z" fill="#FF1339"/>
<path d="M104.9 0H84.0469V2.4H104.9V0Z" fill="#0097D3"/>
<path d="M23.5933 41.3C24.0946 42.2 24.7964 42.5 25.3979 42.5H25.5984V42.7H18.8813V42.5H19.0819C19.5831 42.5 20.1847 42 19.8839 41.2L18.8813 38.6H13.8686L12.7658 41.2C12.465 42 13.0665 42.5 13.5678 42.5H13.7683V42.7H9.25684V42.5H9.45735C10.0589 42.5 10.7607 42.1 11.2619 41.3L16.1744 30.3C16.2747 30 17.0767 28.3 17.177 27.6C17.177 27.5 17.2773 27.5 17.2773 27.5C17.2773 27.5 17.3775 27.5 17.3775 27.6L23.5933 41.3ZM18.4803 37.8L16.375 32.6L14.1693 37.8H18.4803Z" fill="white"/>
<path d="M31.9144 28C35.0223 28 37.3282 29 37.3282 31.6C37.3282 33.5 36.0249 34.6 34.7215 34.7C36.8269 34.9 38.5312 36.4 38.431 38.6C38.431 41.3 36.0249 42.7 32.5159 42.7H25.7988V42.5H26.0996C26.8014 42.5 27.4029 41.9 27.5032 41.2V29.5C27.5032 28.8 26.9016 28.2 26.0996 28.2H25.7988V28H31.9144ZM31.6136 41.8C33.5185 41.8 34.8218 40.8 34.8218 38.4C34.8218 35.9 33.2177 35 31.3129 35V34.8C32.6162 34.8 33.9195 34 33.9195 31.9C33.9195 29.8 32.8167 28.9 31.2126 28.9H30.6111V41.8H31.6136Z" fill="white"/>
<path d="M54.6724 36.5996L54.8729 40.1996C53.9706 41.7996 52.1661 42.9996 48.9579 42.9996C43.7446 42.9996 40.3359 40.0996 40.3359 35.2996C40.3359 30.5996 43.6444 27.5996 48.9579 27.5996C51.1635 27.5996 53.0684 28.0996 54.1712 28.6996V32.2996H53.9706C53.1686 29.4996 51.364 28.3996 49.0581 28.3996C45.7497 28.3996 43.6444 30.9996 43.6444 35.0996C43.6444 39.2996 45.6495 41.8996 48.7574 41.9996C51.9655 41.9996 53.6699 40.5996 54.3717 36.3996L54.6724 36.5996Z" fill="white"/>
<path d="M77.1291 27.9996V28.1996H76.9286C76.327 28.1996 75.4247 28.5996 75.124 29.3996C75.124 29.3996 71.214 41.9996 71.214 42.9996C71.214 43.0996 71.1138 43.0996 71.1138 43.0996C71.1138 43.0996 71.0135 43.0996 71.0135 42.9996L66.3015 32.9996C66.3015 32.9996 62.4918 41.9996 62.4918 43.0996C62.4918 43.1996 62.3916 43.1996 62.3916 43.1996C62.3916 43.1996 62.2913 43.1996 62.2913 43.0996L57.2785 29.4996C56.8775 28.5996 56.0755 28.2996 55.4739 28.2996H55.2734V27.9996H61.6898V28.1996H61.4893C60.988 28.1996 60.3865 28.6996 60.6872 29.4996L63.2939 36.7996L67.1036 27.5996H67.3041L71.5148 36.8996L73.6201 29.4996C73.8207 28.6996 73.4196 28.1996 72.8181 28.1996H72.6176V27.9996H77.1291Z" fill="white"/>
<path d="M87.2549 43.0998C87.7562 43.1998 88.2574 43.1998 88.7587 43.1998C89.3602 43.1998 89.9618 43.0998 90.4631 42.9998L88.7587 38.2998L87.2549 43.0998Z" fill="white"/>
<path d="M94.4738 34.9998H96.6794C96.4789 31.5998 94.173 28.6998 90.9648 27.7998L93.772 34.1998C93.8722 34.5998 94.173 34.8998 94.4738 34.9998Z" fill="white"/>
<path d="M83.5459 35.9004C83.4456 36.0004 83.4456 36.2004 83.5459 36.4004L85.4507 42.6004C85.6513 42.7004 85.8518 42.8004 86.1525 42.9004L88.4584 36.0004H83.5459V35.9004Z" fill="white"/>
<path d="M81.1396 35.9004H80.8389C80.9391 38.0004 81.8414 39.8004 83.3452 41.1004L81.7412 36.5004C81.5406 36.2004 81.3401 36.0004 81.1396 35.9004Z" fill="white"/>
<path d="M85.2503 34.9C85.2503 35 85.2503 35 85.2503 34.9L88.659 35H89.3608H91.7669C91.7669 35 91.7669 35 91.8672 34.9C91.9674 34.8 91.9674 34.6 91.8672 34.4L89.06 27.5C88.9598 27.5 88.8595 27.5 88.659 27.5C88.4585 27.5 88.258 27.5 87.9572 27.5L85.0498 34.4C85.1501 34.6 85.1501 34.8 85.2503 34.9Z" fill="white"/>
<path d="M95.7766 36.4998L94.373 40.7998C95.6764 39.4998 96.4784 37.6998 96.5787 35.7998H96.2779C96.0774 35.9998 95.8769 36.1998 95.7766 36.4998Z" fill="white"/>
<path d="M86.6537 27.7998C83.4455 28.6998 81.0394 31.5998 80.8389 34.9998H83.0445C83.3452 34.8998 83.5458 34.5998 83.7463 34.1998L86.6537 27.7998Z" fill="white"/>
<path d="M89.6611 35.9004L92.0673 42.6004C92.2678 42.5004 92.4683 42.4004 92.6688 42.3004L94.3731 36.5004C94.4734 36.3004 94.3731 36.1004 94.3731 36.0004H89.6611V35.9004Z" fill="white"/>
<path d="M25.2968 13.6996C25.6978 13.6996 26.0988 13.7996 26.3996 13.7996C26.8006 13.8996 27.0011 13.9996 27.3019 14.1996C27.5024 14.3996 27.7029 14.5996 27.9034 14.8996C28.0037 15.1996 28.1039 15.5996 28.1039 15.9996C28.1039 16.4996 28.0037 16.7996 27.9034 17.0996C27.8032 17.3996 27.5024 17.5996 27.3019 17.7996C27.1014 17.9996 26.8006 18.1996 26.3996 18.1996C25.9986 18.2996 25.6978 18.2996 25.2968 18.2996H23.793V13.5996H25.2968V13.6996ZM24.7955 17.4996H25.2968C25.4973 17.4996 25.6978 17.4996 25.8983 17.3996C26.0988 17.2996 26.2994 17.2996 26.3996 17.1996C26.4999 17.0996 26.6001 16.9996 26.8006 16.7996C26.9009 16.5996 26.9009 16.2996 26.9009 15.9996C26.9009 15.6996 26.9009 15.3996 26.8006 15.1996C26.7004 14.9996 26.6001 14.7996 26.3996 14.7996C26.2994 14.6996 25.9986 14.5996 25.8983 14.5996C25.7981 14.5996 25.4973 14.4996 25.2968 14.4996H24.7955V17.4996Z" fill="white"/>
<path d="M29.3066 13.7002H32.9158V14.7002H30.4094V15.5002H31.9133V16.5002H30.4094V17.5002H32.9158V18.4002H29.3066V13.7002Z" fill="white"/>
<path d="M34.0186 13.7002H35.2216L36.3244 17.2002L37.4272 13.7002H38.6303L37.0262 18.4002H35.7229L34.0186 13.7002Z" fill="white"/>
<path d="M39.6328 13.7002H43.242V14.7002H40.7356V15.5002H42.2394V16.5002H40.7356V17.5002H43.242V18.4002H39.6328V13.7002Z" fill="white"/>
<path d="M47.854 17.4002V18.4002H44.4453V13.7002H45.5481V17.5002H47.854V17.4002Z" fill="white"/>
<path d="M48.6562 16C48.6562 15.6 48.7565 15.3 48.8568 15C48.957 14.7 49.1575 14.4 49.358 14.2C49.5585 14 49.7591 13.8 50.0598 13.7C50.3606 13.6 50.6614 13.5 51.0624 13.5C51.4634 13.5 51.7642 13.6 52.1652 13.7C52.4659 13.8 52.7667 14 52.9672 14.2C53.1677 14.4 53.3682 14.7 53.4685 15C53.5688 15.3 53.669 15.6 53.669 16C53.669 16.4 53.5688 16.7 53.4685 17C53.3682 17.3 53.1677 17.6 52.9672 17.8C52.7667 18 52.4659 18.2 52.1652 18.3C51.8644 18.4 51.5637 18.5 51.1626 18.5C50.7616 18.5 50.4608 18.4 50.1601 18.3C49.8593 18.2 49.6588 18 49.358 17.8C49.1575 17.6 48.957 17.3 48.8568 17C48.7565 16.7 48.6562 16.4 48.6562 16ZM49.8593 16C49.8593 16.2 49.9596 16.5 49.9596 16.6C50.0598 16.8 50.0598 17 50.2603 17.1C50.3606 17.2 50.4608 17.3 50.6614 17.4C50.7616 17.5 51.0624 17.5 51.1626 17.5C51.3631 17.5 51.5637 17.4 51.6639 17.4C51.7642 17.3 51.9647 17.2 52.0649 17.1C52.1652 17 52.2654 16.8 52.2654 16.6C52.3657 16.4 52.3657 16.2 52.3657 16C52.3657 15.8 52.2654 15.5 52.2654 15.4C52.1652 15.2 52.0649 15 51.9647 14.9C51.8644 14.8 51.7642 14.7 51.5636 14.6C51.4634 14.5 51.1626 14.5 51.0624 14.5C50.8619 14.5 50.6614 14.6 50.5611 14.6C50.4608 14.6 50.3606 14.8 50.1601 14.9C50.0598 15 49.9596 15.2 49.8593 15.4C49.9596 15.6 49.8593 15.8 49.8593 16Z" fill="white"/>
<path d="M54.8721 13.7002H56.6767C57.0777 13.7002 57.2782 13.8002 57.579 13.8002C57.7795 13.9002 58.0802 13.9002 58.2807 14.0002C58.4813 14.1002 58.6818 14.3002 58.6818 14.5002C58.782 14.7002 58.8823 15.0002 58.8823 15.3002C58.8823 15.7002 58.782 15.9002 58.6818 16.1002C58.5815 16.3002 58.4813 16.5002 58.2807 16.6002C58.0802 16.7002 57.8797 16.8002 57.579 16.8002C57.3784 16.9002 57.0777 16.9002 56.6767 16.9002H55.9749V18.6002H54.8721V13.7002ZM56.7769 15.8002C56.8772 15.8002 56.9774 15.8002 57.1779 15.7002C57.2782 15.7002 57.3784 15.6002 57.4787 15.6002C57.579 15.6002 57.6792 15.5002 57.6792 15.4002C57.7795 15.3002 57.7795 15.2002 57.7795 15.0002C57.7795 14.9002 57.6792 14.8002 57.6792 14.7002C57.579 14.6002 57.579 14.6002 57.4787 14.5002C57.3784 14.4002 57.2782 14.4002 57.1779 14.4002C57.0777 14.4002 56.9774 14.3002 56.7769 14.3002H55.9749V15.5002L56.7769 15.8002Z" fill="white"/>
<path d="M60.085 13.7002H63.6942V14.7002H61.1878V15.5002H62.6916V16.5002H61.1878V17.5002H63.6942V18.4002H60.085V13.7002Z" fill="white"/>
<path d="M66.5019 13.6996C66.9029 13.6996 67.3039 13.7996 67.6047 13.7996C67.9054 13.8996 68.2062 13.9996 68.507 14.1996C68.7075 14.3996 68.908 14.5996 69.1085 14.8996C69.2088 15.1996 69.309 15.5996 69.309 15.9996C69.309 16.4996 69.2088 16.7996 69.1085 17.0996C69.0083 17.3996 68.7075 17.5996 68.507 17.7996C68.3065 17.9996 68.0057 18.1996 67.6047 18.1996C67.2037 18.2996 66.9029 18.2996 66.5019 18.2996H64.998V13.5996H66.5019V13.6996ZM66.1009 17.4996H66.6021C66.8026 17.4996 67.0031 17.4996 67.2037 17.3996C67.4042 17.2996 67.6047 17.2996 67.7049 17.1996C67.8052 17.0996 67.9054 16.9996 68.106 16.7996C68.3065 16.5996 68.2062 16.3996 68.2062 15.9996C68.2062 15.5996 68.106 15.3996 68.106 15.1996C68.0057 14.9996 67.9054 14.7996 67.7049 14.7996C67.6047 14.6996 67.3039 14.5996 67.2037 14.5996C67.1034 14.5996 66.8026 14.4996 66.6021 14.4996H66.1009V17.4996Z" fill="white"/>
<path d="M75.5246 13.7002C75.7251 13.7002 76.0259 13.7002 76.2264 13.8002C76.4269 13.9002 76.6274 13.9002 76.828 14.0002C76.9282 14.1002 77.1287 14.2002 77.229 14.4002C77.3292 14.5002 77.3292 14.8002 77.3292 15.0002C77.3292 15.2002 77.229 15.4002 77.229 15.6002C77.1287 15.8002 77.0285 15.9002 76.828 16.0002C77.0285 16.1002 77.229 16.2002 77.3292 16.4002C77.4295 16.6002 77.5297 16.8002 77.5297 17.1002C77.5297 17.3002 77.4295 17.6002 77.4295 17.8002C77.3292 18.0002 77.229 18.2002 77.0285 18.3002C76.828 18.4002 76.6274 18.5002 76.4269 18.5002C76.2264 18.6002 75.9257 18.6002 75.6249 18.6002H73.5195V13.9002H75.5246V13.7002ZM74.6223 14.6002V15.6002H75.6249C75.8254 15.6002 76.0259 15.5002 76.0259 15.5002C76.1262 15.4002 76.1262 15.3002 76.1262 15.1002C76.1262 15.0002 76.0259 14.9002 76.0259 14.7002C75.9257 14.6002 75.8254 14.6002 75.6249 14.6002H74.6223ZM74.6223 16.4002V17.5002H75.7251C75.9257 17.5002 76.1262 17.4002 76.2264 17.4002C76.3267 17.3002 76.4269 17.2002 76.4269 17.0002C76.4269 16.8002 76.3267 16.7002 76.2264 16.6002C76.1262 16.5002 75.9257 16.5002 75.7251 16.5002H74.6223V16.4002Z" fill="white"/>
<path d="M78.332 13.7002H79.6353L80.7382 15.5002L81.841 13.7002H83.044L81.2394 16.6002V18.5002H80.1366V16.6002L78.332 13.7002Z" fill="white"/>
</g>
<defs>
<clipPath id="clip0_2234_9282">
<rect width="104.165" height="53.9" fill="white" transform="translate(0.834961)"/>
</clipPath>
</defs>
</svg>
