<svg width="262" height="111" viewBox="0 0 262 111" fill="none" xmlns="http://www.w3.org/2000/svg">
<g clip-path="url(#clip0_2206_25545)">
<path d="M73.6009 8.45766C75.376 8.45766 77.4287 8.96787 79.593 10.4961L108.839 27.4091C108.839 27.4091 114.95 31.0399 114.828 38.6836L114.938 73.9191C114.938 73.9191 115.533 79.9088 108.134 83.4328L79.9442 99.9945C79.9442 99.9945 76.9019 101.883 73.2473 101.883C71.4201 101.883 69.4409 101.411 67.6113 99.9945L35.5462 82.3768C35.5462 82.3768 30.6126 78.1479 31.3174 73.2167V37.6276C31.3174 37.6276 30.6126 31.6379 38.0118 27.4091L67.6089 10.4961C67.6089 10.4961 70.0484 8.45766 73.5962 8.45766M73.6009 8.06847C70.1173 8.06847 67.692 9.93134 67.3906 10.1758L37.8196 27.0721C30.4465 31.2867 30.8784 37.1601 30.9282 37.6489V73.1882C30.2234 78.2618 35.0835 82.493 35.2923 82.671L35.3231 82.6971L35.3587 82.7161L67.3977 100.32C69.0802 101.615 71.0475 102.273 73.2473 102.273C76.9683 102.273 80.0201 100.405 80.1483 100.324L108.314 83.7769C115.619 80.2908 115.353 74.3344 115.324 73.9049L115.215 38.6812C115.336 30.907 109.097 27.1101 109.036 27.0721L79.8018 10.1663C77.825 8.77328 75.7391 8.0661 73.6009 8.0661" fill="#253874"/>
<path d="M73.2499 105.12C70.4877 105.12 67.9983 104.311 65.8483 102.716L33.9493 85.1888C33.7832 85.0963 33.6242 84.9871 33.4795 84.8637L33.4486 84.8376C32.8079 84.2871 27.3332 79.3819 28.0855 73.0054V37.7604C27.9882 36.3556 27.9763 29.4167 36.4102 24.597L65.808 7.8003C66.7121 7.1216 69.6025 5.22076 73.6012 5.22076C76.297 5.22076 78.8979 6.07745 81.3327 7.76471L110.462 24.6112C110.462 24.6112 110.484 24.6231 110.495 24.6302C110.811 24.8177 118.196 29.3336 118.063 38.7002L118.17 73.8218C118.203 74.5123 118.187 76.4654 117.188 78.8124C116.248 81.0193 114.178 84.0996 109.653 86.2947L81.6127 102.769C81.0787 103.094 77.5808 105.123 73.2452 105.123L73.2499 105.12ZM37.2123 80.0416L68.9855 97.5004C69.116 97.5716 69.2418 97.6546 69.3581 97.7448C70.4806 98.6157 71.7549 99.0381 73.2499 99.0381C76.0027 99.0381 78.4304 97.5834 78.4565 97.5692C78.4755 97.5573 78.485 97.5526 78.5039 97.5407L106.694 80.979C106.765 80.9363 106.839 80.8983 106.912 80.8627C112.09 78.3971 112.128 74.7259 112.102 74.1801C112.088 74.0733 112.09 74.0472 112.09 73.9286L111.981 38.6931C111.981 38.6765 111.981 38.6575 111.981 38.6409C112.071 32.9217 107.721 30.0717 107.38 29.8557L78.167 12.9618C78.0934 12.919 78.0198 12.8716 77.9486 12.8217C76.5248 11.8156 75.0606 11.3053 73.6012 11.3053C71.2898 11.3053 69.5812 12.5726 69.4269 12.6912C69.2916 12.8099 69.1849 12.8787 69.0259 12.9689L39.4288 29.8818C33.8212 33.0855 34.1439 37.2526 34.1487 37.2953C34.1606 37.4069 34.1677 37.516 34.1677 37.6276V73.2166C34.1677 73.3519 34.1582 73.4848 34.1392 73.6201C33.7714 76.1972 36.0709 78.969 37.2123 80.044V80.0416Z" fill="#253874"/>
<path d="M38.0215 27.4091L67.6186 10.4961C67.6186 10.4961 73.1052 5.90897 79.5979 10.4961L108.844 27.4091C108.844 27.4091 114.954 31.0399 114.833 38.6836L114.943 73.9191C114.943 73.9191 115.538 79.9087 108.139 83.4328L79.9491 99.9921C79.9491 99.9921 73.1028 104.245 67.6162 99.9921L35.5512 82.3744C35.5512 82.3744 30.6175 78.1455 31.3223 73.2143V37.6276C31.3223 37.6276 30.6175 31.6379 38.0168 27.4091" fill="#253874"/>
<mask id="mask0_2206_25545" style="mask-type:luminance" maskUnits="userSpaceOnUse" x="31" y="8" width="84" height="94">
<path d="M38.0215 27.4091L67.6186 10.4961C67.6186 10.4961 73.1052 5.90897 79.5979 10.4961L108.844 27.4091C108.844 27.4091 114.954 31.0399 114.833 38.6836L114.943 73.9191C114.943 73.9191 115.538 79.9087 108.139 83.4328L79.9491 99.9921C79.9491 99.9921 73.1028 104.245 67.6162 99.9921L35.5512 82.3744C35.5512 82.3744 30.6175 78.1455 31.3223 73.2143V37.6276C31.3223 37.6276 30.6175 31.6379 38.0168 27.4091" fill="white"/>
</mask>
<g mask="url(#mask0_2206_25545)">
<path fill-rule="evenodd" clip-rule="evenodd" d="M90.8823 31.0328C90.6521 31.1633 90.4314 31.3033 90.2178 31.4528L25.7626 69.5906C22.0511 72.2105 21.294 78.11 24.1489 83.1789C27.0037 88.2478 32.4428 90.6564 36.6075 88.8387L101.991 52.3905C102.235 52.2837 102.477 52.1651 102.714 52.0322C107.313 49.4408 108.393 42.6395 105.125 36.8397C101.858 31.0423 95.4813 28.4414 90.8823 31.0304V31.0328ZM91.5823 32.2763C92.14 31.963 92.738 31.7376 93.3621 31.6047C95.2796 31.1965 97.2753 31.6711 98.9745 32.5919C101.044 33.7144 102.731 35.5013 103.882 37.5421C105.033 39.583 105.688 41.9513 105.574 44.3031C105.481 46.2324 104.855 48.1854 103.512 49.614C103.075 50.0791 102.572 50.4754 102.014 50.7887C101.457 51.1019 100.859 51.3274 100.235 51.4603C98.3171 51.8684 96.3214 51.3938 94.6222 50.4731C92.5529 49.3506 90.8657 47.5637 89.7147 45.5228C88.5638 43.482 87.9088 41.1136 88.0227 38.7619C88.1153 36.8326 88.7417 34.8795 90.0849 33.451C90.5239 32.9858 91.0247 32.5895 91.5823 32.2763Z" fill="url(#paint0_linear_2206_25545)"/>
<path fill-rule="evenodd" clip-rule="evenodd" d="M92.2823 33.5174C92.7118 33.2753 93.1769 33.0997 93.661 32.9977C95.2391 32.6607 96.9003 33.0902 98.2957 33.8449C100.128 34.8368 101.62 36.4339 102.638 38.2398C103.656 40.0457 104.247 42.1507 104.148 44.2319C104.072 45.8171 103.576 47.4592 102.47 48.6339C102.131 48.9946 101.741 49.3008 101.312 49.5428C100.882 49.7849 100.417 49.9605 99.9331 50.0625C98.355 50.3995 96.6938 49.9723 95.2985 49.2153C95.1893 49.156 95.0825 49.0943 94.9757 49.0326C94.9852 48.9187 94.9947 48.8071 94.9994 48.6932C95.0896 46.8233 94.5557 44.9295 93.6397 43.3064C92.726 41.6832 91.3829 40.2451 89.736 39.3528C89.6363 39.2982 89.5366 39.246 89.4346 39.1962C89.4346 39.0728 89.4393 38.9494 89.4441 38.826C89.52 37.2408 90.016 35.5986 91.1218 34.4239C91.4612 34.0632 91.8504 33.7571 92.2799 33.515L92.2823 33.5174Z" fill="url(#paint1_linear_2206_25545)"/>
<path fill-rule="evenodd" clip-rule="evenodd" d="M67.0256 14.846C66.8001 14.9836 66.5818 15.1308 66.373 15.2874L3.13038 55.3972C-0.498065 58.1286 -1.07235 64.0518 1.93672 69.0282C4.94816 74.0045 10.4584 76.2471 14.5639 74.3012L78.7889 35.8501C79.031 35.7362 79.2683 35.6104 79.5009 35.4704C84.0168 32.739 84.8854 25.9069 81.442 20.2115C77.9987 14.5161 71.5416 12.1146 67.0256 14.846ZM67.766 16.0658C68.3142 15.7359 68.9051 15.4915 69.5244 15.3396C71.4276 14.8721 73.4376 15.285 75.1652 16.1536C77.2702 17.2096 79.0096 18.9443 80.2223 20.9496C81.4349 22.9548 82.1635 25.3018 82.1231 27.6559C82.0899 29.5876 81.5251 31.5596 80.2247 33.0285C79.8022 33.5079 79.311 33.9184 78.7652 34.2483C78.217 34.5782 77.6261 34.8226 77.0068 34.9745C75.1035 35.442 73.0936 35.029 71.366 34.1605C69.261 33.1045 67.5216 31.3698 66.3089 29.3645C65.0963 27.3592 64.3677 25.0123 64.4081 22.6582C64.4413 20.7265 65.0061 18.7545 66.3065 17.2855C66.729 16.8062 67.2202 16.3956 67.766 16.0658Z" fill="url(#paint2_linear_2206_25545)"/>
<path fill-rule="evenodd" clip-rule="evenodd" d="M68.5041 17.2879C68.9265 17.0316 69.3845 16.8441 69.8662 16.7255C71.4325 16.341 73.1079 16.716 74.5246 17.4279C76.3875 18.3629 77.9276 19.9125 79.0002 21.6876C80.0729 23.4626 80.7302 25.5462 80.6946 27.6298C80.6661 29.215 80.2224 30.8738 79.1545 32.0817C78.827 32.4519 78.4473 32.7699 78.0249 33.0262C77.6025 33.2825 77.1445 33.4699 76.6627 33.5886C75.0965 33.973 73.4211 33.5981 72.0044 32.8862C71.8928 32.8316 71.7837 32.7722 71.6769 32.7129C71.684 32.599 71.6888 32.4851 71.6888 32.3736C71.722 30.5012 71.1287 28.6265 70.1652 27.0318C69.2018 25.4371 67.8159 24.0417 66.1429 23.2016C66.0432 23.1518 65.9388 23.1019 65.8367 23.0545C65.8344 22.9311 65.8344 22.8077 65.8367 22.6843C65.8652 21.0991 66.309 19.4403 67.3769 18.2324C67.7044 17.8622 68.084 17.5442 68.5065 17.2879H68.5041Z" fill="url(#paint3_linear_2206_25545)"/>
<path fill-rule="evenodd" clip-rule="evenodd" d="M94.5817 58.8548C94.3468 58.9782 94.1213 59.1111 93.9054 59.2558L28.3704 95.5023C24.5829 98.013 23.6551 103.889 26.3628 109.038C29.0704 114.188 34.436 116.756 38.6506 115.059L105.066 80.5281C105.315 80.4285 105.56 80.3169 105.799 80.1912C110.472 77.735 111.749 70.967 108.652 65.077C105.555 59.187 99.2543 56.401 94.5841 58.8572L94.5817 58.8548ZM95.2462 60.1173C95.8133 59.8206 96.4161 59.6118 97.045 59.4979C98.9743 59.1443 100.953 59.6782 102.626 60.6488C104.663 61.8306 106.298 63.665 107.387 65.7391C108.476 67.8132 109.062 70.2005 108.882 72.5475C108.732 74.4744 108.049 76.4085 106.665 77.7967C106.215 78.25 105.7 78.6297 105.135 78.9287C104.568 79.2253 103.965 79.4341 103.336 79.548C101.407 79.9016 99.4275 79.3677 97.7545 78.3971C95.7184 77.2153 94.0834 75.3809 92.9941 73.3068C91.9049 71.2328 91.3187 68.8478 91.4991 66.4985C91.6486 64.5715 92.332 62.6375 93.7155 61.2492C94.1664 60.796 94.6814 60.4163 95.2462 60.1173Z" fill="url(#paint4_linear_2206_25545)"/>
<path fill-rule="evenodd" clip-rule="evenodd" d="M95.9109 61.3797C96.3475 61.1495 96.8174 60.9882 97.3039 60.9004C98.8914 60.6109 100.541 61.0855 101.912 61.8828C103.716 62.9294 105.161 64.5668 106.125 66.4035C107.09 68.2403 107.62 70.3595 107.458 72.4359C107.335 74.0164 106.794 75.6443 105.655 76.7881C105.306 77.1394 104.907 77.4336 104.471 77.6638C104.034 77.894 103.564 78.0554 103.078 78.1432C101.49 78.4327 99.8407 77.9581 98.469 77.1607C98.3622 77.099 98.2555 77.0349 98.151 76.9685C98.1653 76.8546 98.1748 76.7431 98.1843 76.6315C98.329 74.7639 97.8497 72.8583 96.9835 71.2067C96.1173 69.5574 94.8169 68.0813 93.196 67.1416C93.0988 67.0846 92.9991 67.03 92.8994 66.9778C92.9042 66.8544 92.9113 66.731 92.9208 66.6076C93.0442 65.0272 93.5852 63.3992 94.7243 62.2554C95.0732 61.9066 95.4718 61.6099 95.9085 61.3797H95.9109Z" fill="url(#paint5_linear_2206_25545)"/>
</g>
<path d="M129.25 48.7265V20.1831H141.939C145.064 20.1831 147.198 20.8024 148.334 22.0436C149.471 23.2847 150.041 25.6056 150.041 29.0062C150.041 32.4068 149.447 34.4928 148.265 35.6769C147.081 36.8611 144.858 37.4544 141.597 37.4544L140.377 37.4757H132.38V48.7265H129.255H129.25ZM132.375 34.7585H139.786C142.886 34.7585 144.872 34.4311 145.745 33.7761C146.619 33.1211 147.055 31.6166 147.055 29.2601C147.055 26.5002 146.761 24.7536 146.172 24.0227C145.584 23.2894 144.186 22.924 141.979 22.924L140.781 22.9026H132.375V34.7585Z" fill="white"/>
<path d="M170.805 42.6823H156.778L154.647 48.7265H151.339L161.489 20.1831H165.874L176.228 48.7265H172.96L170.808 42.6823H170.805ZM169.892 40.257L163.741 22.8172L157.67 40.257H169.892Z" fill="white"/>
<path d="M209.481 20.1831V48.7265H206.356V24.177L206.377 23.3203L206.396 22.4612H206.316L206.071 23.1304C205.95 23.465 205.867 23.681 205.829 23.7783L205.3 25.1167L195.86 48.7241H192.735L183.273 25.3896L182.725 24.0702L182.481 23.4033C182.412 23.2515 182.331 23.0331 182.239 22.7531H182.158L182.179 23.5291L182.201 24.3217V48.7241H179.075V20.1807H184.495L191.885 38.6456L193.062 41.6357L193.651 43.1213L194.22 44.6044H194.301L194.87 43.1213C195.155 42.4093 195.343 41.9134 195.44 41.6357L196.638 38.667L203.988 20.1831H209.489H209.481Z" fill="white"/>
<path d="M232.909 39.1914H236.015V40.2783C236.015 44.1678 235.372 46.5978 234.086 47.566C232.8 48.5343 229.565 49.0184 224.382 49.0184C219.74 49.0184 216.791 48.1641 215.531 46.4578C214.273 44.7492 213.644 40.7316 213.644 34.4026C213.644 29.4547 213.786 26.3412 214.069 25.0669C214.354 23.7901 215.165 22.6511 216.506 21.6473C218.075 20.4773 221.466 19.8912 226.677 19.8912C230.211 19.8912 232.588 20.456 233.813 21.5832C235.037 22.7128 235.65 24.8936 235.65 28.1281L235.671 28.9018H232.565L232.543 28.0237C232.543 25.7218 232.18 24.2458 231.456 23.5884C230.733 22.9335 229.098 22.606 226.554 22.606C222.087 22.606 219.358 22.9904 218.371 23.7569C217.384 24.5234 216.888 26.6497 216.888 30.1334C216.888 38.1497 217.22 42.8484 217.882 44.2271C218.544 45.6082 220.813 46.2964 224.684 46.2964C228.554 46.2964 230.661 45.9974 231.575 45.397C232.489 44.7967 232.947 43.2921 232.947 40.8787L232.906 39.1867L232.909 39.1914Z" fill="white"/>
<path d="M256.58 42.6823H242.553L240.422 48.7265H237.114L247.263 20.1831H251.649L262.003 48.7265H258.735L256.583 42.6823H256.58ZM255.667 40.257L249.515 22.8172L243.445 40.257H255.667Z" fill="white"/>
<path d="M149.654 58.9094H146.547C146.547 56.6098 146.175 55.1504 145.432 54.5286C144.687 53.9093 142.936 53.5984 140.173 53.5984C136.898 53.5984 134.786 53.895 133.84 54.4883C132.893 55.0816 132.418 56.401 132.418 58.4513C132.418 60.7509 132.791 62.151 133.536 62.6541C134.281 63.1548 136.493 63.4965 140.173 63.6769C144.49 63.8715 147.236 64.4386 148.406 65.3713C149.575 66.3062 150.162 68.3969 150.162 71.6433C150.162 75.1555 149.488 77.4289 148.142 78.4612C146.794 79.4935 143.821 80.0084 139.219 80.0084C135.228 80.0084 132.57 79.4911 131.251 78.4517C129.931 77.4123 129.271 75.3168 129.271 72.1677L129.25 70.891H132.356V71.6006C132.356 74.1516 132.736 75.7369 133.493 76.3586C134.25 76.978 136.194 77.2889 139.319 77.2889C142.905 77.2889 145.112 76.978 145.937 76.3586C146.763 75.7392 147.176 74.0828 147.176 71.3918C147.176 69.6499 146.894 68.4895 146.334 67.9104C145.771 67.3314 144.597 66.9873 142.812 66.8758L139.563 66.7073L136.478 66.5412C131.782 66.2066 129.433 63.6982 129.433 59.0138C129.433 55.765 130.116 53.596 131.483 52.5092C132.85 51.4223 135.577 50.8788 139.665 50.8788C143.754 50.8788 146.507 51.3843 147.765 52.3952C149.022 53.4062 149.654 55.5775 149.654 58.907V58.9094Z" fill="#253874"/>
<path d="M163.579 54.1632V79.7165H160.454V54.1632H151.419V51.1731H172.533V54.1632H163.579Z" fill="#253874"/>
<path d="M177.324 53.8926V63.6152H191.392V66.3347H177.324V76.9993H192.002V79.7165H174.196V51.1731H192.002V53.8903H177.324V53.8926Z" fill="#253874"/>
<path d="M198.032 53.8926V63.6152H212.099V66.3347H198.032V76.9993H212.709V79.7165H194.904V51.1731H212.709V53.8903H198.032V53.8926Z" fill="#253874"/>
<path d="M219.857 51.1731V76.7264H234.107V79.7165H216.729V51.1731H219.854H219.857Z" fill="#253874"/>
</g>
<defs>
<linearGradient id="paint0_linear_2206_25545" x1="22.4141" y1="59.7352" x2="107.012" y2="59.7352" gradientUnits="userSpaceOnUse">
<stop stop-color="#253874"/>
<stop offset="1" stop-color="#009DE1"/>
</linearGradient>
<linearGradient id="paint1_linear_2206_25545" x1="89.4369" y1="41.5313" x2="104.16" y2="41.5313" gradientUnits="userSpaceOnUse">
<stop stop-color="#253874"/>
<stop offset="1" stop-color="#009DE1"/>
</linearGradient>
<linearGradient id="paint2_linear_2206_25545" x1="0.000281902" y1="44.3576" x2="83.5493" y2="44.3576" gradientUnits="userSpaceOnUse">
<stop stop-color="#253874"/>
<stop offset="1" stop-color="#009DE1"/>
</linearGradient>
<linearGradient id="paint3_linear_2206_25545" x1="65.832" y1="25.157" x2="80.697" y2="25.157" gradientUnits="userSpaceOnUse">
<stop stop-color="#253874"/>
<stop offset="1" stop-color="#009DE1"/>
</linearGradient>
<linearGradient id="paint4_linear_2206_25545" x1="24.806" y1="86.7693" x2="110.341" y2="86.7693" gradientUnits="userSpaceOnUse">
<stop stop-color="#253874"/>
<stop offset="1" stop-color="#009DE1"/>
</linearGradient>
<linearGradient id="paint5_linear_2206_25545" x1="92.9018" y1="69.5218" x2="107.487" y2="69.5218" gradientUnits="userSpaceOnUse">
<stop stop-color="#253874"/>
<stop offset="1" stop-color="#009DE1"/>
</linearGradient>
<clipPath id="clip0_2206_25545">
<rect width="262" height="110.358" fill="white"/>
</clipPath>
</defs>
</svg>
