<svg width="500" height="211" viewBox="0 0 500 211" fill="none" xmlns="http://www.w3.org/2000/svg">
<g clip-path="url(#clip0_2206_25579)">
<path d="M246.66 103.227V48.6528H270.876C276.84 48.6528 280.911 49.8371 283.081 52.21C285.25 54.583 286.337 59.0204 286.337 65.5223C286.337 72.0242 285.205 76.0124 282.949 78.2765C280.689 80.5406 276.446 81.6749 270.223 81.6749L267.896 81.7157H252.634V103.227H246.669H246.66ZM252.625 76.5206H266.768C272.683 76.5206 276.473 75.8945 278.14 74.6422C279.806 73.3899 280.64 70.5133 280.64 66.0078C280.64 60.731 280.078 57.3916 278.955 55.9941C277.832 54.5921 275.164 53.8934 270.953 53.8934L268.665 53.8525H252.625V76.5206Z" fill="#253874"/>
<path d="M325.964 91.6705H299.194L295.127 103.227H288.814L308.184 48.6528H316.553L336.312 103.227H330.076L325.968 91.6705H325.964ZM324.22 87.0334L312.481 53.6892L300.897 87.0334H324.22Z" fill="#253874"/>
<path d="M399.774 48.6528V103.227H393.809V56.289L393.85 54.6511L393.886 53.0086H393.732L393.266 54.2881C393.035 54.9278 392.877 55.3407 392.804 55.5268L391.794 58.0858L373.779 103.222H367.814L349.758 58.6075L348.712 56.0848L348.245 54.8099C348.114 54.5195 347.96 54.1021 347.783 53.5667H347.629L347.67 55.0504L347.711 56.5658V103.222H341.747V48.6483H352.09L366.193 83.9526L368.439 89.6695L369.562 92.5098L370.649 95.3456H370.803L371.89 92.5098C372.434 91.1487 372.791 90.2004 372.977 89.6695L375.264 83.9934L389.29 48.6528H399.787H399.774Z" fill="#253874"/>
<path d="M444.482 84.9962H450.41V87.0742C450.41 94.5108 449.183 99.1569 446.728 101.008C444.274 102.859 438.101 103.785 428.21 103.785C419.352 103.785 413.722 102.151 411.318 98.8892C408.917 95.6224 407.717 87.9408 407.717 75.84C407.717 66.3799 407.989 60.427 408.528 57.9905C409.071 55.5494 410.62 53.3716 413.179 51.4523C416.173 49.2155 422.644 48.0948 432.589 48.0948C439.333 48.0948 443.871 49.1746 446.207 51.3298C448.544 53.4895 449.713 57.6593 449.713 63.8435L449.753 65.3227H443.825L443.784 63.6439C443.784 59.2428 443.092 56.4206 441.71 55.1638C440.329 53.9115 437.209 53.2854 432.354 53.2854C423.831 53.2854 418.623 54.0204 416.739 55.4859C414.855 56.9515 413.908 61.0168 413.908 67.6775C413.908 83.0043 414.542 91.9881 415.806 94.6242C417.069 97.2649 421.399 98.5807 428.785 98.5807C436.172 98.5807 440.193 98.009 441.937 96.8611C443.68 95.7131 444.554 92.8365 444.554 88.2221L444.477 84.9871L444.482 84.9962Z" fill="#253874"/>
<path d="M489.656 91.6705H462.887L458.82 103.227H452.507L471.876 48.6528H480.246L500.005 103.227H493.769L489.661 91.6705H489.656ZM487.913 87.0334L476.174 53.6892L464.59 87.0334H487.913Z" fill="#253874"/>
<path d="M285.599 122.696H279.67C279.67 118.3 278.959 115.509 277.542 114.32C276.12 113.136 272.778 112.542 267.506 112.542C261.256 112.542 257.226 113.109 255.419 114.243C253.612 115.378 252.706 117.9 252.706 121.82C252.706 126.217 253.417 128.894 254.839 129.856C256.261 130.813 260.482 131.467 267.506 131.811C275.744 132.183 280.984 133.268 283.216 135.051C285.449 136.839 286.568 140.836 286.568 147.043C286.568 153.758 285.282 158.105 282.714 160.078C280.141 162.052 274.467 163.037 265.686 163.037C258.068 163.037 252.996 162.048 250.478 160.06C247.96 158.073 246.701 154.067 246.701 148.046L246.66 145.605H252.588V146.961C252.588 151.839 253.313 154.87 254.758 156.058C256.202 157.243 259.911 157.837 265.876 157.837C272.719 157.837 276.93 157.243 278.507 156.058C280.083 154.874 280.871 151.707 280.871 146.562C280.871 143.232 280.332 141.013 279.263 139.906C278.19 138.799 275.948 138.141 272.542 137.928L266.342 137.606L260.455 137.288C251.492 136.648 247.009 131.852 247.009 122.896C247.009 116.684 248.313 112.537 250.922 110.459C253.53 108.381 258.734 107.342 266.537 107.342C274.34 107.342 279.593 108.309 281.994 110.241C284.394 112.174 285.599 116.326 285.599 122.692V122.696Z" fill="#009DE1"/>
<path d="M312.173 113.622V162.479H306.209V113.622H288.968V107.905H329.26V113.622H312.173Z" fill="#009DE1"/>
<path d="M338.404 113.1V131.689H365.251V136.889H338.404V157.279H366.415V162.474H332.435V107.9H366.415V113.095H338.404V113.1Z" fill="#009DE1"/>
<path d="M377.923 113.1V131.689H404.769V136.889H377.923V157.279H405.933V162.474H371.954V107.9H405.933V113.095H377.923V113.1Z" fill="#009DE1"/>
<path d="M419.573 107.905V156.762H446.769V162.479H413.604V107.905H419.569H419.573Z" fill="#009DE1"/>
<path d="M140.46 16.1707C143.848 16.1707 147.765 17.1462 151.896 20.0682L207.708 52.4052C207.708 52.4052 219.37 59.3471 219.139 73.9616L219.347 141.331C219.347 141.331 220.484 152.783 206.363 159.52L152.566 191.186C152.566 191.186 146.76 194.798 139.786 194.798C136.298 194.798 132.521 193.895 129.03 191.186L67.8368 157.501C67.8368 157.501 58.4215 149.416 59.7666 139.988V71.9425C59.7666 71.9425 58.4215 60.4905 72.5422 52.4052L129.025 20.0682C129.025 20.0682 133.681 16.1707 140.451 16.1707M140.46 15.4266C133.812 15.4266 129.184 18.9884 128.609 19.4557L72.1754 51.7609C58.1045 59.819 58.9287 71.0487 59.0238 71.9834V139.933C57.6788 149.634 66.9537 157.724 67.3523 158.064L67.4111 158.114L67.4791 158.15L128.622 191.807C131.833 194.285 135.587 195.542 139.786 195.542C146.887 195.542 152.711 191.971 152.955 191.817L206.707 160.178C220.647 153.513 220.14 142.125 220.085 141.303L219.877 73.9571C220.108 59.0931 208.202 51.8335 208.084 51.7609L152.294 19.4376C148.522 16.7742 144.541 15.4221 140.46 15.4221" fill="#009DE1"/>
<path d="M139.79 200.986C134.518 200.986 129.768 199.439 125.665 196.39L64.7978 162.887C64.4763 162.71 64.1684 162.497 63.8876 162.261L63.8287 162.211C62.6059 161.158 52.158 151.78 53.5936 139.588V72.2012C53.408 69.5151 53.3808 56.2482 69.4806 47.0331L125.588 14.9139C127.313 13.6163 132.829 9.98193 140.46 9.98193C145.605 9.98193 150.568 11.6199 155.215 14.8459L210.806 47.0558C210.806 47.0558 210.842 47.0784 210.86 47.0875C211.462 47.446 225.565 56.0486 225.311 73.9934L225.515 141.14C225.579 142.46 225.551 146.195 223.64 150.682C221.847 154.902 217.898 160.791 209.261 164.988L155.745 196.49C154.735 197.107 148.037 200.986 139.781 200.986H139.79ZM71.0159 153.037L131.652 186.417C131.901 186.553 132.141 186.712 132.363 186.885C134.505 188.55 136.937 189.357 139.79 189.357C145.066 189.357 149.658 186.59 149.703 186.562C149.74 186.54 149.78 186.517 149.817 186.494L203.614 154.829C203.75 154.747 203.89 154.675 204.031 154.607C213.912 149.892 213.985 142.873 213.935 141.83C213.908 141.626 213.912 141.576 213.912 141.349L213.704 73.9798C213.704 73.9435 213.704 73.9117 213.704 73.8799C213.876 62.7546 205.344 57.3417 204.945 57.0967L149.174 24.7824C149.033 24.7008 148.893 24.61 148.757 24.5147C146.04 22.5909 143.25 21.6154 140.465 21.6154C135.868 21.6154 132.553 24.2198 132.521 24.247C132.277 24.4557 132.009 24.6372 131.733 24.796L75.2503 57.133C65.0107 62.9951 65.1375 70.5723 65.1828 71.3527C65.219 71.5932 65.2145 71.6748 65.2145 71.9425V139.988C65.2145 140.246 65.1964 140.5 65.1602 140.759C64.4582 145.686 68.8466 150.986 71.0249 153.041L71.0159 153.037Z" fill="#009DE1"/>
<path d="M72.5603 52.4052L129.043 20.0682C129.043 20.0682 139.514 11.2977 151.905 20.0682L207.717 52.4052C207.717 52.4052 219.379 59.3471 219.148 73.9616L219.356 141.331C219.356 141.331 220.493 152.783 206.372 159.52L152.575 191.181C152.575 191.181 139.509 199.312 129.039 191.181L67.8458 157.497C67.8458 157.497 58.4305 149.411 59.7756 139.983V71.9425C59.7756 71.9425 58.4305 60.4905 72.5512 52.4052" fill="#253874"/>
<mask id="mask0_2206_25579" style="mask-type:luminance" maskUnits="userSpaceOnUse" x="59" y="16" width="161" height="179">
<path d="M72.5603 52.4052L129.043 20.0682C129.043 20.0682 139.514 11.2977 151.905 20.0682L207.717 52.4052C207.717 52.4052 219.379 59.3471 219.148 73.9616L219.356 141.331C219.356 141.331 220.493 152.783 206.372 159.52L152.575 191.181C152.575 191.181 139.509 199.312 129.039 191.181L67.8458 157.497C67.8458 157.497 58.4305 149.411 59.7756 139.983V71.9425C59.7756 71.9425 58.4305 60.4905 72.5512 52.4052" fill="white"/>
</mask>
<g mask="url(#mask0_2206_25579)">
<path fill-rule="evenodd" clip-rule="evenodd" d="M173.439 59.3335C173 59.5831 172.578 59.8508 172.171 60.1366L49.1646 133.055C42.0816 138.064 40.6369 149.343 46.0851 159.035C51.5332 168.726 61.9131 173.332 69.8611 169.856L194.638 100.169C195.105 99.9646 195.566 99.7377 196.019 99.4836C204.796 94.5289 206.857 81.5252 200.621 70.4362C194.384 59.3517 182.216 54.3789 173.439 59.329V59.3335ZM174.775 61.7065C175.839 61.1076 176.98 60.6766 178.171 60.4225C181.831 59.6421 185.639 60.5495 188.882 62.31C192.831 64.4561 196.051 67.8726 198.248 71.7747C200.444 75.6767 201.694 80.2049 201.477 84.7013C201.3 88.39 200.104 92.1242 197.541 94.8556C196.708 95.7449 195.748 96.5026 194.683 97.1015C193.619 97.7005 192.478 98.1315 191.287 98.3856C187.628 99.166 183.819 98.2585 180.576 96.4981C176.627 94.352 173.407 90.9354 171.211 87.0334C169.014 83.1314 167.764 78.6032 167.982 74.1068C168.158 70.418 169.354 66.6839 171.917 63.9524C172.755 63.0631 173.711 62.3054 174.775 61.7065Z" fill="url(#paint0_linear_2206_25579)"/>
<path fill-rule="evenodd" clip-rule="evenodd" d="M176.111 64.084C176.931 63.6212 177.818 63.2855 178.742 63.0904C181.754 62.4461 184.924 63.2673 187.587 64.7102C191.083 66.6067 193.932 69.6603 195.874 73.1131C197.817 76.566 198.945 80.5905 198.755 84.5697C198.61 87.6006 197.663 90.7403 195.553 92.9863C194.905 93.6759 194.163 94.2612 193.343 94.724C192.523 95.1868 191.635 95.5226 190.712 95.7177C187.7 96.362 184.53 95.5453 181.867 94.0979C181.659 93.9845 181.455 93.8665 181.251 93.7485C181.269 93.5307 181.287 93.3175 181.296 93.0997C181.468 89.5244 180.449 85.9036 178.701 82.8002C176.958 79.6967 174.394 76.9471 171.251 75.2411C171.061 75.1368 170.871 75.0369 170.676 74.9417C170.676 74.7057 170.685 74.4698 170.694 74.2338C170.839 71.203 171.786 68.0632 173.896 65.8173C174.544 65.1276 175.287 64.5423 176.106 64.0795L176.111 64.084Z" fill="url(#paint1_linear_2206_25579)"/>
<path fill-rule="evenodd" clip-rule="evenodd" d="M127.911 28.385C127.481 28.6482 127.064 28.9295 126.666 29.2289L5.97356 105.917C-0.95095 111.14 -2.04691 122.465 3.69558 131.979C9.4426 141.494 19.9584 145.782 27.7932 142.061L150.36 68.5441C150.822 68.3264 151.275 68.0859 151.719 67.8182C160.337 62.5958 161.995 49.5331 155.423 38.6437C148.852 27.7543 136.529 23.1626 127.911 28.385ZM129.324 30.7171C130.37 30.0865 131.498 29.6191 132.68 29.3287C136.312 28.4349 140.148 29.2244 143.445 30.885C147.462 32.9041 150.781 36.2208 153.096 40.0548C155.41 43.8888 156.8 48.3761 156.723 52.877C156.66 56.5704 155.582 60.3408 153.1 63.1494C152.294 64.0659 151.356 64.8508 150.315 65.4815C149.273 66.1122 148.141 66.5795 146.959 66.8699C143.327 67.7637 139.491 66.9743 136.194 65.3136C132.177 63.2945 128.857 59.9778 126.543 56.1439C124.229 52.3099 122.839 47.8225 122.916 43.3216C122.979 39.6283 124.057 35.8578 126.539 33.0493C127.345 32.1328 128.282 31.3478 129.324 30.7171Z" fill="url(#paint2_linear_2206_25579)"/>
<path fill-rule="evenodd" clip-rule="evenodd" d="M130.732 33.0493C131.539 32.5593 132.413 32.2008 133.332 31.974C136.321 31.2389 139.518 31.9558 142.222 33.317C145.777 35.1046 148.716 38.0675 150.763 41.4613C152.81 44.8552 154.065 48.8389 153.997 52.8226C153.942 55.8535 153.096 59.025 151.058 61.3345C150.433 62.0423 149.708 62.6503 148.902 63.1403C148.096 63.6303 147.222 63.9887 146.302 64.2156C143.313 64.9506 140.116 64.2338 137.412 62.8726C137.2 62.7682 136.991 62.6548 136.787 62.5414C136.801 62.3236 136.81 62.1058 136.81 61.8925C136.873 58.3127 135.741 54.7282 133.903 51.6792C132.064 48.6302 129.419 45.9623 126.226 44.3561C126.036 44.2608 125.837 44.1655 125.642 44.0748C125.638 43.8388 125.638 43.6029 125.642 43.367C125.696 40.3361 126.543 37.1646 128.581 34.8551C129.206 34.1473 129.931 33.5393 130.737 33.0493H130.732Z" fill="url(#paint3_linear_2206_25579)"/>
<path fill-rule="evenodd" clip-rule="evenodd" d="M180.499 112.528C180.051 112.764 179.62 113.018 179.208 113.295L54.1415 182.597C46.9135 187.397 45.1428 198.631 50.3101 208.477C55.4774 218.323 65.717 223.232 73.7601 219.988L200.507 153.967C200.983 153.776 201.449 153.563 201.906 153.323C210.824 148.626 213.26 135.686 207.35 124.425C201.44 113.163 189.416 107.837 180.503 112.533L180.499 112.528ZM181.767 114.942C182.849 114.375 184 113.976 185.2 113.758C188.882 113.082 192.659 114.103 195.852 115.958C199.737 118.218 202.858 121.725 204.936 125.691C207.015 129.656 208.134 134.221 207.789 138.708C207.504 142.392 206.2 146.09 203.56 148.744C202.699 149.611 201.716 150.337 200.638 150.909C199.556 151.476 198.406 151.875 197.206 152.093C193.524 152.769 189.747 151.748 186.554 149.892C182.668 147.633 179.548 144.126 177.469 140.16C175.39 136.194 174.272 131.635 174.616 127.143C174.901 123.458 176.206 119.761 178.846 117.106C179.706 116.24 180.689 115.514 181.767 114.942Z" fill="url(#paint4_linear_2206_25579)"/>
<path fill-rule="evenodd" clip-rule="evenodd" d="M183.035 117.356C183.868 116.916 184.765 116.607 185.694 116.439C188.723 115.886 191.871 116.793 194.488 118.318C197.93 120.319 200.688 123.449 202.527 126.961C204.37 130.473 205.38 134.525 205.072 138.495C204.837 141.517 203.804 144.629 201.63 146.816C200.965 147.488 200.204 148.05 199.37 148.49C198.537 148.93 197.64 149.239 196.712 149.407C193.682 149.96 190.535 149.053 187.917 147.528C187.713 147.411 187.51 147.288 187.31 147.161C187.337 146.943 187.356 146.73 187.374 146.517C187.65 142.946 186.735 139.302 185.082 136.145C183.429 132.991 180.947 130.169 177.854 128.372C177.669 128.263 177.478 128.159 177.288 128.059C177.297 127.823 177.311 127.587 177.329 127.351C177.564 124.33 178.597 121.217 180.771 119.03C181.436 118.363 182.197 117.796 183.031 117.356H183.035Z" fill="url(#paint5_linear_2206_25579)"/>
</g>
</g>
<defs>
<linearGradient id="paint0_linear_2206_25579" x1="42.7745" y1="114.211" x2="204.221" y2="114.211" gradientUnits="userSpaceOnUse">
<stop stop-color="#253874"/>
<stop offset="1" stop-color="#009DE1"/>
</linearGradient>
<linearGradient id="paint1_linear_2206_25579" x1="170.681" y1="79.4063" x2="198.777" y2="79.4063" gradientUnits="userSpaceOnUse">
<stop stop-color="#253874"/>
<stop offset="1" stop-color="#009DE1"/>
</linearGradient>
<linearGradient id="paint2_linear_2206_25579" x1="9.44284e-05" y1="84.8102" x2="159.445" y2="84.8102" gradientUnits="userSpaceOnUse">
<stop stop-color="#253874"/>
<stop offset="1" stop-color="#009DE1"/>
</linearGradient>
<linearGradient id="paint3_linear_2206_25579" x1="125.633" y1="48.0993" x2="154.001" y2="48.0993" gradientUnits="userSpaceOnUse">
<stop stop-color="#253874"/>
<stop offset="1" stop-color="#009DE1"/>
</linearGradient>
<linearGradient id="paint4_linear_2206_25579" x1="47.3392" y1="165.9" x2="210.575" y2="165.9" gradientUnits="userSpaceOnUse">
<stop stop-color="#253874"/>
<stop offset="1" stop-color="#009DE1"/>
</linearGradient>
<linearGradient id="paint5_linear_2206_25579" x1="177.293" y1="132.923" x2="205.127" y2="132.923" gradientUnits="userSpaceOnUse">
<stop stop-color="#253874"/>
<stop offset="1" stop-color="#009DE1"/>
</linearGradient>
<clipPath id="clip0_2206_25579">
<rect width="500" height="211" fill="white"/>
</clipPath>
</defs>
</svg>
