<svg width="262" height="110" viewBox="0 0 262 110" fill="none" xmlns="http://www.w3.org/2000/svg">
<g clip-path="url(#clip0_2206_25513)">
<path d="M73.6009 8.43024C75.376 8.43024 77.4287 8.93879 79.593 10.4621L108.839 27.3202C108.839 27.3202 114.95 30.9393 114.828 38.5582L114.938 73.6795C114.938 73.6795 115.533 79.6497 108.134 83.1623L79.9442 99.6703C79.9442 99.6703 76.9019 101.553 73.2473 101.553C71.4201 101.553 69.4409 101.082 67.6113 99.6703L35.5462 82.1097C35.5462 82.1097 30.6126 77.8946 31.3174 72.9793V37.5056C31.3174 37.5056 30.6126 31.5353 38.0118 27.3202L67.6089 10.4621C67.6089 10.4621 70.0484 8.43024 73.5962 8.43024M73.6009 8.04231C70.1173 8.04231 67.692 9.89914 67.3906 10.1428L37.8196 26.9843C30.4465 31.1853 30.8784 37.0396 30.9282 37.5269V72.9509C30.2234 78.0081 35.0835 82.2256 35.2923 82.403L35.3231 82.429L35.3587 82.448L67.3977 99.9944C69.0802 101.286 71.0475 101.941 73.2473 101.941C76.9683 101.941 80.0201 100.08 80.1483 99.9991L108.314 83.5053C115.619 80.0305 115.353 74.0934 115.324 73.6653L115.215 38.5558C115.336 30.8068 109.097 27.0222 109.036 26.9843L79.8018 10.1333C77.825 8.74483 75.7391 8.03995 73.6009 8.03995" fill="#009DE1"/>
<path d="M73.2499 104.78C70.4876 104.78 67.9982 103.973 65.8482 102.383L33.9516 84.9151C33.7808 84.8228 33.6218 84.7116 33.4746 84.5863L33.4438 84.5603C32.8078 84.0162 27.3307 79.1246 28.083 72.7712V37.6404C27.9857 36.2401 27.9715 29.3237 36.4078 24.5196L65.8079 7.77503C66.712 7.09853 69.6024 5.20386 73.6011 5.20386C76.2969 5.20386 78.8978 6.05776 81.3326 7.73955L110.462 24.5314C110.462 24.5314 110.481 24.5433 110.493 24.548C110.809 24.7349 118.196 29.2244 118.065 38.5748L118.172 73.5801C118.205 74.2685 118.191 76.2152 117.19 78.5545C116.25 80.7543 114.181 83.8246 109.655 86.0126L81.615 102.433C81.0858 102.755 77.5807 104.78 73.2475 104.78H73.2499ZM37.2265 79.7893L68.9854 97.182C69.1159 97.2529 69.2417 97.3357 69.358 97.4256C70.4805 98.2937 71.7548 98.7147 73.2499 98.7147C76.0026 98.7147 78.4303 97.2648 78.4564 97.2506C78.4754 97.2387 78.4849 97.234 78.5038 97.2222L106.694 80.7141C106.765 80.6716 106.838 80.6337 106.912 80.5982C112.092 78.1406 112.128 74.4813 112.102 73.9373C112.088 73.8309 112.09 73.8048 112.09 73.6866L111.981 38.5653C111.981 38.5487 111.981 38.5298 111.981 38.5133C112.071 32.7133 107.598 29.8914 107.391 29.7637L78.1669 12.9174C78.0933 12.8748 78.0197 12.8275 77.9485 12.7778C76.5247 11.7749 75.0629 11.2663 73.6034 11.2663C73.6034 11.2663 73.6034 11.2663 73.6011 11.2663C71.2897 11.2663 69.5787 12.5318 69.4268 12.6477C69.2915 12.766 69.1848 12.8322 69.0258 12.9245L39.4263 29.7826C34.0608 32.8387 34.1296 36.7889 34.151 37.1957C34.17 37.3211 34.1676 37.3637 34.1676 37.5032V72.977C34.1676 73.1118 34.1581 73.2442 34.1391 73.3791C33.7357 76.1986 36.4932 79.0797 37.2265 79.7893Z" fill="#009DE1"/>
<path d="M38.0215 27.3202L67.6186 10.4621C67.6186 10.4621 73.1052 5.88983 79.5979 10.4621L108.844 27.3202C108.844 27.3202 114.954 30.9393 114.833 38.5582L114.943 73.6795C114.943 73.6795 115.538 79.6497 108.139 83.1623L79.9491 99.668C79.9491 99.668 73.1028 103.907 67.6162 99.668L35.5512 82.1074C35.5512 82.1074 30.6175 77.8922 31.3223 72.977V37.5056C31.3223 37.5056 30.6175 31.5354 38.0168 27.3202" fill="#253874"/>
<mask id="mask0_2206_25513" style="mask-type:luminance" maskUnits="userSpaceOnUse" x="31" y="8" width="84" height="94">
<path d="M38.0215 27.4057L67.6186 10.5475C67.6186 10.5475 73.1052 5.97525 79.5979 10.5475L108.844 27.4057C108.844 27.4057 114.954 31.0247 114.833 38.6436L114.943 73.7649C114.943 73.7649 115.538 79.7351 108.139 83.2477L79.9491 99.7534C79.9491 99.7534 73.1028 103.992 67.6162 99.7534L35.5512 82.1928C35.5512 82.1928 30.6175 77.9777 31.3223 73.0624V37.591C31.3223 37.591 30.6175 31.6208 38.0168 27.4057" fill="white"/>
</mask>
<g mask="url(#mask0_2206_25513)">
<path fill-rule="evenodd" clip-rule="evenodd" d="M90.8823 31.0176C90.6521 31.1477 90.4314 31.2873 90.2178 31.4363L25.7626 69.4504C22.0511 72.0618 21.294 77.9422 24.1489 82.9946C27.0037 88.0471 32.4428 90.448 36.6075 88.6361L101.991 52.3061C102.235 52.1996 102.477 52.0814 102.714 51.9489C107.313 49.3659 108.393 42.5867 105.125 36.8057C101.858 31.0271 95.4813 28.4346 90.8823 31.0152V31.0176ZM91.5823 32.2547C92.14 31.9425 92.738 31.7178 93.3621 31.5853C95.2796 31.1784 97.2753 31.6515 98.9745 32.5693C101.044 33.6881 102.731 35.4693 103.882 37.5035C105.033 39.5377 105.688 41.8984 105.574 44.2425C105.481 46.1655 104.855 48.1123 103.512 49.5362C103.075 49.9998 102.572 50.3949 102.014 50.7071C101.457 51.0193 100.859 51.244 100.235 51.3765C98.3171 51.7833 96.3214 51.3103 94.6222 50.3925C92.5529 49.2737 90.8657 47.4925 89.7147 45.4583C88.5638 43.4241 87.9088 41.0634 88.0227 38.7193C88.1153 36.7962 88.7417 34.8495 90.0849 33.4256C90.5239 32.9619 91.0247 32.5669 91.5823 32.2547Z" fill="url(#paint0_linear_2206_25513)"/>
<path fill-rule="evenodd" clip-rule="evenodd" d="M92.2823 33.4941C92.7118 33.2529 93.1769 33.0778 93.661 32.9761C95.2391 32.6402 96.9003 33.0684 98.2957 33.8206C100.128 34.8093 101.62 36.4012 102.638 38.2013C103.656 40.0013 104.247 42.0994 104.148 44.1739C104.072 45.754 103.576 47.3908 102.47 48.5617C102.131 48.9212 101.741 49.2263 101.312 49.4676C100.882 49.7089 100.417 49.8839 99.9331 49.9856C98.355 50.3215 96.6938 49.8957 95.2985 49.1412C95.1893 49.0821 95.0825 49.0206 94.9757 48.9591C94.9852 48.8455 94.9947 48.7343 94.9994 48.6208C95.0896 46.7569 94.5557 44.8693 93.6397 43.2514C92.726 41.6335 91.3829 40.2 89.736 39.3106C89.6363 39.2562 89.5366 39.2042 89.4346 39.1545C89.4346 39.0315 89.4393 38.9085 89.4441 38.7855C89.52 37.2054 90.016 35.5686 91.1218 34.3977C91.4612 34.0382 91.8504 33.7331 92.2799 33.4918L92.2823 33.4941Z" fill="url(#paint1_linear_2206_25513)"/>
<path fill-rule="evenodd" clip-rule="evenodd" d="M67.0256 14.8833C66.8001 15.0205 66.5818 15.1671 66.373 15.3233L3.13038 55.303C-0.498065 58.0256 -1.07235 63.9296 1.93672 68.8898C4.94816 73.85 10.4584 76.0853 14.5639 74.1457L78.7889 35.8193C79.031 35.7058 79.2683 35.5804 79.5009 35.4409C84.0168 32.7183 84.8854 25.9084 81.442 20.2314C77.9987 14.5545 71.5416 12.1607 67.0256 14.8833ZM67.766 16.0991C68.3142 15.7703 68.9051 15.5267 69.5244 15.3753C71.4276 14.9093 73.4376 15.3209 75.1652 16.1866C77.2702 17.2392 79.0096 18.9683 80.2223 20.9671C81.4349 22.9658 82.1635 25.3052 82.1231 27.6517C82.0899 29.5771 81.5251 31.5427 80.2247 33.0069C79.8022 33.4847 79.311 33.8939 78.7652 34.2227C78.217 34.5515 77.6261 34.7951 77.0068 34.9465C75.1035 35.4125 73.0936 35.0009 71.366 34.1352C69.261 33.0826 67.5216 31.3535 66.3089 29.3547C65.0963 27.356 64.3677 25.0166 64.4081 22.6701C64.4413 20.7447 65.0061 18.7791 66.3065 17.3149C66.729 16.8371 67.2202 16.4279 67.766 16.0991Z" fill="url(#paint2_linear_2206_25513)"/>
<path fill-rule="evenodd" clip-rule="evenodd" d="M68.5041 17.3173C68.9265 17.0618 69.3845 16.875 69.8662 16.7567C71.4325 16.3735 73.1079 16.7472 74.5246 17.4568C76.3875 18.3888 77.9276 19.9334 79.0002 21.7027C80.0729 23.472 80.7302 25.5488 80.6946 27.6256C80.6661 29.2057 80.2224 30.8591 79.1545 32.0631C78.827 32.4321 78.4473 32.7491 78.0249 33.0045C77.6025 33.26 77.1445 33.4469 76.6627 33.5651C75.0965 33.9483 73.4211 33.5746 72.0044 32.865C71.8928 32.8106 71.7837 32.7514 71.6769 32.6923C71.684 32.5788 71.6888 32.4652 71.6888 32.354C71.722 30.4878 71.1287 28.6191 70.1652 27.0296C69.2018 25.44 67.8159 24.0492 66.1429 23.2118C66.0432 23.1621 65.9388 23.1125 65.8367 23.0652C65.8344 22.9422 65.8344 22.8192 65.8367 22.6962C65.8652 21.1161 66.309 19.4627 67.3769 18.2587C67.7044 17.8897 68.084 17.5727 68.5065 17.3173H68.5041Z" fill="url(#paint3_linear_2206_25513)"/>
<path fill-rule="evenodd" clip-rule="evenodd" d="M94.5817 58.7494C94.3468 58.8724 94.1213 59.0049 93.9054 59.1492L28.3704 95.2781C24.5829 97.7807 23.6551 103.637 26.3628 108.77C29.0704 113.903 34.436 116.463 38.6506 114.771L105.066 80.3525C105.315 80.2532 105.56 80.142 105.799 80.0166C110.472 77.5684 111.749 70.8224 108.652 64.9515C105.555 59.0806 99.2543 56.3036 94.5841 58.7518L94.5817 58.7494ZM95.2462 60.0078C95.8133 59.7121 96.4161 59.504 97.045 59.3904C98.9743 59.038 100.953 59.5702 102.626 60.5377C104.663 61.7156 106.298 63.5441 107.387 65.6114C108.476 67.6788 109.062 70.0583 108.882 72.3977C108.732 74.3184 108.049 76.2462 106.665 77.6299C106.215 78.0817 105.7 78.4602 105.135 78.7582C104.568 79.0539 103.965 79.2621 103.336 79.3756C101.407 79.728 99.4275 79.1958 97.7545 78.2284C95.7184 77.0504 94.0834 75.222 92.9941 73.1546C91.9049 71.0873 91.3187 68.7101 91.4991 66.3683C91.6486 64.4476 92.332 62.5198 93.7155 61.1361C94.1664 60.6843 94.6814 60.3058 95.2462 60.0078Z" fill="url(#paint4_linear_2206_25513)"/>
<path fill-rule="evenodd" clip-rule="evenodd" d="M95.9109 61.2662C96.3475 61.0368 96.8174 60.8759 97.3039 60.7884C98.8914 60.4998 100.541 60.9729 101.912 61.7677C103.716 62.8108 105.161 64.4429 106.125 66.2737C107.09 68.1045 107.62 70.2168 107.458 72.2865C107.335 73.8619 106.794 75.4845 105.655 76.6247C105.306 76.9747 104.907 77.268 104.471 77.4975C104.034 77.7269 103.564 77.8878 103.078 77.9753C101.49 78.2639 99.8407 77.7908 98.469 76.996C98.3622 76.9345 98.2555 76.8707 98.151 76.8044C98.1653 76.6909 98.1748 76.5797 98.1843 76.4686C98.329 74.607 97.8497 72.7076 96.9835 71.0613C96.1173 69.4173 94.8169 67.9461 93.196 67.0094C93.0988 66.9526 92.9991 66.8982 92.8994 66.8462C92.9042 66.7232 92.9113 66.6002 92.9208 66.4772C93.0442 64.9018 93.5852 63.2791 94.7243 62.139C95.0732 61.7913 95.4718 61.4956 95.9085 61.2662H95.9109Z" fill="url(#paint5_linear_2206_25513)"/>
</g>
<path d="M129.25 53.815V25.3641H141.939C145.064 25.3641 147.198 25.9814 148.334 27.2185C149.471 28.4556 150.041 30.769 150.041 34.1586C150.041 37.5482 149.447 39.6274 148.265 40.8077C147.081 41.988 144.858 42.5794 141.597 42.5794L140.377 42.6007H132.38V53.815H129.255H129.25ZM132.375 39.8923H139.786C142.886 39.8923 144.872 39.5659 145.745 38.913C146.619 38.2602 147.055 36.7605 147.055 34.4117C147.055 31.6607 146.761 29.9198 146.172 29.1913C145.584 28.4604 144.186 28.0961 141.979 28.0961L140.781 28.0748H132.375V39.8923Z" fill="white"/>
<path d="M170.805 47.7903H156.778L154.647 53.815H151.339L161.489 25.3641H165.874L176.228 53.815H172.96L170.808 47.7903H170.805ZM169.892 45.3729L163.741 27.9897L157.67 45.3729H169.892Z" fill="white"/>
<path d="M209.481 25.3641V53.8149H206.356V29.345L206.377 28.4911L206.396 27.6348H206.316L206.071 28.3019C205.95 28.6354 205.867 28.8506 205.829 28.9476L205.3 30.2817L195.86 53.8126H192.735L183.273 30.5537L182.725 29.2386L182.481 28.5739C182.412 28.4225 182.331 28.2049 182.239 27.9258H182.158L182.179 28.6993L182.201 29.4893V53.8126H179.075V25.3617H184.495L191.885 43.7668L193.062 46.7472L193.651 48.2279L194.22 49.7063H194.301L194.87 48.2279C195.155 47.5183 195.343 47.0239 195.44 46.7472L196.638 43.7881L203.988 25.3641H209.489H209.481Z" fill="white"/>
<path d="M232.909 44.3108H236.015V45.3942C236.015 49.271 235.372 51.6932 234.086 52.6583C232.8 53.6234 229.565 54.1059 224.382 54.1059C219.74 54.1059 216.791 53.2544 215.531 51.5536C214.273 49.8506 213.644 45.846 213.644 39.5375C213.644 34.6056 213.786 31.5022 214.069 30.232C214.354 28.9595 215.165 27.8241 216.506 26.8235C218.075 25.6574 221.466 25.0731 226.677 25.0731C230.211 25.0731 232.588 25.6361 233.813 26.7596C235.037 27.8856 235.65 30.0594 235.65 33.2834L235.671 34.0545H232.565L232.543 33.1793C232.543 30.8849 232.18 29.4136 231.456 28.7584C230.733 28.1055 229.098 27.7791 226.554 27.7791C222.087 27.7791 219.358 28.1623 218.371 28.9263C217.384 29.6904 216.888 31.8097 216.888 35.2821C216.888 43.2724 217.22 47.9559 217.882 49.3302C218.544 50.7068 220.813 51.3928 224.684 51.3928C228.554 51.3928 230.661 51.0948 231.575 50.4963C232.489 49.8979 232.947 48.3982 232.947 45.9926L232.906 44.3061L232.909 44.3108Z" fill="white"/>
<path d="M256.58 47.7903H242.553L240.422 53.815H237.114L247.263 25.3641H251.649L262.003 53.815H258.735L256.583 47.7903H256.58ZM255.667 45.3729L249.515 27.9897L243.445 45.3729H255.667Z" fill="white"/>
<path d="M149.654 63.9648H146.547C146.547 61.6728 146.175 60.2181 145.432 59.5983C144.687 58.981 142.936 58.6711 140.173 58.6711C136.898 58.6711 134.786 58.9668 133.84 59.5581C132.893 60.1495 132.418 61.4646 132.418 63.5083C132.418 65.8004 132.791 67.1959 133.536 67.6974C134.281 68.1965 136.493 68.5371 140.173 68.7169C144.49 68.9109 147.236 69.4762 148.406 70.4058C149.575 71.3377 150.162 73.4217 150.162 76.6575C150.162 80.1583 149.488 82.4243 148.142 83.4533C146.794 84.4822 143.821 84.9955 139.219 84.9955C135.228 84.9955 132.57 84.4798 131.251 83.4438C129.931 82.4078 129.271 80.3191 129.271 77.1803L129.25 75.9077H132.356V76.6149C132.356 79.1577 132.736 80.7378 133.493 81.3575C134.25 81.9749 136.194 82.2848 139.319 82.2848C142.905 82.2848 145.112 81.9749 145.937 81.3575C146.763 80.7402 147.176 79.0891 147.176 76.4068C147.176 74.6706 146.894 73.5139 146.334 72.9368C145.771 72.3596 144.597 72.0166 142.812 71.9054L139.563 71.7375L136.478 71.5719C131.782 71.2384 129.433 68.7382 129.433 64.0689C129.433 60.8307 130.116 58.6687 131.483 57.5854C132.85 56.502 135.577 55.9604 139.665 55.9604C143.754 55.9604 146.507 56.4642 147.765 57.4718C149.022 58.4795 149.654 60.6438 149.654 63.9625V63.9648Z" fill="#009DE1"/>
<path d="M163.579 59.2341V84.7046H160.454V59.2341H151.419V56.2537H172.533V59.2341H163.579Z" fill="#009DE1"/>
<path d="M177.324 58.9644V68.6554H191.392V71.3661H177.324V81.9962H192.002V84.7046H174.196V56.2537H192.002V58.962H177.324V58.9644Z" fill="#009DE1"/>
<path d="M198.032 58.9644V68.6554H212.099V71.3661H198.032V81.9962H212.709V84.7046H194.904V56.2537H212.709V58.962H198.032V58.9644Z" fill="#009DE1"/>
<path d="M219.857 56.2537V81.7242H234.107V84.7046H216.729V56.2537H219.854H219.857Z" fill="#009DE1"/>
</g>
<defs>
<linearGradient id="paint0_linear_2206_25513" x1="22.4141" y1="59.627" x2="107.012" y2="59.627" gradientUnits="userSpaceOnUse">
<stop stop-color="#253874"/>
<stop offset="1" stop-color="#009DE1"/>
</linearGradient>
<linearGradient id="paint1_linear_2206_25513" x1="89.4369" y1="41.4821" x2="104.16" y2="41.4821" gradientUnits="userSpaceOnUse">
<stop stop-color="#253874"/>
<stop offset="1" stop-color="#009DE1"/>
</linearGradient>
<linearGradient id="paint2_linear_2206_25513" x1="0.000281902" y1="44.2993" x2="83.5493" y2="44.2993" gradientUnits="userSpaceOnUse">
<stop stop-color="#253874"/>
<stop offset="1" stop-color="#009DE1"/>
</linearGradient>
<linearGradient id="paint3_linear_2206_25513" x1="65.832" y1="25.1609" x2="80.697" y2="25.1609" gradientUnits="userSpaceOnUse">
<stop stop-color="#253874"/>
<stop offset="1" stop-color="#009DE1"/>
</linearGradient>
<linearGradient id="paint4_linear_2206_25513" x1="24.806" y1="86.5735" x2="110.341" y2="86.5735" gradientUnits="userSpaceOnUse">
<stop stop-color="#253874"/>
<stop offset="1" stop-color="#009DE1"/>
</linearGradient>
<linearGradient id="paint5_linear_2206_25513" x1="92.9018" y1="69.3818" x2="107.487" y2="69.3818" gradientUnits="userSpaceOnUse">
<stop stop-color="#253874"/>
<stop offset="1" stop-color="#009DE1"/>
</linearGradient>
<clipPath id="clip0_2206_25513">
<rect width="262" height="110" fill="white"/>
</clipPath>
</defs>
</svg>
